<mxfile host="drawio-plugin" modified="2022-08-20T08:20:52.562Z" agent="5.0 (Macintosh; Intel Mac OS X 10_15_7) AppleWebKit/537.36 (KHTML, like Gecko) Chrome/97.0.4692.45 Safari/537.36" etag="bvlV-ymnxfyzKiim55Vd" version="15.5.4" type="embed" pages="6"><diagram name="Simplified-EN" id="zIK2udWO5zwtf-2YYLLd"><mxGraphModel dx="1153" dy="784" grid="1" gridSize="10" guides="1" tooltips="1" connect="1" arrows="1" fold="1" page="1" pageScale="1" pageWidth="500" pageHeight="500" math="1" shadow="0"><root><mxCell id="_1n66DIw82SWKhbr7GXP-0"/><mxCell id="_1n66DIw82SWKhbr7GXP-1" parent="_1n66DIw82SWKhbr7GXP-0"/><mxCell id="_1n66DIw82SWKhbr7GXP-2" style="orthogonalLoop=1;jettySize=auto;html=1;fontSize=16;curved=1;fillColor=#f5f5f5;strokeColor=#666666;" parent="_1n66DIw82SWKhbr7GXP-1" source="_1n66DIw82SWKhbr7GXP-4" target="_1n66DIw82SWKhbr7GXP-14" edge="1"><mxGeometry relative="1" as="geometry"><Array as="points"><mxPoint x="110" y="180"/></Array></mxGeometry></mxCell><mxCell id="_1n66DIw82SWKhbr7GXP-4" value="\( \mathcal{A} \)" style="shape=cylinder;whiteSpace=wrap;html=1;boundedLbl=1;backgroundOutline=1;rounded=1;fontSize=16;fillColor=#f5f5f5;strokeColor=#666666;fontColor=#333333;align=center;verticalAlign=top;spacingTop=-3;" parent="_1n66DIw82SWKhbr7GXP-1" vertex="1"><mxGeometry x="50" y="160" width="30" height="40" as="geometry"/></mxCell><mxCell id="_1n66DIw82SWKhbr7GXP-7" style="rounded=0;orthogonalLoop=1;jettySize=auto;html=1;fontSize=16;fillColor=#f5f5f5;strokeColor=#666666;entryX=0.25;entryY=0;entryDx=0;entryDy=0;" parent="_1n66DIw82SWKhbr7GXP-1" source="_1n66DIw82SWKhbr7GXP-8" target="_1n66DIw82SWKhbr7GXP-14" edge="1"><mxGeometry relative="1" as="geometry"><mxPoint x="70" y="125.20000000000005" as="targetPoint"/></mxGeometry></mxCell><mxCell id="_1n66DIw82SWKhbr7GXP-8" value="VS" style="shape=cylinder;whiteSpace=wrap;html=1;boundedLbl=1;backgroundOutline=1;rounded=1;fontSize=16;fillColor=#f5f5f5;strokeColor=#666666;fontColor=#333333;" parent="_1n66DIw82SWKhbr7GXP-1" vertex="1"><mxGeometry x="90" y="90" width="30" height="40" as="geometry"/></mxCell><mxCell id="_1n66DIw82SWKhbr7GXP-9" style="rounded=0;orthogonalLoop=1;jettySize=auto;html=1;fontSize=16;fillColor=#f5f5f5;strokeColor=#666666;" parent="_1n66DIw82SWKhbr7GXP-1" source="_1n66DIw82SWKhbr7GXP-10" target="_1n66DIw82SWKhbr7GXP-14" edge="1"><mxGeometry relative="1" as="geometry"/></mxCell><mxCell id="_1n66DIw82SWKhbr7GXP-10" value="MR" style="shape=cylinder;whiteSpace=wrap;html=1;boundedLbl=1;backgroundOutline=1;rounded=1;fontSize=16;fillColor=#f5f5f5;strokeColor=#666666;fontColor=#333333;" parent="_1n66DIw82SWKhbr7GXP-1" vertex="1"><mxGeometry x="140" y="90" width="30" height="40" as="geometry"/></mxCell><mxCell id="_1n66DIw82SWKhbr7GXP-13" style="edgeStyle=none;rounded=0;orthogonalLoop=1;jettySize=auto;html=1;fontSize=16;fillColor=#f5f5f5;strokeColor=#666666;" parent="_1n66DIw82SWKhbr7GXP-1" source="_1n66DIw82SWKhbr7GXP-14" target="_1n66DIw82SWKhbr7GXP-15" edge="1"><mxGeometry relative="1" as="geometry"/></mxCell><mxCell id="_1n66DIw82SWKhbr7GXP-14" value="ME" style="rounded=0;whiteSpace=wrap;html=1;fontSize=16;fillColor=#f5f5f5;strokeColor=#666666;fontColor=#333333;spacingTop=2;" parent="_1n66DIw82SWKhbr7GXP-1" vertex="1"><mxGeometry x="110" y="140" width="40" height="20" as="geometry"/></mxCell><mxCell id="_1n66DIw82SWKhbr7GXP-15" value="\(\mathcal{A}_m\)" style="ellipse;whiteSpace=wrap;html=1;aspect=fixed;rounded=1;fontSize=16;fillColor=#f5f5f5;strokeColor=#666666;fontColor=#333333;" parent="_1n66DIw82SWKhbr7GXP-1" vertex="1"><mxGeometry x="180" y="130" width="40" height="40" as="geometry"/></mxCell><mxCell id="_1n66DIw82SWKhbr7GXP-17" style="edgeStyle=none;rounded=0;orthogonalLoop=1;jettySize=auto;html=1;fontSize=16;fillColor=#f5f5f5;strokeColor=#666666;" parent="_1n66DIw82SWKhbr7GXP-1" source="_1n66DIw82SWKhbr7GXP-18" target="_1n66DIw82SWKhbr7GXP-14" edge="1"><mxGeometry relative="1" as="geometry"/></mxCell><mxCell id="_1n66DIw82SWKhbr7GXP-18" value="\(\mathcal{B}\)" style="ellipse;whiteSpace=wrap;html=1;aspect=fixed;rounded=1;fontSize=16;fillColor=#f5f5f5;strokeColor=#666666;fontColor=#333333;" parent="_1n66DIw82SWKhbr7GXP-1" vertex="1"><mxGeometry x="40" y="110" width="40" height="40" as="geometry"/></mxCell><mxCell id="_1n66DIw82SWKhbr7GXP-19" value="" style="group;spacingLeft=0;spacingRight=0;align=center;" parent="_1n66DIw82SWKhbr7GXP-1" vertex="1" connectable="0"><mxGeometry x="240" y="100" width="210" height="90" as="geometry"/></mxCell><mxCell id="_1n66DIw82SWKhbr7GXP-20" value="Data flow&lt;br&gt;Mental state&lt;br&gt;Function&lt;br&gt;Knowledge base" style="text;html=1;strokeColor=#000000;fillColor=none;align=left;verticalAlign=top;whiteSpace=wrap;rounded=0;fontSize=16;spacingLeft=30;spacing=0;" parent="_1n66DIw82SWKhbr7GXP-19" vertex="1"><mxGeometry width="210.00000000000006" height="90" as="geometry"/></mxCell><mxCell id="_1n66DIw82SWKhbr7GXP-21" value="" style="endArrow=classic;html=1;fontSize=16;" parent="_1n66DIw82SWKhbr7GXP-19" edge="1"><mxGeometry width="50" height="50" relative="1" as="geometry"><mxPoint x="6" y="14" as="sourcePoint"/><mxPoint x="26" y="14" as="targetPoint"/></mxGeometry></mxCell><mxCell id="_1n66DIw82SWKhbr7GXP-22" value="" style="ellipse;whiteSpace=wrap;html=1;aspect=fixed;rounded=1;fillColor=#f5f5f5;fontSize=16;align=left;strokeColor=#666666;fontColor=#333333;" parent="_1n66DIw82SWKhbr7GXP-19" vertex="1"><mxGeometry x="10.240000000000004" y="26.669999999999987" width="12" height="12" as="geometry"/></mxCell><mxCell id="_1n66DIw82SWKhbr7GXP-23" value="" style="rounded=0;whiteSpace=wrap;html=1;fontSize=16;align=left;fillColor=#f5f5f5;strokeColor=#666666;fontColor=#333333;" parent="_1n66DIw82SWKhbr7GXP-19" vertex="1"><mxGeometry x="6.07" y="46" width="20" height="10" as="geometry"/></mxCell><mxCell id="_1n66DIw82SWKhbr7GXP-24" value="" style="shape=cylinder;whiteSpace=wrap;html=1;boundedLbl=1;backgroundOutline=1;rounded=1;fontSize=16;fillColor=#f5f5f5;strokeColor=#666666;fontColor=#333333;" parent="_1n66DIw82SWKhbr7GXP-19" vertex="1"><mxGeometry x="10.240000000000004" y="63" width="11.66666666666667" height="20" as="geometry"/></mxCell></root></mxGraphModel></diagram><diagram name="Custom-EN" id="EEYBTFTN3YDUsrnM6Y4H"><mxGraphModel dx="673" dy="633" grid="1" gridSize="10" guides="1" tooltips="1" connect="1" arrows="1" fold="1" page="1" pageScale="1" pageWidth="500" pageHeight="500" math="1" shadow="0"><root><mxCell id="K3C6fFBH4k3MNprQryI1-0"/><mxCell id="K3C6fFBH4k3MNprQryI1-1" parent="K3C6fFBH4k3MNprQryI1-0"/><mxCell id="K3C6fFBH4k3MNprQryI1-2" style="orthogonalLoop=1;jettySize=auto;html=1;fontSize=16;curved=1;fillColor=#f5f5f5;strokeColor=#666666;" parent="K3C6fFBH4k3MNprQryI1-1" source="K3C6fFBH4k3MNprQryI1-4" target="K3C6fFBH4k3MNprQryI1-14" edge="1"><mxGeometry relative="1" as="geometry"><Array as="points"><mxPoint x="80" y="220"/></Array></mxGeometry></mxCell><mxCell id="K3C6fFBH4k3MNprQryI1-3" style="edgeStyle=none;orthogonalLoop=1;jettySize=auto;html=1;fontSize=16;rounded=0;exitX=0.5;exitY=0;exitDx=0;exitDy=0;entryX=0.25;entryY=1;entryDx=0;entryDy=0;fillColor=#f5f5f5;strokeColor=#666666;" parent="K3C6fFBH4k3MNprQryI1-1" source="K3C6fFBH4k3MNprQryI1-4" target="K3C6fFBH4k3MNprQryI1-6" edge="1"><mxGeometry relative="1" as="geometry"/></mxCell><mxCell id="K3C6fFBH4k3MNprQryI1-4" value="A" style="shape=cylinder;whiteSpace=wrap;html=1;boundedLbl=1;backgroundOutline=1;rounded=1;fontSize=16;fillColor=#f5f5f5;strokeColor=#666666;fontColor=#333333;align=center;verticalAlign=top;spacingTop=-3;" parent="K3C6fFBH4k3MNprQryI1-1" vertex="1"><mxGeometry x="20" y="165.21" width="30" height="40" as="geometry"/></mxCell><mxCell id="K3C6fFBH4k3MNprQryI1-5" style="edgeStyle=orthogonalEdgeStyle;rounded=0;orthogonalLoop=1;jettySize=auto;html=1;fontSize=16;fillColor=#f5f5f5;strokeColor=#666666;" parent="K3C6fFBH4k3MNprQryI1-1" source="K3C6fFBH4k3MNprQryI1-6" target="K3C6fFBH4k3MNprQryI1-12" edge="1"><mxGeometry relative="1" as="geometry"/></mxCell><mxCell id="K3C6fFBH4k3MNprQryI1-6" value="VE" style="rounded=0;whiteSpace=wrap;html=1;fontSize=16;fillColor=#f5f5f5;strokeColor=#666666;fontColor=#333333;spacingTop=2;" parent="K3C6fFBH4k3MNprQryI1-1" vertex="1"><mxGeometry x="60" y="115.21" width="40" height="20" as="geometry"/></mxCell><mxCell id="K3C6fFBH4k3MNprQryI1-7" style="edgeStyle=orthogonalEdgeStyle;rounded=0;orthogonalLoop=1;jettySize=auto;html=1;fontSize=16;fillColor=#f5f5f5;strokeColor=#666666;" parent="K3C6fFBH4k3MNprQryI1-1" source="K3C6fFBH4k3MNprQryI1-8" target="K3C6fFBH4k3MNprQryI1-6" edge="1"><mxGeometry relative="1" as="geometry"/></mxCell><mxCell id="K3C6fFBH4k3MNprQryI1-8" value="VS" style="shape=cylinder;whiteSpace=wrap;html=1;boundedLbl=1;backgroundOutline=1;rounded=1;fontSize=16;fillColor=#f5f5f5;strokeColor=#666666;fontColor=#333333;" parent="K3C6fFBH4k3MNprQryI1-1" vertex="1"><mxGeometry x="10" y="105.21" width="30" height="40" as="geometry"/></mxCell><mxCell id="K3C6fFBH4k3MNprQryI1-9" style="rounded=0;orthogonalLoop=1;jettySize=auto;html=1;fontSize=16;fillColor=#f5f5f5;strokeColor=#666666;" parent="K3C6fFBH4k3MNprQryI1-1" source="K3C6fFBH4k3MNprQryI1-10" target="K3C6fFBH4k3MNprQryI1-14" edge="1"><mxGeometry relative="1" as="geometry"/></mxCell><mxCell id="K3C6fFBH4k3MNprQryI1-10" value="MR" style="shape=cylinder;whiteSpace=wrap;html=1;boundedLbl=1;backgroundOutline=1;rounded=1;fontSize=16;fillColor=#f5f5f5;strokeColor=#666666;fontColor=#333333;" parent="K3C6fFBH4k3MNprQryI1-1" vertex="1"><mxGeometry x="185" y="105.21" width="30" height="40" as="geometry"/></mxCell><mxCell id="K3C6fFBH4k3MNprQryI1-11" style="edgeStyle=orthogonalEdgeStyle;rounded=0;orthogonalLoop=1;jettySize=auto;html=1;fontSize=16;fillColor=#f5f5f5;strokeColor=#666666;" parent="K3C6fFBH4k3MNprQryI1-1" source="K3C6fFBH4k3MNprQryI1-12" target="K3C6fFBH4k3MNprQryI1-14" edge="1"><mxGeometry relative="1" as="geometry"/></mxCell><mxCell id="K3C6fFBH4k3MNprQryI1-12" value="&lt;sub&gt;\(\mathcal{A}_v\)&lt;br&gt;&lt;/sub&gt;" style="ellipse;whiteSpace=wrap;html=1;aspect=fixed;rounded=1;fontSize=16;fillColor=#f5f5f5;strokeColor=#666666;fontColor=#333333;" parent="K3C6fFBH4k3MNprQryI1-1" vertex="1"><mxGeometry x="120" y="105.21" width="40" height="40" as="geometry"/></mxCell><mxCell id="K3C6fFBH4k3MNprQryI1-13" style="edgeStyle=none;rounded=0;orthogonalLoop=1;jettySize=auto;html=1;fontSize=16;fillColor=#f5f5f5;strokeColor=#666666;" parent="K3C6fFBH4k3MNprQryI1-1" source="K3C6fFBH4k3MNprQryI1-14" target="K3C6fFBH4k3MNprQryI1-15" edge="1"><mxGeometry relative="1" as="geometry"/></mxCell><mxCell id="K3C6fFBH4k3MNprQryI1-14" value="ME" style="rounded=0;whiteSpace=wrap;html=1;fontSize=16;fillColor=#f5f5f5;strokeColor=#666666;fontColor=#333333;spacingTop=2;" parent="K3C6fFBH4k3MNprQryI1-1" vertex="1"><mxGeometry x="120" y="175.21" width="40" height="20" as="geometry"/></mxCell><mxCell id="K3C6fFBH4k3MNprQryI1-15" value="\(\mathcal{A}_m\)" style="ellipse;whiteSpace=wrap;html=1;aspect=fixed;rounded=1;fontSize=16;fillColor=#f5f5f5;strokeColor=#666666;fontColor=#333333;" parent="K3C6fFBH4k3MNprQryI1-1" vertex="1"><mxGeometry x="190" y="165.21" width="40" height="40" as="geometry"/></mxCell><mxCell id="K3C6fFBH4k3MNprQryI1-16" style="edgeStyle=none;rounded=0;orthogonalLoop=1;jettySize=auto;html=1;fontSize=16;fillColor=#f5f5f5;strokeColor=#666666;" parent="K3C6fFBH4k3MNprQryI1-1" source="K3C6fFBH4k3MNprQryI1-18" target="K3C6fFBH4k3MNprQryI1-6" edge="1"><mxGeometry relative="1" as="geometry"><Array as="points"><mxPoint x="80" y="155.21"/></Array></mxGeometry></mxCell><mxCell id="K3C6fFBH4k3MNprQryI1-17" style="edgeStyle=none;rounded=0;orthogonalLoop=1;jettySize=auto;html=1;fontSize=16;fillColor=#f5f5f5;strokeColor=#666666;" parent="K3C6fFBH4k3MNprQryI1-1" source="K3C6fFBH4k3MNprQryI1-18" target="K3C6fFBH4k3MNprQryI1-14" edge="1"><mxGeometry relative="1" as="geometry"/></mxCell><mxCell id="K3C6fFBH4k3MNprQryI1-18" value="\(\mathcal{B}\)" style="ellipse;whiteSpace=wrap;html=1;aspect=fixed;rounded=1;fontSize=16;fillColor=#f5f5f5;strokeColor=#666666;fontColor=#333333;" parent="K3C6fFBH4k3MNprQryI1-1" vertex="1"><mxGeometry x="60" y="165.21" width="40" height="40" as="geometry"/></mxCell><mxCell id="K3C6fFBH4k3MNprQryI1-19" value="" style="group;spacingLeft=0;spacingRight=0;align=center;" parent="K3C6fFBH4k3MNprQryI1-1" vertex="1" connectable="0"><mxGeometry x="240" y="110" width="210" height="90" as="geometry"/></mxCell><mxCell id="K3C6fFBH4k3MNprQryI1-20" value="Data flow&lt;br&gt;Mental state&lt;br&gt;Function&lt;br&gt;Knowledge base" style="text;html=1;strokeColor=#000000;fillColor=none;align=left;verticalAlign=top;whiteSpace=wrap;rounded=0;fontSize=16;spacingLeft=30;spacing=0;" parent="K3C6fFBH4k3MNprQryI1-19" vertex="1"><mxGeometry width="210.00000000000006" height="90" as="geometry"/></mxCell><mxCell id="K3C6fFBH4k3MNprQryI1-21" value="" style="endArrow=classic;html=1;fontSize=16;" parent="K3C6fFBH4k3MNprQryI1-19" edge="1"><mxGeometry width="50" height="50" relative="1" as="geometry"><mxPoint x="6" y="14" as="sourcePoint"/><mxPoint x="26" y="14" as="targetPoint"/></mxGeometry></mxCell><mxCell id="K3C6fFBH4k3MNprQryI1-22" value="" style="ellipse;whiteSpace=wrap;html=1;aspect=fixed;rounded=1;fillColor=#f5f5f5;fontSize=16;align=left;strokeColor=#666666;fontColor=#333333;" parent="K3C6fFBH4k3MNprQryI1-19" vertex="1"><mxGeometry x="10.240000000000004" y="26.669999999999987" width="12" height="12" as="geometry"/></mxCell><mxCell id="K3C6fFBH4k3MNprQryI1-23" value="" style="rounded=0;whiteSpace=wrap;html=1;fontSize=16;align=left;fillColor=#f5f5f5;strokeColor=#666666;fontColor=#333333;" parent="K3C6fFBH4k3MNprQryI1-19" vertex="1"><mxGeometry x="6.07" y="46" width="20" height="10" as="geometry"/></mxCell><mxCell id="K3C6fFBH4k3MNprQryI1-24" value="" style="shape=cylinder;whiteSpace=wrap;html=1;boundedLbl=1;backgroundOutline=1;rounded=1;fontSize=16;fillColor=#f5f5f5;strokeColor=#666666;fontColor=#333333;" parent="K3C6fFBH4k3MNprQryI1-19" vertex="1"><mxGeometry x="10.240000000000004" y="63" width="11.66666666666667" height="20" as="geometry"/></mxCell></root></mxGraphModel></diagram><diagram id="oHhE9uaoET2tpx0DDCm_" name="Custom-FR"><mxGraphModel dx="673" dy="633" grid="1" gridSize="10" guides="1" tooltips="1" connect="1" arrows="1" fold="1" page="1" pageScale="1" pageWidth="500" pageHeight="500" math="1" shadow="0"><root><mxCell id="PzNhYTB7rw89B5Ipm2dx-0"/><mxCell id="PzNhYTB7rw89B5Ipm2dx-1" parent="PzNhYTB7rw89B5Ipm2dx-0"/><mxCell id="CzwnQz_CrnjJqAvrV9LQ-18" style="orthogonalLoop=1;jettySize=auto;html=1;fontSize=16;curved=1;fillColor=#f5f5f5;strokeColor=#666666;" parent="PzNhYTB7rw89B5Ipm2dx-1" source="CzwnQz_CrnjJqAvrV9LQ-0" target="CzwnQz_CrnjJqAvrV9LQ-5" edge="1"><mxGeometry relative="1" as="geometry"><Array as="points"><mxPoint x="80" y="220"/></Array></mxGeometry></mxCell><mxCell id="CzwnQz_CrnjJqAvrV9LQ-22" style="edgeStyle=none;orthogonalLoop=1;jettySize=auto;html=1;fontSize=16;rounded=0;exitX=0.5;exitY=0;exitDx=0;exitDy=0;entryX=0.25;entryY=1;entryDx=0;entryDy=0;fillColor=#f5f5f5;strokeColor=#666666;" parent="PzNhYTB7rw89B5Ipm2dx-1" source="CzwnQz_CrnjJqAvrV9LQ-0" target="CzwnQz_CrnjJqAvrV9LQ-1" edge="1"><mxGeometry relative="1" as="geometry"/></mxCell><mxCell id="CzwnQz_CrnjJqAvrV9LQ-0" value="A" style="shape=cylinder;whiteSpace=wrap;html=1;boundedLbl=1;backgroundOutline=1;rounded=1;fontSize=16;fillColor=#f5f5f5;strokeColor=#666666;fontColor=#333333;align=center;verticalAlign=top;spacingTop=-3;" parent="PzNhYTB7rw89B5Ipm2dx-1" vertex="1"><mxGeometry x="20" y="165.21" width="30" height="40" as="geometry"/></mxCell><mxCell id="CzwnQz_CrnjJqAvrV9LQ-12" style="edgeStyle=orthogonalEdgeStyle;rounded=0;orthogonalLoop=1;jettySize=auto;html=1;fontSize=16;fillColor=#f5f5f5;strokeColor=#666666;" parent="PzNhYTB7rw89B5Ipm2dx-1" source="CzwnQz_CrnjJqAvrV9LQ-1" target="CzwnQz_CrnjJqAvrV9LQ-4" edge="1"><mxGeometry relative="1" as="geometry"/></mxCell><mxCell id="CzwnQz_CrnjJqAvrV9LQ-1" value="VE" style="rounded=0;whiteSpace=wrap;html=1;fontSize=16;fillColor=#f5f5f5;strokeColor=#666666;fontColor=#333333;spacingTop=2;" parent="PzNhYTB7rw89B5Ipm2dx-1" vertex="1"><mxGeometry x="60" y="115.21" width="40" height="20" as="geometry"/></mxCell><mxCell id="CzwnQz_CrnjJqAvrV9LQ-11" style="edgeStyle=orthogonalEdgeStyle;rounded=0;orthogonalLoop=1;jettySize=auto;html=1;fontSize=16;fillColor=#f5f5f5;strokeColor=#666666;" parent="PzNhYTB7rw89B5Ipm2dx-1" source="CzwnQz_CrnjJqAvrV9LQ-2" target="CzwnQz_CrnjJqAvrV9LQ-1" edge="1"><mxGeometry relative="1" as="geometry"/></mxCell><mxCell id="CzwnQz_CrnjJqAvrV9LQ-2" value="VS" style="shape=cylinder;whiteSpace=wrap;html=1;boundedLbl=1;backgroundOutline=1;rounded=1;fontSize=16;fillColor=#f5f5f5;strokeColor=#666666;fontColor=#333333;" parent="PzNhYTB7rw89B5Ipm2dx-1" vertex="1"><mxGeometry x="10" y="105.21" width="30" height="40" as="geometry"/></mxCell><mxCell id="CzwnQz_CrnjJqAvrV9LQ-14" style="rounded=0;orthogonalLoop=1;jettySize=auto;html=1;fontSize=16;fillColor=#f5f5f5;strokeColor=#666666;" parent="PzNhYTB7rw89B5Ipm2dx-1" source="CzwnQz_CrnjJqAvrV9LQ-3" target="CzwnQz_CrnjJqAvrV9LQ-5" edge="1"><mxGeometry relative="1" as="geometry"/></mxCell><mxCell id="CzwnQz_CrnjJqAvrV9LQ-3" value="MR" style="shape=cylinder;whiteSpace=wrap;html=1;boundedLbl=1;backgroundOutline=1;rounded=1;fontSize=16;fillColor=#f5f5f5;strokeColor=#666666;fontColor=#333333;" parent="PzNhYTB7rw89B5Ipm2dx-1" vertex="1"><mxGeometry x="185" y="105.21" width="30" height="40" as="geometry"/></mxCell><mxCell id="CzwnQz_CrnjJqAvrV9LQ-13" style="edgeStyle=orthogonalEdgeStyle;rounded=0;orthogonalLoop=1;jettySize=auto;html=1;fontSize=16;fillColor=#f5f5f5;strokeColor=#666666;" parent="PzNhYTB7rw89B5Ipm2dx-1" source="CzwnQz_CrnjJqAvrV9LQ-4" target="CzwnQz_CrnjJqAvrV9LQ-5" edge="1"><mxGeometry relative="1" as="geometry"/></mxCell><mxCell id="CzwnQz_CrnjJqAvrV9LQ-4" value="&lt;sub&gt;\(\mathcal{A}_v\)&lt;br&gt;&lt;/sub&gt;" style="ellipse;whiteSpace=wrap;html=1;aspect=fixed;rounded=1;fontSize=16;fillColor=#f5f5f5;strokeColor=#666666;fontColor=#333333;" parent="PzNhYTB7rw89B5Ipm2dx-1" vertex="1"><mxGeometry x="120" y="105.21" width="40" height="40" as="geometry"/></mxCell><mxCell id="CzwnQz_CrnjJqAvrV9LQ-19" style="edgeStyle=none;rounded=0;orthogonalLoop=1;jettySize=auto;html=1;fontSize=16;fillColor=#f5f5f5;strokeColor=#666666;" parent="PzNhYTB7rw89B5Ipm2dx-1" source="CzwnQz_CrnjJqAvrV9LQ-5" target="CzwnQz_CrnjJqAvrV9LQ-6" edge="1"><mxGeometry relative="1" as="geometry"/></mxCell><mxCell id="CzwnQz_CrnjJqAvrV9LQ-5" value="ME" style="rounded=0;whiteSpace=wrap;html=1;fontSize=16;fillColor=#f5f5f5;strokeColor=#666666;fontColor=#333333;spacingTop=2;" parent="PzNhYTB7rw89B5Ipm2dx-1" vertex="1"><mxGeometry x="120" y="175.21" width="40" height="20" as="geometry"/></mxCell><mxCell id="CzwnQz_CrnjJqAvrV9LQ-6" value="\(\mathcal{A}_m\)" style="ellipse;whiteSpace=wrap;html=1;aspect=fixed;rounded=1;fontSize=16;fillColor=#f5f5f5;strokeColor=#666666;fontColor=#333333;" parent="PzNhYTB7rw89B5Ipm2dx-1" vertex="1"><mxGeometry x="190" y="165.21" width="40" height="40" as="geometry"/></mxCell><mxCell id="CzwnQz_CrnjJqAvrV9LQ-15" style="edgeStyle=none;rounded=0;orthogonalLoop=1;jettySize=auto;html=1;fontSize=16;fillColor=#f5f5f5;strokeColor=#666666;" parent="PzNhYTB7rw89B5Ipm2dx-1" source="CzwnQz_CrnjJqAvrV9LQ-7" target="CzwnQz_CrnjJqAvrV9LQ-1" edge="1"><mxGeometry relative="1" as="geometry"><Array as="points"><mxPoint x="80" y="155.21"/></Array></mxGeometry></mxCell><mxCell id="CzwnQz_CrnjJqAvrV9LQ-16" style="edgeStyle=none;rounded=0;orthogonalLoop=1;jettySize=auto;html=1;fontSize=16;fillColor=#f5f5f5;strokeColor=#666666;" parent="PzNhYTB7rw89B5Ipm2dx-1" source="CzwnQz_CrnjJqAvrV9LQ-7" target="CzwnQz_CrnjJqAvrV9LQ-5" edge="1"><mxGeometry relative="1" as="geometry"/></mxCell><mxCell id="CzwnQz_CrnjJqAvrV9LQ-7" value="\(\mathcal{B}\)" style="ellipse;whiteSpace=wrap;html=1;aspect=fixed;rounded=1;fontSize=16;fillColor=#f5f5f5;strokeColor=#666666;fontColor=#333333;" parent="PzNhYTB7rw89B5Ipm2dx-1" vertex="1"><mxGeometry x="60" y="165.21" width="40" height="40" as="geometry"/></mxCell><mxCell id="I3-xU6sc9AZswCEPyjrL-1" value="" style="group;spacingLeft=0;spacingRight=0;align=center;" parent="PzNhYTB7rw89B5Ipm2dx-1" vertex="1" connectable="0"><mxGeometry x="240" y="110" width="210" height="90" as="geometry"/></mxCell><mxCell id="CzwnQz_CrnjJqAvrV9LQ-23" value="Flux de données&lt;br&gt;État mental&lt;br&gt;Fonction&lt;br&gt;Base de connaissances" style="text;html=1;strokeColor=#000000;fillColor=none;align=left;verticalAlign=top;whiteSpace=wrap;rounded=0;fontSize=16;spacingLeft=30;spacing=0;" parent="I3-xU6sc9AZswCEPyjrL-1" vertex="1"><mxGeometry width="210.00000000000006" height="90" as="geometry"/></mxCell><mxCell id="CzwnQz_CrnjJqAvrV9LQ-28" value="" style="endArrow=classic;html=1;fontSize=16;" parent="I3-xU6sc9AZswCEPyjrL-1" edge="1"><mxGeometry width="50" height="50" relative="1" as="geometry"><mxPoint x="6" y="14" as="sourcePoint"/><mxPoint x="26" y="14" as="targetPoint"/></mxGeometry></mxCell><mxCell id="CzwnQz_CrnjJqAvrV9LQ-32" value="" style="ellipse;whiteSpace=wrap;html=1;aspect=fixed;rounded=1;fillColor=#f5f5f5;fontSize=16;align=left;strokeColor=#666666;fontColor=#333333;" parent="I3-xU6sc9AZswCEPyjrL-1" vertex="1"><mxGeometry x="10.240000000000004" y="26.669999999999987" width="12" height="12" as="geometry"/></mxCell><mxCell id="CzwnQz_CrnjJqAvrV9LQ-34" value="" style="rounded=0;whiteSpace=wrap;html=1;fontSize=16;align=left;fillColor=#f5f5f5;strokeColor=#666666;fontColor=#333333;" parent="I3-xU6sc9AZswCEPyjrL-1" vertex="1"><mxGeometry x="6.07" y="46" width="20" height="10" as="geometry"/></mxCell><mxCell id="I3-xU6sc9AZswCEPyjrL-0" value="" style="shape=cylinder;whiteSpace=wrap;html=1;boundedLbl=1;backgroundOutline=1;rounded=1;fontSize=16;fillColor=#f5f5f5;strokeColor=#666666;fontColor=#333333;" parent="I3-xU6sc9AZswCEPyjrL-1" vertex="1"><mxGeometry x="10.240000000000004" y="63" width="11.66666666666667" height="20" as="geometry"/></mxCell></root></mxGraphModel></diagram><diagram name="Custom-FR-pres" id="pzGKLMCBfTMfCBf7K7bj"><mxGraphModel dx="673" dy="633" grid="1" gridSize="10" guides="1" tooltips="1" connect="1" arrows="1" fold="1" page="1" pageScale="1" pageWidth="500" pageHeight="500" math="1" shadow="0"><root><mxCell id="FXJ-xP3UKgWeBVty9vVz-0"/><mxCell id="FXJ-xP3UKgWeBVty9vVz-1" parent="FXJ-xP3UKgWeBVty9vVz-0"/><mxCell id="FXJ-xP3UKgWeBVty9vVz-2" style="orthogonalLoop=1;jettySize=auto;html=1;fontSize=16;curved=1;fillColor=#f5f5f5;strokeColor=#666666;" parent="FXJ-xP3UKgWeBVty9vVz-1" source="FXJ-xP3UKgWeBVty9vVz-4" target="FXJ-xP3UKgWeBVty9vVz-14" edge="1"><mxGeometry relative="1" as="geometry"><Array as="points"><mxPoint x="80" y="220"/></Array></mxGeometry></mxCell><mxCell id="FXJ-xP3UKgWeBVty9vVz-3" style="edgeStyle=none;orthogonalLoop=1;jettySize=auto;html=1;fontSize=16;rounded=0;exitX=0.5;exitY=0;exitDx=0;exitDy=0;entryX=0.25;entryY=1;entryDx=0;entryDy=0;fillColor=#f5f5f5;strokeColor=#666666;" parent="FXJ-xP3UKgWeBVty9vVz-1" source="FXJ-xP3UKgWeBVty9vVz-4" target="FXJ-xP3UKgWeBVty9vVz-6" edge="1"><mxGeometry relative="1" as="geometry"/></mxCell><mxCell id="FXJ-xP3UKgWeBVty9vVz-4" value="A" style="shape=cylinder;whiteSpace=wrap;html=1;boundedLbl=1;backgroundOutline=1;rounded=1;fontSize=16;fillColor=#f5f5f5;strokeColor=#666666;fontColor=#333333;align=center;verticalAlign=top;spacingTop=-3;" parent="FXJ-xP3UKgWeBVty9vVz-1" vertex="1"><mxGeometry x="20" y="165.21" width="30" height="40" as="geometry"/></mxCell><mxCell id="FXJ-xP3UKgWeBVty9vVz-5" style="edgeStyle=orthogonalEdgeStyle;rounded=0;orthogonalLoop=1;jettySize=auto;html=1;fontSize=16;fillColor=#f5f5f5;strokeColor=#666666;" parent="FXJ-xP3UKgWeBVty9vVz-1" source="FXJ-xP3UKgWeBVty9vVz-6" target="FXJ-xP3UKgWeBVty9vVz-12" edge="1"><mxGeometry relative="1" as="geometry"/></mxCell><mxCell id="FXJ-xP3UKgWeBVty9vVz-6" value="VE" style="rounded=0;whiteSpace=wrap;html=1;fontSize=16;fillColor=#f5f5f5;strokeColor=#666666;fontColor=#333333;" parent="FXJ-xP3UKgWeBVty9vVz-1" vertex="1"><mxGeometry x="60" y="115.21" width="40" height="20" as="geometry"/></mxCell><mxCell id="FXJ-xP3UKgWeBVty9vVz-7" style="edgeStyle=orthogonalEdgeStyle;rounded=0;orthogonalLoop=1;jettySize=auto;html=1;fontSize=16;fillColor=#f5f5f5;strokeColor=#666666;" parent="FXJ-xP3UKgWeBVty9vVz-1" source="FXJ-xP3UKgWeBVty9vVz-8" target="FXJ-xP3UKgWeBVty9vVz-6" edge="1"><mxGeometry relative="1" as="geometry"/></mxCell><mxCell id="FXJ-xP3UKgWeBVty9vVz-8" value="VS" style="shape=cylinder;whiteSpace=wrap;html=1;boundedLbl=1;backgroundOutline=1;rounded=1;fontSize=16;fillColor=#f5f5f5;strokeColor=#666666;fontColor=#333333;" parent="FXJ-xP3UKgWeBVty9vVz-1" vertex="1"><mxGeometry x="10" y="105.21" width="30" height="40" as="geometry"/></mxCell><mxCell id="FXJ-xP3UKgWeBVty9vVz-9" style="rounded=0;orthogonalLoop=1;jettySize=auto;html=1;fontSize=16;fillColor=#f5f5f5;strokeColor=#666666;" parent="FXJ-xP3UKgWeBVty9vVz-1" source="FXJ-xP3UKgWeBVty9vVz-10" target="FXJ-xP3UKgWeBVty9vVz-14" edge="1"><mxGeometry relative="1" as="geometry"/></mxCell><mxCell id="FXJ-xP3UKgWeBVty9vVz-10" value="MR" style="shape=cylinder;whiteSpace=wrap;html=1;boundedLbl=1;backgroundOutline=1;rounded=1;fontSize=16;fillColor=#f5f5f5;strokeColor=#666666;fontColor=#333333;" parent="FXJ-xP3UKgWeBVty9vVz-1" vertex="1"><mxGeometry x="185" y="105.21" width="30" height="40" as="geometry"/></mxCell><mxCell id="FXJ-xP3UKgWeBVty9vVz-11" style="edgeStyle=orthogonalEdgeStyle;rounded=0;orthogonalLoop=1;jettySize=auto;html=1;fontSize=16;fillColor=#f5f5f5;strokeColor=#666666;" parent="FXJ-xP3UKgWeBVty9vVz-1" source="FXJ-xP3UKgWeBVty9vVz-12" target="FXJ-xP3UKgWeBVty9vVz-14" edge="1"><mxGeometry relative="1" as="geometry"/></mxCell><mxCell id="FXJ-xP3UKgWeBVty9vVz-12" value="A&lt;sub&gt;v&lt;br&gt;&lt;/sub&gt;" style="ellipse;whiteSpace=wrap;html=1;aspect=fixed;rounded=1;fontSize=16;fillColor=#f5f5f5;strokeColor=#666666;fontColor=#333333;" parent="FXJ-xP3UKgWeBVty9vVz-1" vertex="1"><mxGeometry x="120" y="105.21" width="40" height="40" as="geometry"/></mxCell><mxCell id="FXJ-xP3UKgWeBVty9vVz-13" style="edgeStyle=none;rounded=0;orthogonalLoop=1;jettySize=auto;html=1;fontSize=16;fillColor=#f5f5f5;strokeColor=#666666;" parent="FXJ-xP3UKgWeBVty9vVz-1" source="FXJ-xP3UKgWeBVty9vVz-14" target="FXJ-xP3UKgWeBVty9vVz-15" edge="1"><mxGeometry relative="1" as="geometry"/></mxCell><mxCell id="FXJ-xP3UKgWeBVty9vVz-14" value="ME" style="rounded=0;whiteSpace=wrap;html=1;fontSize=16;fillColor=#f5f5f5;strokeColor=#666666;fontColor=#333333;" parent="FXJ-xP3UKgWeBVty9vVz-1" vertex="1"><mxGeometry x="120" y="175.21" width="40" height="20" as="geometry"/></mxCell><mxCell id="FXJ-xP3UKgWeBVty9vVz-15" value="A&lt;sub&gt;m&lt;/sub&gt;" style="ellipse;whiteSpace=wrap;html=1;aspect=fixed;rounded=1;fontSize=16;fillColor=#f5f5f5;strokeColor=#666666;fontColor=#333333;" parent="FXJ-xP3UKgWeBVty9vVz-1" vertex="1"><mxGeometry x="190" y="165.21" width="40" height="40" as="geometry"/></mxCell><mxCell id="FXJ-xP3UKgWeBVty9vVz-16" style="edgeStyle=none;rounded=0;orthogonalLoop=1;jettySize=auto;html=1;fontSize=16;fillColor=#f5f5f5;strokeColor=#666666;" parent="FXJ-xP3UKgWeBVty9vVz-1" source="FXJ-xP3UKgWeBVty9vVz-18" target="FXJ-xP3UKgWeBVty9vVz-6" edge="1"><mxGeometry relative="1" as="geometry"><Array as="points"><mxPoint x="80" y="155.21"/></Array></mxGeometry></mxCell><mxCell id="FXJ-xP3UKgWeBVty9vVz-17" style="edgeStyle=none;rounded=0;orthogonalLoop=1;jettySize=auto;html=1;fontSize=16;fillColor=#f5f5f5;strokeColor=#666666;" parent="FXJ-xP3UKgWeBVty9vVz-1" source="FXJ-xP3UKgWeBVty9vVz-18" target="FXJ-xP3UKgWeBVty9vVz-14" edge="1"><mxGeometry relative="1" as="geometry"/></mxCell><mxCell id="FXJ-xP3UKgWeBVty9vVz-18" value="B" style="ellipse;whiteSpace=wrap;html=1;aspect=fixed;rounded=1;fontSize=16;fillColor=#f5f5f5;strokeColor=#666666;fontColor=#333333;" parent="FXJ-xP3UKgWeBVty9vVz-1" vertex="1"><mxGeometry x="60" y="165.21" width="40" height="40" as="geometry"/></mxCell><mxCell id="FXJ-xP3UKgWeBVty9vVz-19" value="" style="group;spacingLeft=0;" parent="FXJ-xP3UKgWeBVty9vVz-1" vertex="1" connectable="0"><mxGeometry x="240" y="110" width="200" height="90" as="geometry"/></mxCell><mxCell id="FXJ-xP3UKgWeBVty9vVz-20" value="Flux de données&lt;br&gt;État mental&lt;br&gt;Fonction&lt;br&gt;Base de connaissances" style="text;html=1;strokeColor=#000000;fillColor=none;align=left;verticalAlign=top;whiteSpace=wrap;rounded=0;fontSize=16;spacingLeft=30;spacing=0;" parent="FXJ-xP3UKgWeBVty9vVz-19" vertex="1"><mxGeometry width="200" height="90" as="geometry"/></mxCell><mxCell id="FXJ-xP3UKgWeBVty9vVz-21" value="" style="endArrow=classic;html=1;fontSize=16;" parent="FXJ-xP3UKgWeBVty9vVz-19" edge="1"><mxGeometry width="50" height="50" relative="1" as="geometry"><mxPoint x="6.666666666666667" y="16" as="sourcePoint"/><mxPoint x="28.88888888888889" y="16" as="targetPoint"/></mxGeometry></mxCell><mxCell id="FXJ-xP3UKgWeBVty9vVz-22" value="" style="ellipse;whiteSpace=wrap;html=1;aspect=fixed;rounded=1;fillColor=#f5f5f5;fontSize=16;align=left;strokeColor=#666666;fontColor=#333333;" parent="FXJ-xP3UKgWeBVty9vVz-19" vertex="1"><mxGeometry x="13.333333333333334" y="28.669999999999987" width="10" height="10" as="geometry"/></mxCell><mxCell id="FXJ-xP3UKgWeBVty9vVz-23" value="" style="rounded=0;whiteSpace=wrap;html=1;fontSize=16;align=left;fillColor=#f5f5f5;strokeColor=#666666;fontColor=#333333;" parent="FXJ-xP3UKgWeBVty9vVz-19" vertex="1"><mxGeometry x="7.777777777777778" y="47" width="22.22222222222222" height="10" as="geometry"/></mxCell><mxCell id="FXJ-xP3UKgWeBVty9vVz-24" value="" style="shape=cylinder;whiteSpace=wrap;html=1;boundedLbl=1;backgroundOutline=1;rounded=1;fontSize=16;fillColor=#f5f5f5;strokeColor=#666666;fontColor=#333333;" parent="FXJ-xP3UKgWeBVty9vVz-19" vertex="1"><mxGeometry x="13.333333333333334" y="63" width="11.11111111111111" height="20" as="geometry"/></mxCell><mxCell id="FXJ-xP3UKgWeBVty9vVz-25" value="Actions" style="endArrow=classic;html=1;fontColor=#A95AA1;strokeColor=#A95AA1;entryX=0.5;entryY=0;entryDx=0;entryDy=0;labelBackgroundColor=none;strokeWidth=3;" parent="FXJ-xP3UKgWeBVty9vVz-1" target="FXJ-xP3UKgWeBVty9vVz-12" edge="1"><mxGeometry x="0.1333" y="15" width="50" height="50" relative="1" as="geometry"><mxPoint x="80" y="80" as="sourcePoint"/><mxPoint x="140" y="20" as="targetPoint"/><mxPoint as="offset"/></mxGeometry></mxCell><mxCell id="FXJ-xP3UKgWeBVty9vVz-26" value="Perceptions" style="endArrow=classic;html=1;labelBackgroundColor=none;strokeColor=#F5793A;fontColor=#F5793A;strokeWidth=3;" parent="FXJ-xP3UKgWeBVty9vVz-1" target="FXJ-xP3UKgWeBVty9vVz-18" edge="1"><mxGeometry x="0.2637" y="-27" width="50" height="50" relative="1" as="geometry"><mxPoint x="30" y="230" as="sourcePoint"/><mxPoint x="130" y="262.21000000000004" as="targetPoint"/><mxPoint as="offset"/></mxGeometry></mxCell><mxCell id="FXJ-xP3UKgWeBVty9vVz-27" value="Récompense" style="endArrow=classic;html=1;labelBackgroundColor=none;exitX=0.5;exitY=1;exitDx=0;exitDy=0;strokeColor=#85C0F9;fontColor=#85C0F9;strokeWidth=3;" parent="FXJ-xP3UKgWeBVty9vVz-1" source="FXJ-xP3UKgWeBVty9vVz-15" edge="1"><mxGeometry x="-0.7084" y="-23" width="50" height="50" relative="1" as="geometry"><mxPoint x="190" y="320" as="sourcePoint"/><mxPoint x="270" y="230" as="targetPoint"/><mxPoint as="offset"/></mxGeometry></mxCell></root></mxGraphModel></diagram><diagram id="nzDRtLLymU1MKSi3VE1B" name="Original-Full"><mxGraphModel dx="673" dy="233" grid="1" gridSize="10" guides="1" tooltips="1" connect="1" arrows="1" fold="1" page="1" pageScale="1" pageWidth="800" pageHeight="400" math="0" shadow="0"><root><mxCell id="R8ruuHIf-GGGvvebYhL_-0"/><mxCell id="R8ruuHIf-GGGvvebYhL_-1" parent="R8ruuHIf-GGGvvebYhL_-0"/><mxCell id="R8ruuHIf-GGGvvebYhL_-3" value="" style="shape=image;verticalLabelPosition=bottom;labelBackgroundColor=#ffffff;verticalAlign=top;aspect=fixed;imageAspect=0;image=data:image/png,iVBORw0KGgoAAAANSUhEUgAAAggAAAFQCAYAAADayYZkAAAgAElEQVR4XuydBZxVxRfHj/TSICDdLYiEtDQSiqQiSDdLp3T+6UY6lEYQSemUkJASpLu7u/+f7+Bd37597+19tTnn89kPujt37syZuXN+c/KDd+/evRNNmgOaA5oDmgOaA5oDmgMWHPhAAwS9HzQHNAc0BzQHNAc0B6w5oAGC3hOaA5oDmgOaA5oDmgMBOKABgt4UmgOaA5oDmgOaA5oDGiDoPaA5oDmgOaA5oDmgORA4B7QGIXAe6RaaA5oDmgOaA5oD4Y4DGiCEuyXXE9Yc0BzQHNAc0BwInAMaIATOI91Cc0BzQHNAc0BzINxxQAOEcLfkesKaA5oDmgOaA5oDgXNAA4TAeaRbaA5oDmgOaA5oDoQ7DmiAEO6WXE9Yc0BzQHNAc0BzIHAOaIAQOI90C80BzQEXOHD8+HEZOHCgfPjhhy48rR/RHNAcCCoO3L17V8aOHStx4sTx90oNEIJqBfR7NAfCGQf+/PNP+eWXX6RDhw7hbOZ6upoDoYsD48aNk86dO0vChAk1QAhdS6dHqzkQOjkAQFi9erX0798/dE5Aj1pzIJxw4H//+580bdpUA4Rwst56mpoDwc4BDRCCfQn0ADQHTHFAAwRTbNKNNAc0BzzFAQ0QPMVJ3Y/mgHc5oAGCd/mre9cc0Byw4oAGCHpLaA6EDg5ogBA61kmPUnMgzHBAA4Qws5R6ImGcAxoghPEF1tPTHAhpHNAAIaStiB6P5oBtDmiAoHeG5oDmQJByILQBhD179sjjx4/t8ih69OiSJ08eOXnypGzdulV8fHzk+++/l0iRIgUpX7dt2yaHDx+WFClSSIUKFTzy7suXL8uGDRvk1atX8u233waIh/fIS0x2smnTJsmQIYOan6ag4YAGCEHDZ/0WzQHNgX85ENoAwo4dO1RY5vDhw6VPnz6SO3duNZP79+8rgczf+OH/hwwZIidOnJB169ZJtGjRgnTN9+7dKxMnTpSIESPKlClTPPLu69evy4oVK2TUqFGydu3aYBHO7969E8BBjx49ZPr06ZI1a1aPzE13EjgHNEAInEe6heaA5oAHORDaAAJTR/h+8cUXsnPnTsmUKZM/bkyaNEmqVq2qYsWXLFmihGlwAAQGtXDhQnXj9xRAoE8E9McffxxsAOHIkSMKePXq1UvSpUsnH3zwgQd3o+7KEQc0QND7Q3NAcyBIOeBtgHD06FGJHz++fPTRRx4TJrYAAmr3yJEjy19//SWxYsWSzJkzy9KlS2XkyJFhCiCwObi1B5cGAYCAWSF27NhBuk/1y0Q0QNC7QHNAcyBIOeBtgFC9enU5c+aM1KxZU+rXry/x4sVze37WAAFwADAoWLCgPHr0SF6+fKlqS1gChChRogh1J86dOyfJkiWTTz/9VMhtf+jQIXn69KkUKVJEmQNOnTolb9++ldevX8snn3wiL168UP4MESJEUP4MAA97xO2etpg1sM9j8rDWIDx48EC2b9+u+mUMadOmDZQft27dEnwvAD4FChSQHDly+AMIjBcghvCGvyVKlPDzubhy5Yr8888/CpwVL15cWO+HDx9KsWLFVH/QhQsX1PMxYsSQ/PnzC2acJ0+eqDYxY8b0Nz76Yn6APsZimG7evHkj+/fvl/Pnz0vy5MklX758imcQa7J79271b/r06dX7CxUqFOi8dQP/HNAAQe8IzQHNgSDlgCOAMG3aNLfHgh0ewQHhQFirVi1p2LChEowIcVdU1AZAwNeAfu7du6cEZqtWrfyN1xIgoF3YvHmzdOzYUcqUKaPU5AizGTNmyOzZs2Xjxo1KuC5btkwGDBigBCOOhggzBDICr0mTJvLVV1/Z5AmgZNiwYRI3blypXbu2HDhwQObMmaPmZ5gYrl27Jj179pTevXuruVerVk1atmwp5cqVs8kHAAfjWrVqlXTq1EmBCgAHWhFDgwCQYZ1wwmzUqJECCf369VPzS506tRoH/gI4OHbr1k1KliwpBw8elAYNGqh/EfSYahgXQp7ff/nllwpIdO/eXf744w81J94zYcIE5SDKWOAlppvBgwcrQMX70CzUq1dPjefSpUvKDMH88RVp0aKFJEqUSBYvXizjx49XfgyanOOABgjO8Uu31hzQHHCTA/YAAsKJW7+7xG0Z4QRxo8yZM6cSsl9//bW6QRu3TGfeYwAEBCGmi3379gk3c8CIJdkyMVBzAiGHQDMIAAAwQKBCaBp8fX3lxx9/VONDKCN80SDYI959+vRpBRKMOY0YMULdtg2AgPDkht6sWTPVzdWrVxXooFiW9U2dvyO4iVbYtWuX0npAaCgqVarkBxAWLFggFPFZv369322e6A3G89NPP6kxL1q0SBX5oQ1+AwABfDR4L74cECAJx09AV9KkSVWblClTyq+//qo0M4ABeICmgbE+f/5cAQkA140bN5SvB+PkfWgKMIPgg5EqVSqpW7eu0uagoWBfATyoIKrJOQ5ogOAcv3RrzQHNATc54G0TAw6Da9askcKFC6ubJGppd8naxPDs2TNZvny5YM4IDCAADDAtWAIEQAsOjQZAoI+5c+eqGzc/jRs3dghkEHrcnjnAAQEGIXTRQgAQEJoIeQRu0aJF/dpUqVJFZs6cGaAADw0Q6szV8raNOYQwTjQICHL4mz179gDFthDQABvacGuH9wAHtAEQZgAAUOXKldX/M9+pU6fKypUrlSCH0M7wO7QOaCHQTsyfP99v7FQApb9jx44p7cDo0aP9zYu+ARWsPeMGKBDyCZ8x52hyjgMaIDjHL91ac0BzwE0OeBsgcEvlFvnZZ595LBeBNUDgtosd3dqeb0uDYBYgoM4vW7asipJAte5I04HwwzyBSeGbb76xCRAwZyDI0SqgsTAIGz7CHBOIJaG2xxRD32gJDLIECJgHKlasqHwFEOCWhBDesmWLEsYABDQngBVDUwFYGTt2rAIYBkD4+eefVRiloSlJkyaNAjelSpWSNm3aKP8N6/cwb/6GJqd58+b+xsDzAIeLFy8qDQKaHsxNaB7QILiiPXJzu4fqxzVACNXLpwevORD6OOBtgOANjjgKc7R8ny2AgBodpz9Dg8DtH8dDbuSWGoR58+Ypc0D79u2VT4EhSO3NB6fErl27Khu+QZYaBN6DsCR3AOYVM4Qw5tbPjy2AgBYAMxBCGhBjEOAGB0v8BxInTuw2QChdurQynfz222/KjGBJzIs54wcCv63/hrkGcISfBaDn9u3biq9oRSz5bYYf4b2NBgjhfQfo+WsOBDEHQiNAwKMfR0P8G8gJYI+wvaP2xvZu3IoRYjjY8Xsc6PgbDnQABG68hmMgfgrY+olyQMXOLZ4oAHtOlb///ru6fWP752aMMEQFj+DEERLCJwCfBEvzBqYRog5s+SDQlts2bdAyMDYcFgEt+ASgmUFgM35MA4AB2qClAAQhUNBMYNbA8RINghG5wI0f3wVD44GZY9asWWoOOJNCmE1wOITXRHcAbABOmGQgNAI3b95U2gMiVNBU4OMAAU6IHCEccujQoTJ58mTlIwFf4Cv/nyRJkiDe7aH7dRoghO7106PXHAh1HAhNAAHhh2c8whxnOULmsmXLpgSwdSplfAr69u0rRA6gIsfGDuELgIDlRstNm1ss0QQ45BFRgJDEux/bOUIVEIIjH7d/br5oAAwbveViI/hwyiPcEpU/4YCGdz+pnvH2R/BihiDkD6HLHL777jtlGrEHPM6ePat8BcqXL6+EdJYsWdSzefPmVWPJmDGjCqdEW8HveC9j5VYPKELgwzOiCgA6mAwALph+AFf4WODDwVwBFYAVAEaXLl2UwMeRFKdCzC2ETDIPIjqYW4IECdRY8CfAD4Fxom2gH7Qy+B7we5xJ4QnmGuYOwOA5VyJYQt0H5sEBa4DgQWbqrjQHNAcC50BoAgiBz8ZcC4QbaYu50WLHR/Bxs+bHXaFF39yqEdL4C5BPAEe+qFGj+g0Onwk0CwhYMwQwIuKBfgAZRIVgVrDUOtAGMMR8vJlWmvcwP3hlaBqMORjjZF7GfAmPhPjX0DZY8sLM/HWb9xzQAEHvBM0BzYEg5UB4BAhBymD9Ms0BD3FAAwQPMVJ3ozmgOWCOAxogmOOTbqU5ENwc0AAhuFdAv19zIJxxQAOEcLbgerqhlgMaIITapdMD1xwInRzQACF0rpsedfjjgAYI4W/N9Yw1B4KVAxogBCv79cs1B0xzQAME06zSDTUHNAc8wQHHAOFvT7zCQR/kMIjk5Xfo7jUHwgYHNEAIG+uoZ6E5EGo4YB8gvBOR91UYvUekHHYeIFDemQRBhCeSk+Dzzz+XO3fuOMzxT34D0hLHiRMnwHTu37+v0gFDJP3hxx4R18/7CdUjf4F1imTv8Ur3HN45oAFCeN8Bev6aA0HMgdAIEMiCSBY+sgCSupdSxYAFMifaygFA4h6S9JBFsUiRIgE4TCpgihCRWZBERBQ5skUkJCLhD3UlKDwE4LDOBRDEy6dfF444oAFCOFpsPVXNgZDAgdAGEEizjCAni6BxeycZESWkKVVsCyBQkZBaAqQDpl6CPWrbtq2qPElGRGoZWBIJkEiVzA81EshsqElzICg5oAFCUHJbv0tzQHNAQhtAQFtAamCKLlnSqFGjVDVBa4BANkNSMb98+VJpCUj1a4/QTOzcuVP1QW0CSyLl8fPnz1XpZwACqZo1aQ4EJQc0QAhKbut3aQ5oDoQ6gEBJYgQ5BYioQ2AQhYMoo2xdk+HkyZOqNkDChAlVbQAKNdkr8EQtAeo7NG3aVNVgoD6DQVSQpL4ANQQ0QNAfTnBwQAOE4OC6fqfmQDjmQGjTIGBOKFq0qHJKROBjWqDKILd+W3UUKCuMoMfxkCqCVEDETGCLAAjNmjWT3LlzK78Go9IhbalOyPvwYdAAIRx/MME4dQ0QgpH5+tWaA+GRA6ENILBGOBUipPfv36+cE6ExY8ZIvXr1AiwhlQlbtWqlSg9T3XHs2LGqwiDFlKwJgEBbSjbDFyokQnfv3lWVFKliWKhQIQ0QwuOHEgLmrAFCCFgEPQTNgfDEgdAIEFgfKiJSvZAyxkQdINTRFmAGMOjEiRPK7wDNAUQUAj4E8+bNkypVqtgFCOfOnVOaCcwMVE2cNm2a1KpVS2kpNEAIT19HyJqrBgghaz30aDQHwjwHQhtAIIohb968/taFUsK+vr6qfPLAgQP9/tavXz9Jly6dRIwY0e93/J1QRTQO1iYJQ4OAE+T333+vfBpat24tGzdulGrVqqk+NEAI859EiJ2gBgghdmn0wDQHwiYHQhtA6Nixo/Tp00dixozpb0EmTJggR48eVSGQED4KaAowGVjSggULlKnhn3/+kQgRIvj7mwEQ+CV+CryHfkuVKuUXHaEBQtj8DkLDrDRACA2rpMeoORCGOBDaAAICP0OGDNKiRQs/zcC7d++kV69eynkRYQ5x60ejgBbAksiaSBTDb7/9Jvnz5/f7E32QK6FTp05Ks/DgwQNJnjy5dOjQQXr37u2nbShYsKDOgxCG9n9omooGCKFptfRYNQfCAAdCI0D48MMPVSbFnDlzSty4cZWzIo6LXbp0EaIc8DsgHJKQRZwZARQQ4ADHw5EjR0rixIlV3gQiFa5evSpz584VtAt16tRRv48dO7YCHbyjcuXKgj/DunXrFIjARFGhQgX58ssvdSbFMPANhJYpaIAQWlZKj1NzIIxwILQBhEOHDqkshyQt+v333+X69euqFoOlpgBtgEHWfgaWf6ON8XdHzxh92Xs2jGwFPY0QzgENEEL4AunhaQ6ENQ44rubo7WJNpDN2vlhTWFsDPR/NATMc0ADBDJd0G80BzQGPccAxQHjlsffY7iiyl/vX3WsOhB0OaIAQdtZSz0RzIFRwwDFACBVT0IPUHAgXHNAAIVwss56k5kDI4YAGCCFnLfRINAcccUADBL0/NAc0B4KUAxogBCm79cs0B1zmgAYILrNOP6g5oDngCgccAoR791zp0vwzceMSRmC+vW6pORCOOaABQjhefD11zYHg4IBdgECo4H4vRzGQxCiSjmIIjnXX7wx9HNAAIfStmR6x5kCo5kBoAwjkQaBWgjXFihVLMmXK5K/uAm3IiHj8+PEA7WPEiKHqNPj4+Pj97dGjR3LmzBmH60liptSpUwttSe0MUUqa39mjAwcOyMuXLyVy5MiSNWtWv7TNoXrj6MEHOQc0QAhylusXag6Ebw6ENoCwZs0aWb58uUyfPl3atm2rCje9fftWAA78nrTIFStW9AMKJFL69ddf1e9z5colzZo1Uwt+8+ZN1Z5Kj/Xr15eoUaOqjIozZ85UBZ9IvNSoUSPVz6tXr+TkyZPyyy+/qMyKCxcuVFkZ+ZesjAkTJpSdO3cGKP7Ee6ggWbp0adVfgwYNVPZF6zoS4XsH6tmb5YAGCGY5pdtpDmgOeIQDoQ0gMGlSK3/xxReya9culU7ZoHv37knnzp0lbdq00rVrV3/8ochS+fLlpXv37n6/v3XrlhQuXFilWwZAcMOHPvvsM1Xumd9Z0t27d2Xw4MEqfTOpmCFACuBg+PDhKqOjJZF5EVBhlIsGiGjSHHCVAxoguMo5/ZzmgOaASxwIrQChTJkyCiBgJrAkNAlFihSRxYsXS4kSJfz+hPAuW7asP4DAH1u2bCk7duwQNBOYCiC0EgAEajFY04YNG1Sq50SJEqk/9e/fXwAmBw8elE2bNvlrfunSJXn8+LGqKFmrVi2pV6+eS2ukH9IcgAMaIOh9EGY5wG0KFe7RY0eFg/P27dvy+s1refP2jVLNRowQUaJHiy6JkyRWN8CPs36sC+EEwW4IawABcwMCnoqN3NwNrYA9gIDgxu+Aug4UgbIFENi3165dk9y5c8vly5cFf4c4ceKothzaVJDkB8CSLVs2v1WjpDRAombNmhogBMFeDuuv0ADBxgpj/zM+8rC+AcLi/N68eSMrVqyQkaNHytsIbyXfl/kka96skjx9cokcJbKf3ZaD/dG9R3LmnzNycMtB2bFyh1Ijd+vSTVKmTBmiWMOejBQpkk2bc4gaqInBhDWAwJRR5eNAuHLlSlXyGbIFEK5cuSJ58uSRAQMGqGeMwk2WGgSALSYFAEDx4sUDcJRDu1u3bgqUADYwORi0evVqtYfRdmgNgonNqJs45ECYBwhUYOP2eOnyJbl29Zrce3BP7j+6L/ef3pfHzx7L0xdP5dnzZ+9vlq/fyDt5p5yEEDIRIkRQt8zIkSKLTzQfiR41usT0iSnxYsaTuDHjSvz48SVp0qSSMkVK9a8GFcH3tXGo4tS1fuN6+fPQn5I4fWIpVqWYJEubzPSg3r19J3s375UtS7ZIAp8EUqpwKSlRvISf7dd0RyYaYos29uXtW7fl/uP7cu/RPXn47KE8efZE7Uu80N++eyuvX7+WCBEjyNs3b1XPAIUIH0SQaFGjKQ0I+zJO9DgSN1ZciRcrniRMlFBSJE+hQE68ePFMjCZom4RFgICQxhSwfv16VRbaAAj4K9SuXVvYn0+fPlUOhDgdlitXzh/TEfYACwQ7To6LFi2SKVOm2AUIAIhly5bJ5MmTFRjmzLpx44acOnVK+TgALjRACNp9HRbfFmYBwrFjx2Tm7JmydetWSftJWkmXK52kzZZWYsePLVF9okqUaFEkUuRI6odbJWDggwgf+LuhccPkw+Zgfv3qtbx++Vp5F7989lJePHshd27ckTN/n5Ez+8/I7Yu31Udfs0ZNSZ48eVjcKyF6ThMmTJCNuzdKhWYVJO3HaSVG7Bguj5c1v3X1luxctVP2rdgngwcOluzZsrvcn/Ege2fp0qUye85sefHuhWTInUHS50wvSdIkEZ8YPmpfshcjRXm/Lw2NAeDAktiPjFHtyX9/Xr54vyefPX4ml09dltMHTsupfackQfwEUrd2XSlXtlyI0T6ERYCArR/1Pjd4IgwMgJA/f35124fQFhDqaOsiYa1B4Nzi/EGDwL/sHaIeIA5tAMLDhw+V7wNai2TJkqloiBo1akiUKFE0QHD7a9UdGHutadOmfnva4MoH76wLkYcCfnHj4vBZuGyhXHtwTYpXKy75SuVTB6636eHdh/Lnmj9l99rdkj1tdqn2dTV1U9DkXQ6gNRg8crDEShNLvm35rUSLEc2jL7x46qL81P8nqVSskvI8jx3rvSe5M8TNbtmKZfLbmt8kS74sUqxyMUmRPoUzXbjUlk/49OHTsvm3zXLt1DX5pvw3yhEuXtzg1SqENYCAtpFbO3kJENIIaAMgIOD79esX6PpZOyniaIjPDH2eOHFCaR+M88QACLy3devWCixisti9e7dyioS0BiFQlusGJjgQZjQIfCzDhg+Ty68uS+nvSkuydMmC5cb06sUruXDygqyatkrqV64vxYoVM7EMuokrHOBAHD5puFRqVUky5czktfV++uipbFm8RW4cuCGjho1yypR04cIFqd+ovlRuX1lyFMwhMeK4rtlwhUfGM/dv35f9m/fLjgU7ZO7MueomG1wU1gDC33//LUWLFpUFCxYoE4FB+CC4ChAs12b79u2SOHFiv/BKAyDQBvMCDonkR8iXL58ye2qAEFw7O+y9N8wABLx+ew7tKb6jfUPEKl27cE06lu8ox48EzKjmzgDxbMZGGRrImxqUDRs3SK/BvaT3rN6SIMl7pzBvEre0db+sk71L9srEcRPlo0Tvw9MCIxwlfbL7SN6SeQNrGiR/n9ZvmhRKW0jZp4OLQiNA2LdvnxL+5B/IkCGDYp0yRd26pfIf4O9hncOAPAiEPRKWGBjZy4OAJmHIkCEqXJHwSswN5F3gd/gdPHnyREXgsJ4kWzLMELyX35EoSZPmgKscCDMAAeefqjWrSrcp3SR7Afftxa4ylOf4iH+f8bsMaTFEnj977k5XAZ7F9hg5Q2Rlow7JtGLGCtm1bpdXhshhPWbGGKnbu67ETRDXK++w1+m+zfvk0IpDMmbYmAApdm09071Hd9l3dp90ndhVYsaJGaRjtX7Z7Wu3pX+j/pIpcSaVFTC4KLQBhBkzZijnQxwH69atK5kzZ1bggFwEqP7xM6hcubKfZgmtEfydOnWqpEiRQqpWraocFXFktiba4oyIDw39VqtWTflDoRElvJHICFI3k4HxxYsXMmLECJVvoUqVKgqQoDEYNWqUshEDCHBSnDNnjnp/lixZpEKFCurdIdFZNbj2n36veQ6EGYBAprO5f8yVbSu3Sa7Pc0k132oSPWZ05fgVFIQHPGDgxqUbsuDHBcrrfOH4hX6e554aAwDhy55fSpSo7+2cIZWGtBwiC8ct9Pjwzp49K6XKl5KJmyZKgqTe1xzYmsDKmSvlzoE7MmL4COVI6Ii6dOki8XLHk+U/LZe6P9SVTJ9mEp+YPhIxUkSP88ZWhzgxPn38VPb/sV8WT14sDXs0lNWjV6tUwMFFoQ0gBBef9Hs1B4KbA2EKIKw+vlpKVisp+7bsk0M7D8nzJ88lavSokiF7BuXZnjxdco/evJ8/fS4XTlyQs0fPqlh6KHa82JKzSE7JkjuLFPQpqEInPUnhGSBwW+vco7MUa1RM0mRN40m2OtUXazq1z1QpmL6g1Ktbz6HvAwCh6oCqCjjuWL1DRUc8e/JM7cX02dJL6iypJV7CeB7znwCo3r5+W84dPSenDp+SGxdviE8sH0mRLoXkK51PEiZNKIO/GRwyAQKrcPasU2vhdONUqUQiBg04c3ps+gHNgRDGgTAHEMrWfO/Fa9DVc1dl6+9bZfvv2+Xo3qOSPG1yyZwrs6TPnl6SpEoiCZMlVD+x4sayeRskBv3uzbty68otuXnlpjpwj+8/rn7u3b4nuYvklsJfFZbCXxYOoO7OGymvBgge3PDLli+T3Vd2S9XmVT3Yq+td/djqRxnVf5TDqAADIFiGKhKmuGfjHtm+arvsXL1TAJoZP82otAspMqaQj5J9JIlSJJL4ieIrbcMH8oG/QZKrA8fJO9fuyI3LN+Tm1Zty/th5OXHghIpaiJswrhQuV1g+r/C55CiUI8AEQzRAcH059JOaA5oDHuZAmAcIlvzi5sftilsch+uj+4/k8YPH6ufF8xfC7cvvLH73/klyI0SPEV3Zj40fAEWiZInUQYy90B5pgOA5EwO22rrN60rPWT2D3O/A3vruWLVDru+8LgP7D7S7B2wBBCtpL08ePVF7EgD64M4DeXz/sdqbaBpevXz170b896l/92XkqJElRqwYfnsSLYQCu0kTqpwKjkgDBA+foro7zYEwyoFwBRDMrKFl+gcjDaqZ52y10QDBMwCBNen0QyfJWC6j5C6e29Xl8PhzOJK1KtVKfh7/s2TNmtVm/4ECBBOj8rcnQbD+FQomevDfRAMEp1mmH9AcCJcc0ADBi8uuAYJnAAIhrL2G9ZLmo5p7fLXIPuiOI+uxfcfk4IKDMmTQ+7Aza/IEQPD0pEMyQMB84k2yNtd48126b82B0M4BDRC8uIIaIHgGIGzesln+vPKnlP3ev3+Ju0t39shZmdBjggxfMtytrqZ2nCr9OvfzK8dr2ZkGCAFZazeKQUSOyBG31iKwhzNJJokkITtEOLA56L9rDgQVB8IlQMC+S8ZDVLX4HZC3P1r0/1L0YvslNAwTAz4GcT6Mo/6bkLFLpy6pvOiEGVIICAdG/BFsmSNCAkDAvo0THONDVe0T3Ueix4rut79ePn+p7N34WsALHOMe3nsYaHgm/heOTDCeDHNs90M7KVC7gKTLls5j3wW2/VblWsm189dk2ZllbvW7bOoy+TrX15Indx6tQTDBSXsAAe3BftlvogfXm+SQHE4DBFIe881DlGc2Uilbj4LCcPfv31ffGZkqY8eOreol8HtHFDfue18mki5BPj4+wu/s0c2bN1WeBL4/xqOLxLm+H/STjjkQLgECMeGr5qxSUQ15iuWRb1p84y83PmGL0/pPU6WAy9cuL19U/0J99AvGLZC0WdNK4hSJ5dGDR3Js7zHZvGSzjH4VDvgAACAASURBVFs7zmb4ZEgACKjA1y9YL7s37FaRG9+1/k6FYBpExsfpA6bLxZMXpXjl4lKteTVVzdAIFS1QtoCkzpRagSmcOUkj/feOv2XMyjEKGNkjTwEEokiKlC0iw5YP8wfi3P2w1/6yVlbNWiVnjp6R38//7lZ3B7YekOdHnkvL5i01QDDBydAGECjAtHnzZvVDRsMWLVrYnOXs2bNVIiOKtpHIiOyIf/zxh6xbt04VcSpYsKDkzp1bCXZCds+cOSMbN26UwYMHS4ECBVSCI5IxkVaZ/7ZlsqJcNAWZSIxEXQ0SNDkCEyaWQzfRHLDLgXAJEOAGRXhqflpTfhj/g1SoVyEAgyi8hDd4zs/fF1w6uP2g/P3n31K3c12/tkf2HJE2X7aRNVfXhFiAwGCJ3KiXr56U+qaUtBnWJsDNn1DQnWt3StVm/4UP7t+6X9pVaCez9sySVJlS+c0ZLQOA4tPCn0qe4gFvzEZDTwEE6i2MnDVSOo/v7LHPGI3Jz4N+ljRZ0si4ruNk7bW1bvV9/dJ1mdVzliyYscApgID2ZlLvSbJtxTZJlDyRjF09NoBQANh1qNhBSlQtId+3/15SZUyl+E/aZ1JMFyxbUL0TrRd79bOSnwWaRCuk+iCEVA0C/KU6LBkLd+3aJTt27JBYsWL5W2suEN27d5eJEyeqsuNGRUcaoVX45JNP5LffflOgwZLIiojmgIp5kK+vryq6NH/+fMmYMWOA/bRkyRKVoZEaD506dXJr3+qHNQcC40C4BQgwpnO1zir3wcBfAoap/Tr+V6U9MMoGD2w2UHIXzS1lavxXjAWTQ8fKHZUN21bq45CgQTA2wMh2IxXIGbNqjErMY0kInIoNKvqraXBg2wFp91U7mb1vdoDKg5dOXxIABM/YI08BhKnTpsrlCJfl6wZfB7aXTf8drQ8Jre7euCuDfQfLxjsbTT9rqyHmqhalWshff/wVIOw1MB8EyjRv+HWDjO44WmmiMub4TyjgQEnCr771+6q/pc6cWr0e9fKAJgOURqhm25rqd5iFulbvKrmK5FLZEh2RBgjO+yAcP35cCXIKI82dO1eVWbakPXv2qLTI7dq1U+mOEyT4L8snACFHjhyq1Ld1fZI7d+4o7YJRG4M6C6RqJ6zXOtslKZd5B4c2AKFjx45u7Vv9sOZAYBwI1wABE0OrMq1k1eVV/jzZ7926J2vmr5EarWv48W94m+Hq8G89tLU/MLB4ymKp2LCiTXWgqwCB6nCXLl0SqsFxU7HMteBqJkVi7L/J+o2MWzPOX60KzAbcYjuO9n/YWAMEDq0T+09IljxZlH/C/LHz5ft233sEIHCgUpWuTp06Kre85XzbdWgnOb7NIdnzeaa+Br4lgKUOozvIXxv/ku41u8u2x9sC+04C/Xunip1k1vhZkjx5cn9tAwMI+EJg8iLLIiabWh3+K6J0+cxlBVDrfFZHAQRDkwNAGNRskPLJqNHmvz06ptMY2btlr0zaNEnlSLBHGiC4BhDg548//qjs/pYlnPk2uNV//PHHqvaBGYCAluGjjz5SfgoAgW+//VYtF/uldOnSqjDU6dOnVblngwANKrS2VSsNEAL9InUDT3AgXAOEJw+fSPOSzaV4leJSv2t9P37OHDpTvqrzlXyY+EO/3538+6R0qNRBZabLWTinZP0sq2TIkUEiRoioHPxskasAYdWqVapoS/bs2dVB8fXXX6sbCM5IrgIExoeqmvoFFA4yaP3C9ZItbzZJkjqJvylYA4THDx/LylkrpXrL6qodh6KjJFHOaBAOHjyoblaZMmWSL774QipVqiRUwqMyXd36daVqz6rKIdRdQuPz4w8/Srla5VQ2zX1/7JNmxZvJtifbJJrPf06qrrxnYKOB0rt1b6VKtiSzACFpmqSCgB+6aKiq4wGdPHhSkqdPLtWzVQ8UIGBiYH9mz59dmvZt6nBtNEBwHSDgdNi8eXNBY2D4CFAfBJ8CNAVmAALmiEmTJqkiTokSJfL3LbFfKMLE9465oW3btn7bacOGDaowVPXq1TVAcOUj1c84zYFwDRD4UBEYFFXaeHuj0iJgn146banU7ljbPzPfiWz7fZu6cVKUCVt8ppyZZPjS4cpp0R5AiBHd/k3O3mrhmPfs2TO/P+PURKU3SrceOXJEmkxqEqid2VbfgAHU1Wuvr1U3TG6va+aukQr1A/pgGAAhe8HsSmNyZPcRZeMesmiIqU0GQFgza42ptoANytZaEjbchg0bytZtW6Xvkr4BzCKmOrZqhMYA35MqTaq8F8CHTkqtXLVk6amlkiydewBkTIcx0qRyEylcuLBLAAHedqraSXpO7elXhOqvTX/JZyU+kwqpK9gECBQjK129tDKVUDmTPr747otAWaMBgusAgVs/zoEIcsAAtHfvXlU58cCBAw4BAj4FRDfQjv3NRQCAYA0ocVqcOXOmLFy4UGkXokePrkAEPgzffPONfPnllxogBLrLdQNPcCBcAwQYiCBsXLSxDF88XIpVKqZsvghPeyF12IwRlkf+OiLbV26X+7fvy+TNk1UopDWhQZg4YaLT60Tp6smTJyt1IjXgqe2OzTNv3rwybdo0qdi3oksAAd8B39K+ynRSs11NuXPjjhzfd1wKlS8UYIzWGoSHdx/Kytkr/VTapK1Gc2JPiwBAKPVJKVNzx5zCRoQ4gEuWLKnmi9d3n759pPGYxiqNsDvEDbtTlU5qnQxtAXb7P5b9IePWjZO8JfO6070Mbzlc2tdtH8AJzawGIW+pvDJ35FxV9Kv3z73l+IHjEvfDuJI4ZWK7AIG/VWpUSdCEbVq8SQG5AMDWxqw0QHAdIKDl6tWrl4po2LRpkwp53LZtm9J4EZ1hRoPABQBnRjQBAAS+cwiNBPsFgEBp53z58ilQwBmwZs0atbcwb2iA4Nanqh92ggPhHiCAzKtkqKK8v7tM7KJC/PKUyCNx4vsX+OdPnH8f7mdBt6/eVuCiWb9m/pwXjSbumBjwamZxULfHjBnTT53pjokBjckP1X5QBX4mbZwkezfvVSpsvPmtyZYPAlEbqLChtfPXqigGSzOMZR/Omhjy5MmjVKstW7ZUfhdGGeXGzRpLmTZlbI7R7D5n3v0a9JMiXxeRj/N+7PcYhbdwVP3G9xtp0L2B+j12/6jRoipAws2cGh0U9QqMetfuLcO7D1eaHksyCxCotHj++Hmp8WkNWX52uXICLfPde4dYexoESx+Ec8fOSetyrWXixomqUqQj0gDBdYDA+qLFIywRgJA+fXo5ceKEEubbt283BRBYG6IikiRJokIUCXVMmzatpEmTxg8g0IZwSgBBz549Zfny5cokAWmAENjXqP/uKQ6Ee4AAI1G9T+o5Sab8MUXlNSDczzoJEE5hnX7sFCBaoVftXsrUQAiaNbkKEO7evasAQZw4AbUS7gAExkcVwW7fdVMakz+W/yGtBrfys3lbjt9RFAPtBjYdqACVIw3CwnHmMiliu8VDOxWleK3ofwP/J7FyxFLVMp0h8jsAaNCOYDLCJITWxJJwRiVZUqw4sZRgxZGTMsmjOoyS+X/Pl02/bVJ94JjqiOjbt5SvbFy2MUD4mzMAASDTqmwryZwzs1RuUtnP78IMQLh6/qryp2GsJauWVHk77CWy0gDBPYDAXsBXBk0XYLZRo0ZKk+AMQLDcTyNHjpQ2bdr40yDw92XLlinATGgjmoaUKVNqgODMIaDbus0BDRBEVIbEalmqSebcmaVB1waq9K41oZ4mB0K2/Nn8/sQhzK2N26eRL8HyOVcBgqNVdRcgoM6snae2xI4fWxr1aGQ3l4EjgHD57GUZ22msDP1tqN2hOqNBcDRfQsM2n9gsdX6o49RmJ3Swf8P+Ev+j+CpnA46ZUaJF8dcH4YldqndRoOnrel9LzfY1VZXPX378RQbOH6hUv6vnrJav6n7l8N34rfSt1Vc2/745QLvAAAJRFatmr1IJqiAcEwEoI5aNEHwMMGlVzlBZRZ+kyfpe04N5p3+j/irssV6Xeup3mEsaF2ksRSsWFd//+SpwQ+4EW6QBgvMAgRs/hK8BhFkBZ0XMAfgkQK4ABC4DaM6IjoDIbTBs2DD13/wNR2UiHPr06eN3YdAaBKeOAt3YDQ5ogPAv84a2HConDp6Q6dun22QnSYNSZ0ktRSsUlaRpk6qIgsO7DiufhZaDAmbQo5OQCBAY168TfpXFkxerW7ItImIDh74J3SdI10ldVfZICKdGhCE5IogCaP4/+8WTPAUQLl++LHVb1ZXBvw126JlvPQ/s8oQzImDbjWingIItOrzzsDBfzA+USsZhlWREqPwR1jHjxpSkqZM6/MTOHD4jO+fulFGDRwVo5wggAFBmDJkhmAfgJ86TlBTftX6X5CuVT5k7AA+YHghxJAcHY1k0cZGcPnxa8aNg+YJS9OuiSrNF+emtK7aqqJyESRLa9aPRAME5gIBPEGG4aLq+++47FWGAU23dunWVjwDrQBtMDpgDpk+frkwO3PiJcMAkQdu+ffuqKAQIPwQiInieNM4TJkxQWRfRGAwfPlxpKHBO7Natm9JOABAeP34shEDThoyMTZo0UQCC1MyaNAe8wQENEP7l6j97/lEhi8T52yKc2dAS4AVPWmI+cELTsubJqm56tiikAoQbl27IhRMXBMc4W0Q6ZZwSEWDRYkTzyxGBpuXZ42cqD0KKDCmUQLVHngIIaGkq16ysKjkmSPxf8hkzHwNrhKnGmbLdJI36uv7XEituLDn05yHlmxLY8+yNDBEzSIWvAkaDBKZBMDMPZ9pQe+Pt67cSK57/TH+WfWiA4BxAIK8BSZLYi+TpIBqBPXHjxg3lRwDR5t69e/Ly5UsVnks+DP4GwKUaKVFJ0aJFU1EMqq7L69cKZAAOaMsPIIO6DTyP4Kc9WgT8pEi8RCgl+RMACoAScijgA0E7TZoD3uCABgje4Oq/fYZUgODFKft17SmAQIcTJk2QiBkjKudRbxNaITQKOPrh0BgzdsxAXzln0Bxp+W1L5W1uTUENEAIdrIiEVIDA2A/IATNTcLlNdsnudLEml1+mH9QcCOUc0ADBiwuoAYI5J8XAluCfI//IjDUzpEaH/7IGBvaMO3/Hxs9t0Vb6bOt+0bJMbjVZxo8er1TCGiAEznlH5Z4fyIPAO3CjRWyJLR9QeUyT5oDmQKAc0AAhUBa53kADBM8ABFSxTX2bSrPxzcQnZsiyt84eNluyf5hdGjawXf9AaxACfj+OAILrX5t+UnNAc8DTHNAAwdMctehPAwTPAARYunjJYlm8dbG0Hdk2UJ8ALy6pv64JpRzRdIQs/3V5gPBGo6EGCBogBNV+1O/RHPA0BzRA8DRHNUBQHPCkD4LB0qrVq0qljpVUHYyQQLOGzJIaRWv4eabbGpMGCBoghIS9qsegOeAKBzRAcIVrJp/RGgTPaRBgOSFjAyYMkOZDm9stkGVyadxupkJB5/0lg/oNUl7n9kgDBOcAwgPvuiBI7NgiH2gXBLf3v+4gfHBAAwQvrrMGCJ4FCKoK3uRJcvjmYWnYy7bN34vL6df1gzsPpG6euvLn1j8lRYoUDl+pAYJ5gPDuncgB7wYxCMU2IzkX5RgUW0q/Q3MgRHJAAwQvLosGCLYBArHiJH9xhShi0659O0lWMJl8UeMLp5InufI+62fIA/FT75+kUbVGUrBAwUC71ADBOYCwf3+gLHWrQY4czgOEa9euqXwFjihZsmQq58b169dVLgRHlDRpUlVr5MqVKyrvAcTv7CU8Iv8B/QKQqd1AfQZNmgNBwYEwAxAuXLggW05tkTylvB8rb2ZhSG7St3ZfWTR3kZnmptuQannWwlkhxlHP3sDv3bwnO7fvVECADHQklaGoDaVuoTlz5pies3VDQEKnLp0kU9lMkr/M+8x0QUEUbhrUaJDUrVxXqlV9nxo5MJozf458XOVjl6pvBta3K39/eP+h7J27V1q1aOXK4x55xl4UAxqEkAgQKLlMNcX169fL119/LZ9++qn6/tjXR48elXXr1smGDRuESo+O2pKuee3atao9KZvpk5+VK1eqUu5du3a1yV8quPbv31+qVKmiMjmSpVGT5kBQcCDMAATSlnbp1UWKNiwq6T5OF6w2asABVSFPbTglUyZOCYp1DPQd3D7gka0CUKNGjZJWrVr5VVAMtDMTDeABFeiGDh0qu3fvVtngDGrXrp3KN8+Ny1Uiw1zrtq0lfYn0KgVxlKiuaSTMvv/6xeuycMRCKZWnlNSqVcs0QFu2fJks37lcav9QW2VnDE66e/OujG0/Vnq16RWgLHVQjiu0AQR489dff0mZMmVkx44dfvUYDJ5RR4EkWeXLl1e/2rdvn5QuXdpm2/Hjx6uiZEb9BjIjjhs3ToGGXbt2KQ2BJfHdUF6a8tDHjx+XhAndK3selOus3xX6ORBmAAJLwcfWb0g/iZwwsiruEzte7KBdoXciZ46ckXkj5knGZBmlR+ceKh2qNwn1p5Hu1d57SPOKoOYAo6a8JaE6JXUst5isWT0fHXDz5k2Vm5489Nz8IdSx3KBKlCihStdmy5bNJVMB85o0dZLsPrZbfIf4SozYMbzC6n2b98lvY36Tnp16SuFCzlWVRN28ePFimbVklpSsUVLVfLBXAdMrgxdRJas3LNggu1fulpYNWkrZMmVNAxxvjCk0AoS9e/eq+gg7d+5UmgJLunTpkhLwDRu+94sBINCWeVq3JfUyWgSjLWfW7du3pXr16vLzzz9LqVKl/PVNUSieof4CGjhSLmvSHAgqDoQpgADTqMC3avUq4VacKnsqyV4suyqbS256CuH4xPCxWd7YWYYbdQkoXkTdAsoEH/3jqMgLkXat23n9hsY8OWiwTaKetEXYNzmAqBCHOpQbinVdAQrEULaWG0rjxo2dZYPp9ghJStpS5ApVKloFDl1y3H/00UdStmxZdeuiwA2lbSmja4bQjCxZukSmz50uFZpVkKz5skqMWO4DBW5ut67cks2LNsvNQzdl5PCRbtl+OeTr1Ksjr96+kvxf5pcs+bJIvETxVDEogE3UaPYjIczwgTbw4sWzF0KhKvbl7Wu35djOY3Jq9ykplL+Q+Db3DXBDNdu3J9uFBYDA/gAIALj571mzZkm9eu8ra1oDBP6+f/9+VWCJNZo9e7Yq3gTxfQLSZ8yYob5NgLxBfOMzZ85UYBqNgwYIntyFui8zHAhzAMHy4yIs7vTp03Lx8kU5d+WcXLx+Ue49vCfxEsSTJKmSSJyEcSTOh3EkboK4qiBRtOjRFHiIHCWyqgL4+uVrVbCIkrx4rvNz78Y9uXr+qlAUJ2G8hJIqSSpJkyyNpEqZShVOMZyVzDDfnTbYOps1a6ZqxhcuHPBWu2fPHqW6/P333xU4oKZ8xYoV/b2SgwsnOtT93GDmzp3rltrf0Xw4GDk458+fL2w6Csw8ePBA8B2h0A03s82bN6uCN2nSpJFPPvlEypUrJ59//rnNFMbW78Lha8myJbLpr02St2xeKV61uMsmk5uXb8rSqUvl3b13UqV8FSlatKjbFfMAZ8yH6n0xYsaQc+fOycUrF+Xs1bNy/fZ1efX6lQKyFMCKkyCOKseNBoy9GMUnigJW796+U0V+nj15Jm9evRH8Ce7fvi+Pbj+Sm1duytULV8Unqo8kTZhU7cmUyVJK2rRpJX269F7XZDmzl8MCQCC755QpUwRzGcS3ZGiGrAECToaTJ0+Wtm3fJ/mybGsABFWGvXZt9Y3gwAjxXfDd3LlzRwMEZzaYbusxDoRZgGCPQ3yIHM6gcaqsXbl6Rf37+Oljefzo8fsD+PkziRE9hrJr41mM3T5pkqSSNHFSFdYGogcIBFblz2OrZNERtw0EabVq1eTRo0dKg8AN3CAOFGyiHTt29PO8Tp06tdIeWLajPapNVKE4DmL75EAKThUmY8eRC/CDIGVu8LhYsWJSo0YNdVtDs8CPPd7jZzFsxDBZuXqllP6+tOQvl19pj7ihR44aWSJGiqgOct6FwIWfL5+/lBdPX6hKnZt+2SQXDl+Qbl26KYHujp+E5fojHCj7i6ObLWItcXgD1F69dlWuXb8mN2/dlOcvniuAyr9UGwUoxI4TW6JEjiIfJfpIeb8nSZxE2cDZl7bqQXhjH7rTZ2gGCHwvnAloBOA5mjFrMgACGjHWg/8HqNHWet8aAIFqjpUqVZKmTZsqR0QIDVvmzJlVlUetQXBnx+lnXeVAuAMIrjIqJDyHDX/AgAFKDcl/k6CH24m1TRvbPCYWIh5UueTKlWXevHkBysJym0fVaYRwNWrUSKZOnRoSpqqA2vnz5xVgANwgVDhMOWjxIs+fP78ULFhQaRtsEVqTvfv2yvFjx+XG/Rty7+k9efT8kbx8/VJev3ktET6IIJEiRpJokaNJvBjxJH6M+JI8SXLJ8UkO5RPhKWDA2AA6aEIWLVokOYizC+cUmgGC4YNAyWVMBc2bN1eryX5F+LNvrDUIaBtoi/A3Sj0bbQ2AgP/PwIED1R5hv/NtY/5j32CO0wAhnH80wTR9DRCCifGuvHbChAlKMwAAgLh14CBlTRxWRYoUUSACz+cOHTpIv379ArSjL4Qw5gdu6dxGR4wYoXwAQiLhU0FkBHZZDk8cALlhff/99yqyAA9v1LOBOQHiHNm6dWt1Y/M2AdCMGyF2akdZF709lpDSf1gACKzrwYMHJWfOnIqthO2yr/iGrAECbf/++28FDgEGmPKKFy+u2hoA4eOPP1YaPPrDtwjnRrRJefPmVeY3DRBCyu4NX+PQACEUrTcHzS+//KJslZgCYsaMqXwsLAlwMHjwYGUfxbMakwqC1DjIrKfL7ZawqxUrVihzQ2gh7LIcxNyuMJGgvidihHnmypVLaRmyZ88uMWIEdFgMSoDAbRAfEfiLyUKTKG3Q6tWrVWy/JYXUPAiM0VEUA38nymDs2LEKnDqKYqAtIcVjxoxRbS0BAn8DtLKH+b6bNGmiTEoaIOivJrg4oAFCcHHehfcCEIgA4MbPDZobaefOnf31hLc8qneABP8GRqEVIBjzgieAIkAQhy23M25zmBjixYunEttw0AIaDPtvUAEEwFmLFi3UTROhGJhmI7C1Cit/D2sA4cyZM9K9e3f1zUGOAAJagW7duvm1xRcKEx9mLYi9UrVqVeVgbABKDRDCys4PffPQACEUrRnJgTAdYGrgX2vCOxo7JyYIs5kKQztAsLV8mFY4aLdv364Oaw5hnBe5mXGbJzMdwAqzhDcJ8w1aGSJNcCAMCnr56q1s2HdZft95QV69eivv8LB/906ypY4nNUplkCQfRg+KYTh8R2gDCOwjHIMHDRqkTHUIc8AmJi80Wfj3YArAh4C2gHd8hey1xdmWvmiLZok+iCLCzAdY4Bv+6aeflPaANps2bZLhw4fLkCFDVJug2kvBvlH0AIKdAxogBPsSmB8AzokbN25USY2MUCjLpzEpIPTwlrYV+mjrTWERIFjOkwOXCAHCJwn5xDGTrHjx48dXKWu//fZblcIWc42nqX79+kq7gaYnqCJeZq87Kcu3n5eBTfLJtsPXZdLSI3LtzhN5/vKNfP5JEpnZrYTEih7Z01N1qr/QBhDI1YEzMGtJ6nAEN2SY7wDmmASIdiIyCKdER22ppUDUEG1xdkQLRrQDPjTsE/arkWCNNrybd+EAyXPeTr7m1GLqxmGaAxoghJLlRZDj6YwTIYLHmjhoCH3koMKJz6wXflgHCLaWF+0LvETTghMnjp7ksCBhVIECBdR/4wDqakEp3onmgvcQrkkSqKCg01ceSKOhf8iMLsXlwzjR5Ns+62X7oWt+r6bKcZ8Gn0n7bz8JiuHYfYc9gMADx497b2iUeU6fXsSNDN/eG5zuWXMgBHJAA4QQuCi2hkTYImpJYuVt5SrAWQ/bJQmS8I42S+ERIBg+CCSOwmxDumpizVetWiWktsVXgIyOqHMrVKigHB7NAi74jj8ESaywTaPVCarIhR8m7ZK4saJK9jTx5dDZOzJ52VG5++h9emuD4sSIImfm15SoUVyvg2F2b9lr5wggvHnjbu+On9fgwLv81b2HLQ5ogBAK1hP7OcKMxCs4OFkTKkryGaA2Hz16tFMzCs8AwVaYI3ZlTBD4DWBLBjyQ9ZE6FoSakXeBhFOO1LxoJagxgTMpGSGDisp0XCk1S6WXEQsOyblrD+2+dv+0apIheZygGlaA9zgCCME2KP1izQHNgQAc0AAhFGwKBBax/oRa2RJMZHVD2JGB0NlSsBog2N8A2IJJBY3nOZ7kW7ZsEVI6k5mSuHVMElT4s64b4evrq2zL+B4EFb19+05Ktf9d8mVNJNNWHpPnL+xfxY/P+U6SJXC/XoWrc9MAwVXO6ec0B4KWAxogBC2/nX4b2gHyHuDAhJnBmnBeIhEPAmnp0qVOq7M1QHBuSQALCxcuVD9oF4iYoFbDN998oxxDb9y4oTQ9+B4AIIKKjpy/J1V7rhX8DDArPH3+2uars6SKJ7snVRHs8cFFrgIEvgU0PJhwcD5V6bLfvVOOfTjt4jyItseWA29wzVW/V3MgNHNAA4QQvnqoqxFAeN9jO7cmQvgQSBSDcSURjwYIrm0ABBNhjKyPEVL5zz//KMEFaKC8NSGOODx6O//B2WsPpdXo7bLt0HVqOorIB0pwWhPRC7O7l5SSuZP5+5NRbRDvemqMoCkh8RQe85hWrGt4uMax/55yFiDgy0H0Dn4iOI7i8c+/8JUfxg9oADzgeEr5c1IUE04YVP4f7vJEP685EBI5oAFCSFwVizFRbZFYacwMtgrxELFA+CMHuiukAYIrXLP9DKYeQBrmB0AD4WnUjiDGnR8yViLYzDo8IuNfvXkrb968VbfkyBEjSMSI/139X71+K5sPXJH6g7bIo2cvJUqkiBI5UgR58/advHj1RjA7GMTve9TJLW2rZZcIEf7rg3A8wmIBO9QVYL8BFBg/DpakB2b/eTL9v7DhmQAAIABJREFUtlmAcPPmTZUYDBBG9kH8cCiU5IiYD6Y4cl0ALEg4RN4Ad0Aafdoio56C53aQ+z0BUAFMaFHM7jP336p7CKsc0AAhBK8sMdAIHEwM1A6wRaVKlVKx/GQLdIU0QHCFa7afadOmjYptJ5sjmRwPHTqkgB2RJdx+IW61efLkUUmbiI6wl3/h0dNX8tOq47L176vquYgRIki82FGlcPbEkjCuj5y7+lA2H7gqm/ZfkUTxokmNkhnkywIpJWvq+HL7wXNZsvWcjF50SG7eeyZRI0eUSR0+lypF00oEC9sC5bYp9Q2gIdMkQphkP4wPoUjhLvbdjBkzlA+Mp8gMQEADwnjwrUFz5qyA53nSkFPZ1OjD1fGTFhrwx3ri44OGgv7Jd0COBEx8AMGQQKRYxzkWPxgicMIyYe4DBAG8NXmHAxogeIevHumV0EUON8pTY1u1JoQOqYQ3bNigSs+6QhoguMK1gM+wRgh/iklZp7jGT8SoTkmGSwQuvgrUicAM0bhxYwHoGfTgyUup1H2NRIkUQSZ2KCK37j+XXzefkf0nb8vfp28LigG0A2RILJcvpUzuWETixoziLxkTWoQ2Y3fIzDUnJE+mhLJuxFdKu2BJhM0ieNu1aycNGzZUPhRk8TMIIUg9C0xc48eP9wyjxH4tBssX4CBKkTFMZ+4kmQIkEJFCX64S60deC8wtaCfIkQHBHzR4aCmIeCFRUnATphb2H7Uh6tWrF9zD8er7yV4J0GaPaPIOBzRA8A5fPdIrN1IOJw4ga+JwImsiBwJCx1VbqwYI7i8Va1CnTh11oyQfv60CUZZvASxQ3W/Hjh1K4KBCJ9MjxYu4jQ7/5W/Zc+ymEvwXbjyWYq2XKbOBJUWKGEEaV8givevmlhg+tjMjzl1/SpqN2Cq1v8go49oW9mdaQKuB1glAg9qeVL5oD6zV0gBUBB+C0FNkRoPAuzJkyKDMHiSaorqhMypzzBP4LVA+GeADCHKHKAhGxArrhgbBkki9TKn0tm3buvMKjz2LlgO+hXWAgBkMkx1JzzR5hwMaIHiHr273irDJmDGjCpWz5Q1PUSYQNPnZMUG4ShoguMq5/55D2HK7JIrEbIpr42nAAhEomCQAeQifcp1WKs1BTJ/I8vOq49Jv5r4AgyydJ7nM711KmQ/s0fbD11VfLSp/LIOa5PO7iQMuSaqFeQPBz/9ju7YFMitXrqy0CLbKhbvKObMAAQCMqnzSpEkq3BQtC7djSnwnTpzYH2CAf/gcYNJZs2aNAlxoQ8hDsX79eq8CBG6xRLHYylHiKo/ceS68AAR3eKSfNccBDRDM8SnIW+FkRUlYDjcOQ2vCzsgBeOzYMeVU5ippgOAq5/57jpsj6ZoJbXSF0EBQgAt1P3b3L39YLY2+yiz1B2/x52ho2Xfjr7LIiBYFHKrfD5+9KwV9l4hvpY9lcNP/AALgErs+Bau4+ToihB+aBVciZOz1axYgMDa+A4iQUoAYzriABQCBoVEAZKEFIYMoDon4UPAvpgnyVhCS6g0NAk6oaCgAMDh6Gt8pic0YK0WYMJUQyQJwxHGQ3/E3HAl5HgLEoCGBsKujVaItERm5c+dWgMgeAezI0UG/zBfzB+Yi5mtoEMgWunbtWnXbBgwCDAFb9sJBacPtnKgc+iT3CiCRJGG8j/GjoUG7yd/xpcHESRQJfCAbKWcT63L16lW5ePGiuuSwJsyZ9WDMP/zwg/LZoQ3rxB4zfDngD4WqOJ94hjBvorWYA39DO0TmU/gK2KUfwCF/43LFHDD50R/7nflA/A1AjqYOTR/aOyLB4DW/x+RHFlWIPtl/aI1GjhypqsXynfMOnjdSsTM+HHpZa4hIIEAa/RuaLMA3/MDZlwytge0DV84RbzyjAYI3uOpmn3yEbFRUrBw+thy0EEpsyOnTp7v1Ng0Q3GKfOvwIqeNg5DB3ljhsAAc9evRQ5gnU6RW7rVHOhFRltEdfFUglc3qWlIgWEQnWbf86fktKtF0utb7IIOPbfu5nYsB3BXU5hx4HnT1CQOCcSHEww+7u7PxstXcFIFj3gwBAQEFGuKOtd3kaIBBVQRlxQB0VHsle2rFjR5U8y/CVwLmT5FnwFiGDMKaGCkKSvxUqVEipxZkDESKkTkczgiAjWycmQ8wWrFODBg3UJYGQU1s8QIDhZ4GwpQ2p2In26NmzpwIIhNwCFjhP6Jt3Gj4ngD9bxDiYE3lX0GghePFBGTt2rOAXBUCgD6Kq4C+VK3F2BaRxngByEcz4fSDYAQxoQqlQyZoB9vC7oe4JKcmZP9o3/Di4FEEAGvw+mBcCGBCAlobnmAMClveyFr169VLjM85M/s73iPMic+zUqZPS7vAevjfmAW8ABZyj+OIwXqpm4s+wYMECNQbOYRxUa9asqb5NQDV94/zJ/PmX/lhbnFV79+6teALfAIv4hwHWWEP2APPAN4T38U3Z2wee+MY81YcGCJ7ipAf74SPnAOegwEHMmtiUoHY2Mx+ZO6QBguvc40ZQo0YNdWjMnj070BA8W28i5wA3ZQ500mUrf4ZBW1Wq5KPn79kdXJTIEWRyx6JSoWAqu2aGJdvOSZ0Bm6RQ9sTy++Bygt8ChDc+QAT1PcDEFiFYMF3lz59f2rdv7zqTbDzpCYBgdkCeBgiWPgisO4INoY9QMLQAEydOVIIQYcC3CsjiOyUiBG0MfyPyiPwS3Lr5f7QfCDEjYyfzo3+0IfDfVhQJt2GEFrdXw0ESoca7DCdFzC6YiVhzg37++Wcl9AGmtog04Qgvw2TCmNjfgwcPVucSZk2j3DxjpB3aHIQJhPYA4Ww8z60bQck4DWI+gKIWLVqoX+HjgaAHMEFoBwBg8AtNB8AMzRH5YAzCbwahy7fTp08f9f1RmRW+og1gTAA4itsB4tFAcIMH1KPxQLMCQEGwA+5xNAZcWfKKcXEGMxbjAsDaofXh20GTRd9ofQwTHenu0ULwLubHnjEIHvEM47K1D9A+hCTSACEkrca/Y+Ej4MMgtMooLWs5TA5YNh5qNjaaO6QBguvcYx0QtNxWLKMQzPaIkyLOjRxS3Ni4gfL/j2Jkkz03k8jDJy8ddoX/Qb1ymaRn3dxCESZLev3mrXQYv1OFSkaPGkl2TKgk6ZO997JHaCJYuOVwINtK382NiYONw9dW/g2zc7TVLqwABGNuCOOtW7eq7xVhBnDkv7kR40eElg9VOCYd8k1w+0TlDSjgFsqNm+cMbQ5A0SBu7GgebO0vBB37j3UyzgneDagzAAIlzsltYQhv+kWlj3DivdaEwOWmjeaSvWgQQAdBj1DnVm1ZY4RbPzd4VPAQAAGhys0b4jnmxA3dIAAC/QM4IAQx40RzYBDmU/Ynpg3ABWeVASBoYwAEgAWmGZy60XohZBH0nJHsXfjD39CMoAljLLwbAAGQwGcFsIDWByDCGhlkAATMEIZzKuuE2Qienjp1SmlmMFUYGiQjuyfaHS5x3bt39+sPEAKQYd1s7YPAHJzd+e5ceVYDBFe45uVn+HiITbfn9MTNjgOFm4u7aWU1QHB9MTlgOSA4YJwlDjQiBDhoESDcPlBTIjRmzJwtf91JKQs2nZbHz175dU2CI2oo5M6YUJ48fyXHLtyX2w+eSfzY0aRnndwqQ2Ls6JHl9dt3smb3ReXcyKEFWABAjGldSD7LnEiZJRg77+Xmy37i0KItBya3Sw5qblaBJSZydt60D2sAAR6iTkewcHMkFwHggH858BGYqLABgZgFAWSsNbdk1NNk3UQdjVMmKnOEsxlC0AMcHAEENFQIPbQAZggNBKYK8kegGrckgCV2fcaNBtMgTFUIQzSfBkAAgJIczAAICGRu4ZYAgZu9AXwQxJgTDC0D/OOShOaCmzhqefYNGhvACoDIEiDAV3wrOM8AMPAVTQfOwwbPWR8AEyYG5oDWBdMFWkAiegg9ZjwAE/jAOwyAgBnHSBZm5L1gfIA05so5YB2OO2/ePPWNcZGzJsbE3rDeB4wnJJEGCCFpNUSUXQz7I85PtmyEJLfB3om6zzJm3dVpaIDgGuewo6JmRXuAA5czhIqRQ4mbGmpeo9gThzkHFLegjBkzqSRI+CGcufpI5TlAuJfLl0JSJIqpXkcSpK1/X5Nxi/+Rg6dvS8qPYkraJLHlyYvXEjt6FOWceOzCPdl26JpQq+H5i9fSrXYuaVA+s3KeIhQOIFC8eHF108WWz5hwisOe6w1wEBYBAgALjQDChO+XpFMUTjOEKMIflT3qb+zwhr8AvMA+j00fgEE4M6AfdbWhEcAEgcqbiCVr4rbPDRyhaTgq835u+dyYsbMDItBS8B5DE4SWgdwp3GJtEXZ++kMoG0IPLQDPo17Hpm88i7DmXQAgwxGUc8kdgMAcAFoIcr4TiHcAqjHfAFRwArQ0McBXw/GQ9ghlviPmAl/R3hgEjwETvAfHYvwBIAAEmg/MMvg/8I7AAAKCHg0P620kbIInfMt8S1z2WF/jWwJ4AFI4x7kgGL4llvvAmbPE2201QPA2h53sH2AA8gXh4uBjTaBwDm9uDZ6I/9UAwckF+tc2jMMUXswkPTK8mc30xKFerVo1JaBRl1rG1HOQYdfEKY2DEPBgK0GW9XtIydx1ym6ZvPyIvH7zTvJmTiTrR30lj5++kmRVZ/trTiLFbT9WkhzpP1Q3MQ4vTB0cVNhoDQ9uM3NxtU1o0yAgpOETBzo3WyMpGfxDS8C6IXARkghftH8ILIQ6am1umggLgD9rTj+ABYQvN3sEFYKeZ/HkxzcEtTX9Y8/mJm/rLID/+BPwbt5Hf5g28DlAWOOAZ9y0EXr0hVp9165dar3tAVt8G7jJ0qfh2AcQZsxEkbDnSe9OX4BdAA9aD74D5sJtHPBsqPG5faPW5+xCU4Z/C9oSTBCAJ8aNKQVNBxoExgwvMR0AclD/w2PGjeYL9T5/R3jxPeGsiHkC4Q7f6I91AvBibgHUABAMfy1CewEwhvMl76QtQpr+mSuaAcA6v6NPQBtO44wdzQhmD3jAfOAT/mIk5OJ7RZOCCQeAyLjgEz4SjItvm3ObbxufBlv7wNXvyhvPaYDgDa662Ce2KzYjTjagXFuJYQAPqK1QgzmTOMbekDRAcH6xEHDYlFFlGjZUs71wCPIc6ZgRJAZxoODERogcalFulNyUzGYRxBSBz8HirWfl567F5c2bd3L0/F0ZOOdAgKE1qZBVhvsSIml21J5tF9oAAgIEGzNrg6DGDABxe0SYEbZmCay4dQLgARL8HUHBeqP5MwAfYADzIAIHwWXcMAEjvI8bLs8iiBxFkAAisO0banee43n6wQ6Pk6MRFsi7EPgINUxbjs4PbusARwAsexBtJv5ORggkmgn6Id8EYMBwuORig52dsbO/+T39ACRSpEihNCmAIoATvIA3aCYAYNyqmS9AFV4DfAADAA/a4RcD//nmENxobRgbwAv+IeS5ocNXnH3hK7+DPwAifsec+cFUAo8IF+dZxkkb5mMUwMMEAFjgd/ANYE/oJX+H0DAwH3iCxoDICjQvrAHjhQfwHlDA982+QVvIePkGeM7ePvDsF+d6bxoguM47jz/JRwOqBOkbqjXLl7D5+T1tEDSeIA0QnOMiHzSqeW5SHHxmBThv4caB2hS1viU44G8cVoBDHKu4vXBwceg4Q5duPpZS7VZIz3p5pOWobSoVs42ijspXYX6vUuITNZIz3XusbWgDCK5M3KimaW9/mPm7M3vLsj97fQf2TlvzNBzunP2bKzyzfoZ38+NMHQ5Hc/QkX+zxg9/bWjdvv9sT/LbVhwYI3uKsC/1im0Itx23FVvU8HMhAvggYT6mCNUBwbqFQ1aIGZq2w25slIlPQEAAQUFFaH3rcnrjtofZEZYqq1laKbUfvAwxkr7dQ8mVNJAs3n7HbtEzeFDKvZ0mJ4iALo9l5udLODEAAiKGax1HXHUdccglw4+P2p0lzQHPAOQ5ogOAcv7zaGq9x1GbYsmwRBx32NEsnJncHpAGCcxwEwCHcscOaJTycsY/i7c362boR4VCFsxtri2MTamvCH52l7/qul3PXHjnModCpxqfSq67zSZ2cHYu99mYAAs8SHoYaGu9/Zx0mUemi7gZkYB92tZiZp+as+9EcCI0c0AAhBK0atjUSiiBEbBEqagAEB54zajdHU9QAwfwG4HaPxz92SRxFzRDrRVuSIRHOZiuvBf1Yri02XaJUnK3rQD+b91+R+kO2yJ0Hz20OjwiI1cPKS6qPYpkZvlfamAUImF2wOxuOgdjwDVsx9mF4adid0bjgE4DzJ6Y6bOjYzPF+N3wGvDIZ3anmQBjmgAYIIWRxcWbBS5bD0J5TEuFL2Kk9WRRGAwRzGwAHJ0Km8A8w8toH9iSOVkYlQuLKcV6yR2gYABLcmgkzxLEJpy5n6dXrtzJp2VHpPm2Pst9aUuoksWRm1xKSK2MCZ7v1aHuzAMF4KZ7q7FPSFhOKRogpnu2AAr4bnOXILQB4AESQAMpwJvQUkPYoA3RnmgOhhAMaIISQhSLZDuV+8XC3ldkOT1qS6GDLJkzKU6QBgjlOEroEOMP8YybvAQLMqLJJSWVHHuPcfBFq5Ksn7AuAQEiXvdA2MyPef/K2TFp2RE5deSBRIkWUzzInlGYVP5bkCWOYedyrbZwFCLYGg8MuwAGAgBnCWROEuxMEfJHkxpavkLt96+c1B0IKBzRACCErQZIPQmCIJ7YlTAj5Ib6ZBB7OOMcFNj0NEALj0Pu/k/yFMDEzvgcILlTbpN8lCQuhWo6IkC1CGwn/QvCQYY71tlWgx9xo37dCf0ByJGowRI70vg5DSCB3AAJOoiSlwfkQMwMOjAAszAk4IpIXPyiI7xDfCMCfkegqKN6r36E5EJQc0AAhKLlt511GOVNStpJkxBaR1YzkOdhW3fHqtu47PAEEEsBg10YDA58pSsPhbs8vgLhmiHwEmAAIPcR50BYBHoySriRBIVQVc5EZMwHrjg8C8eNUksPuToY3T9dACAFbXQ3BFYCAuYZcAmjaAFD461hqDcg7QHpdeEZSHKNssKfnbJQhBhzgJ0LCHU2aA2GVAxoghICV5eZoVASzzHFuDI2QL5wX0SyQtcsd4oAjsxk/Fy9eUMJvzJj3eRdI4JE8eQpJly690lKYyeLnzliC+lmEL5EEJJnCXo1nO74B+H7YIoQ8+dTxiOeGym3RliobdTfpZ8kWRyIVwBwZ7swkUaJvHBgBLwsXLlTZ7zAnkQzLFSBoqL6JeDl77qzcun3Lz1YfM1ZMSRA/gaRLm06yZMnil543qNfBWYDAHuWgwmkTE4y9GztzxzTDN0KmS7OOpM7MHyBIpAnfilFB0ZnndVvNgdDEAQ0QQsBqUfGLGwmCwZZQ4PaEeYEQO8tKb2aHjjMXnt0//TRNli1bLClTfiQFCmSXHDnSy0cfxRcfn2jy4sVLuXfvoRw+fEb++uu4HD58WooUKSZ16zaQHDlyqJuZM4lbzI4tKNuR3Ij0qWhNIIQNWgF7jmzc7I1Sx9iaWSdb/h9odYhuoF/6onCNrfK8tuZK/gPGAUjAZwFNBRna0CiYJQAKmeoAMHMWzpFbd25JtvzZJHPuzJIsbTLxieUjESNElPt378uNizfk+J7jsvePvZIqeSqp830dqVSxklpfe5oUs+Mw284ZgACAAnwh8M2WNjfSWZOr3xPpyElYhU8JfCarn/GNAkgYHw6s+KeEtEp8ZtfD2+2o44BWjDMIrUtQ+4t4e35huX8NEIJ5dbnRc2vE4cmy1rnlsBA8qDKxZ5OK1CzxYf7660K5du2MJEgQRQoUyCY5cmSQOHHse9MbfT99+lyOHTsnu3YdkUuXHki0aAlVgp8sWbKafX2Ia8dhTg54Diu0MWhuSDxlj4gWQRsAkUKVOgmslTWxLoSmIpgMPxL+34wGgDXCbIHQJJ0rQIR8GCRVCoyYD+/etHWTvIr5SlJnSy2Z82SWxCkSS4SIjn0OEG5Xz1+VY3uOydnDZyXGqxhS4vMSCkB5W3PkDEDArEaCMGoLmOGnwTN8FIyy6YHxMbC/Aywp/kP2UjROaPkAywBvKgDyOw5SoowgAD3ftSs+JITF2tIiBjbGoPo7awFQciZ0FBCMVofvCX7ZcsIOqvHr9zjHAQ0QnOOXx1tjE6faGklx7JX65IZKfnIctMwSSWIGDeojffo0kGLFcrlVt+HNm7dy8uQF8fUdJuXKVZEOHTq61Z/ZOXijHcVsSFXNjd+yPr2td2HrxikRVTKFZgzBYN0W7Q/2b4PIz4693Kju5mge2M4pWoMQIoafWvaYGtAYOSLC/ap+U1U+LfWp1OteT3xivC/X7AoBFh4/eCwzBs6Q28dvy7w587x6iJsFCIQzAugIK3UGHMAD5oT2h+dZb3cJswImC0BlpkyZ/HVn1BZAywGxlghRVwQ9abzxYXF1Ld2dZ2DPk/QLTaet6pKOnmXNqXqoAUJgHA5Zf9cAIZjXA3TNLZZiJfZuHNxeSLKDV3xgBIiYOnWcxIjxQpo1qyIJE74vLOMJQqswd+5aOXz4mtSs2UDy5y/giW6DvA8EBgcxan17xA0Qmzeqe6q/2dM04EFPXQW0B5gfABUABLOEnwPCh+RXFPnhPY40G7xv5qyZsvf0Xvmi7heS6VP/wsrse221Q6ge2X1EVvy0QkrlKSX16tTzijbBLEDAIRGQAE9dIfhItUX8Qdwla4AArzA7oFliTbghE7kCzZ49W4WtAuqdIebK3uEbDqkAAfCKMy6FoJwhDRCc4VbIaasBQjCvBSpFHBABCPZi5cnNf+HCBXXYOaLt27dJ164d5ccf2ypTgrcOmYsXb0jLliOkUqUaUr9+Q6+9x1tLQygpdn4q1NkjIhg4BDn4cWK0x0vs3JTwpU/CGZ214xNJgVofFTrmAvwRcMpDwFgT6l3fFr6Svnh6KVW9lET1ieoVFr18/lJWzlwpp7aeklk/zVICwZNkFiCw38kqSV4IVwgTDOANc4Oz62L9PmuAYKRyRvsHARbw42AvAD4xRXHLRiNkFOYCdAIeSPiEUzJg0NhXgAIjNJYwTn7P87YuDfSDJoz03DibUpkRXxrGhBaScQCO0E7Z2uf8DTBKpUYSeeETAMAlORd7D20mjrz4XuB/hOkEjQj7k3Bf/s74ed7ICcKY0JqhBaM9ZZYtvxkNEFzZwcH/jAYIwbwGOKMdOnRIJcmx5yzHzZQPkhLA9mjdurWyaNEMGTCgoUe1Bvbex4HQo8cUSZ8+n9SpU89pFbBZtmMG4NDxJKHmRGAQmWCP8PtAIDvKYYBHOzd/HBKx25PLwhnCvIRPCU6NAAVKfLPGqHCtwSIZHAcMHSCZSmeSohWLOvMal9pyQ96wcIOc2XZG+nbrq5J0eYrMAgQKWwGYyI7oKuH0SWpsbvrukAEQKKCF0Mfhbvfu3ar4lkFoEhDKvXr1UtoDhCRCFIDDmuJXQrl2wF/Pnj1VCKxRbwOBTJQNjrEIe4Rrrly5bEZKAASI1ujTp4/iDdEyFBBDwLOH2I+AX95TpUoV5TuDeh8QQKZOhLoRcYNQZw70ScQOydo4i/ATAHgwZvrneeaGJhMAAF+JBMIJFC0b5px+/fqpfcK/8LtVq1Z+vNEAwZ3dF3zPaoAQfLxXb+Yg4ZbEgWGPOGA4DOwJoI0bN8j06WNk9OjWkiiRfaHn6ak+efJMBgyYIfHjZ5T27Tt6rD6E5TjxFWg4vKGnh+7x/rrX7C4XTlxwql8EDFoKkiIRNscaY2/nhmdJhCq2atNKvmz7pYpMCMr0wfs275ONP22UmVNneszcYBYgIIwBTs445lovAJEP+OM441RnaxENgICKHaGMcylZNTERWRMhw0SkkPzKIG7sfOckxcI3gX/RNKAFMGjRokUKMOCwbEb7x+WCPcSYAJSAdkAHOTQAJxCAAOdXNFQ4beJoefLkSRWNgVaA86dly5YqyRTmTviNlsDIAkq4LfsREAsRSQVos6yOiYYGR9t169Ypfw+0oZjvuPgYpAGCU0dDiGmsAUIwLgXhUXit46nNoWKLuGVyE+DwQBVtTaD6QYN6yMSJ7SVevNhBPhtump07T5SyZWtIyZIBx+fugAAIwzcPd7cbrz9fM2dNOXHghFPv4baIaYIiUITItWjRQh3048eP9+sHLUWvvr0kxecppEC54PH5WDd/nZzbdk5GDRvlkVA+swAB3wFu0ai5XSFuzKjp+UYcpbo207ctEwM+EghUCI0CIIR1tAUQaIPminwXCHKAAbU9AAOuAoRhw4YpoDJmzBg/QIF2AA2EofniNo+DZ5cuXZR2imRcRF0YBMigLeYNAALhmoTzGuGh+N+Q/p3IH3sAgd+j5WNuaCLIwYHZ1Agn5u8aIJjZZSGvjQYIwbgmIGxuOKjRsRXaImoAoM4DnVvbzEmg1LJlQ2nTpoJkyWI+/NHTU7527Y60aTNWhgz50a3bnq1xhVWAALBCI8SBCvgDCBBGygFtOE/SZuDggXInyh2p3rq6RIocydNLZ66/dyLLpy+XNJHTSL269cw946CVWYCAUy6C2chF4eyLEWxksyT23l2yFcWAQDWSJREOi5DF/m8JEPA34AaPuQoAyA0boI/JiFu6I4CAX4MjMxgAASGMH4yhcUA7gUnFyCQJQEDjRIgh78e3BjOHJeHnALgxAAImBkNrA0DAr4I9ag0QjPEBDJg7vhZEejAmokdwujRIAwR3d2DwPK8BQvDwXb0V+x92OlR+HCK2iI/T19dXIXDLtL3cQvr16yvJk7+TRo2c8yj2xpT37z8ugwcvlpkz53g0EUpYBQgcrtiNGzRooFS63HbJdYH2wAjL27d/nwybNEw6Tu5oSuXsjXU1+nzy6IkM8x0mU4ZOUXZ1d8gsQMC2jQ0dFbq978PeONDO8W0hGM2EmwY2H0dhjryLdcQfBUI4Av4AezgcEv7ITX3p0qXqO4ZQw6N9QPOAgyI3dgRBCvQAAAAgAElEQVQ7WgVu42g8+PYNJ0hb43MGIOCHQCguZw5zMcxUnCPwGSBiBiDUq1dPjZs5MR/8o/BhwHzB3AAqOF6zt3GsZm44UmqAENgOC5l/1wAhGNcFtR+ORXyw9myOqA+xxaImtczNj1p60qTBMn58R4kWLUowzuK/V48d+6ukS/e5n9rVE4MKqwABNSy3LbRHpHwmuU6ePHmUd7pRFrpj946St0ZeSZctnSdY6XYf/+z+R5YNW6byJLiTTMksQGDAqPHxy+CG7sw74SvfyA8//OD2vA2BjrMevgP4i1gS0RYIfMNOz60dQIOPAf4ARBbwrZPPBMAAIfxxFESYshfwBWDtAYlcGNBMMAcErT0iugkNBKYqzg80TtziyahpmBjwbcLEQPItIhSIWuA8QSsJwVs0CGgwAQr4TWDaMXI98N8AAfwtILQx+C/g08B78EfAcRFtKADH6BOQhN8FzpfMDW0Q/Lt69arb/iAeWVDdiSkOaIBgik2eb4SDEN7GeETzgdsjCs9wUAAiLKlv395Sp04eSZPGc97l7s7y0qUbMmLEMhk5cqLHHOnCKkBA0GCnRRhAqH5xLONA5UDH8av/hP7SaXwnj/HS3fXl+el9pkvVIlWlZImSLnfnDEDgJajQ0Z7hGBeYLwFCklsrWhluy7bCRZ0ZOP0BMhCkCFhCXhG+CGS0QCRFInoBUICmD8LOj72fmzbgDwc+TAqYHrh5o85nPghd1PE8awhkHFXpj9BD3mur7gQaC7QBqP/RBKBxItoAEIBvA3VUACSEKQJIEOhEHuBbwLP0S4QCJkrei/MkghvtBfsPvyjasDfR3rA3SdwF2EDTBTgAuKRMmVKZS9CCAAjQmPAsPCd3C4CI+eBHxfjwl8BHAnOFTrfszC4MvrYaIAQT71HnoT5EDWpkYLM1FOyUfJTcRAwC6fft21YGD24qUaOGDO0BY0Nd2avXFCla9Funk8TYW4awChDQDBGqZqTX5rbFjXPHjh3KL6Fi5YrScFhDSZM1+HxLbK3J1XNXZc/sPdK/V3+XvxxnAQLfCrdevgMEP4LJFuHHgTMdpZixt1tnPHR5wC48yFjwO0B1b6kdRNgiHA1tIBcFyxwNABLmCzAIDAy5MCy/Rwi7ZAyu5LhgboAYQhmdmZs749XPBg8HNEAIHr4rxM7NghS+aBFsEYICEMGNwDKcaujQIUJo+Lffej5qwF12nD59SRo3HiWbN//hblfq+bAKELgNs/6EmEGkdEZly+0Kc9LgSYOl8+TOHuGh0cm9W/cknpuZNV+9fCWj246WeePmuazZcBYgMH4EJ2p8BD+3VoCC4UjHDRWghfqbWzA8dcYc4VEm6840B8IQBzRACKbFpNwyNjn+ted/wA0ENSWx8oYnNwVi8uQhjnqSxI/vmbBGUihTvTFPnqwSIcIHcu7cVfn775NCnoPs2dPLJ584l5Wxdu3+0qPHEI/c4MIiQAD4oaomxpz5QahtuU0SgjZl6hSJmj2qZC+Q3SO78+LJi9KyTEup1rya1Olcx+0+VURDJNcjGlwBCMagubmiZQEs4LfBt8MPqmvs9/bAttuT1h1oDoRDDmiAEEyLjuaAjGvYou0RIVLY+ih3S3VACF+EH3/sLzNn9vLIyA8ePClNmvxPfHyiyvr1E2Tq1KWqMFOkSBFl9uxVqvLjkiXDJFu29Kbft3jxFhFJLVWqVDX9jL2GzgKE7Su3KxV95CiRJVeRXBItejSbXZ88eFKuXXwfhpU1T1Z59viZXL/0vgy0PUqbNa0kSGI72sSZPAjYrXEGw65tpBEmUx0/eN336NdDSviWkDgJ4rjNv3dv38mk3pPkpwE/SavBrTwCEC6fuSxD6w2VHdt2uDQ+dwCC5QsxaaFZ8KYq3qUJ6oc0B8IIBzRACKaFxPEKhyBukfYIMwRaBm6VqKOh6dOnSZIkT6V8efMFgRxN8d69h9K792Q5dOi05MyZSXLlyizff19OaRJWrNgmtWr1kBUrRkmRIrlMc+rixevy22/HpV07+6mhzXbmLEDYt2WfrJy1UvZv3S/N+zeXMjXKBHgVqvZBzQbJoV2HpP3I9pK3ZF55cOeB4KU/rPUwqdiwohQqV0jdTF88f6GAw7pf1kmxSsWkZtuaNofuDEBgPXEwI4MiHuQIOW6+eKVTmKhJ5yZSr289j9RauH/7vswaOkvmjZ4nTXo3kQbdG5hlvd12jLdWjlqybeM2SZgwodP92QMIOLJho/cWkVOEfCKujNlbY9L9ag6EZA5ogBBMq0PKUuKDSX1qj4gjJhQOT2Ijmxyeyu3bl1A3e0/Rp5/WlBMnLsjAgS2kdevqfjey1at3KPCwatVYSZAgrunX3b59XyZN2iI9erjuyGa8zFmAwHMrZqyQR/cfqcyGfWf2DTBubsCzhs2Sg9sPyqw9s/y0DAi+SukrSY+pPeSzEp/5e+7KuSuyZ8MeqdzYdhlmZwACHuE4h2E3B4QgFJMnT64cUVnv+p3rS5vhbeSDCK6Vb7Yc+KgOo6TAFwWkfcX2UveHutK0b1PT6+io4XDf4dK+fnu7VS4dPesIIFjWNvDIQC06IUEQ+Qo0QPA0Z3V/YZUDGiAE08pSyY0bk5Hz3NYwqL2OwCAbHJ7bhCX17dtTevasJFGieCarHv4HsWMXkRw5Msqff/4sUaNGlocPn8ihQ6dk3rw10qHD95IuXQqnuPTo0RMZMmSR/O9//xWycdQBoV7Eg8MT66I6LgGEmSukYJmC4lvKV37e9bNEjxnd3+u3r9ouR/YckY2LNgYACJUzVJbuU7r7AQQqG0aIGEHd8rcs2SKlq9su4WsWIBCBQsgZpaQJAaO4DREMFOMiVpwQx+mrp0udH9z3FUCLsu3/7J0HmBXFEoWPSs45KEEUBERUQCUjCoI+JUvOIjnnjGTJSTISRIJkBEQFFFAJAiJJUJCclJyTiO/7Gwcvy7170+yyF6a+tx/P3Zmenu6Z6dNVp04t/l7V21bXO+neUdVWVdW4b2O/5tLTwZ9//LleTPaiypYu63d7oQYQ0CoBrKM5QAofhYwwUgZJdcQAHvczdQ8ZZ9InSWl0zBkBu0bAAQh2jaQf7RAj50ODpGl4Qii4RBEZ+fXXX03aEx+kPn26qUuXMopuk+wuZMQcOaqqV6+GataskkaNmq0lS75XliwZ1LNnfT3+uP8u5KtXr6tHjynq1y/88tTWkAEOEGpBdx92PznVVIrDAgUIxSsVV5eqXfRCvhfMwmgZoQQ8C4QTvpr5lVeAsHPTTiVLlUwp0qTQiaMnlOKJFG5n2leAgL4BYSM+5MwpXASUCQELzDdiORuOb1CpusGpY8KpwEsCOLh185aKpS6mcvXLqfWw4MM+DMCPy39UrKOx9F4t/0MWoQYQkAyGK4QENl4fNAQw0v3w/vTt29eIJEWGZ4LnA8n1sMRmNhLoMKBs6JgzAnaNgAMQ7BpJP9phN4K4CVrx7Jo9GeluKJ/BRTDx8OvX1bdvF3XtWt6QCO2wWbOWq2bNblq2bLQOH/5DW7fu0caNvwjp5Oeee9rwD5Ik8Y8sd/36X2rWbIiuXnVPEAzbb3KylyxZcufXKAmi0EbKGqS9j9b+V1zGl3te/MlilahZQgs+XqCRHUbqi0Nf3AkjLJ22VMUqFdPU/lM9AgS4C8/nfV7Xrl7TZyM+U632tZT6yfDlhQEIubO7r6fh2mfm8ocffjAAAUY+xtyy+0S1jhz4E3FO6M2qb/pyqx6PWf/1el25dEWvl3tdN/+6qVcTvmr4GF3GdzEekWBt58adurjpoho1vC0O5I+FGkDg3sKTWiY1FQ+QBWr9GQt/j4WngghSWGImYUi8UnaW5fa3b87xD94IOADhPswp5DQ0zXEpW0VV3HWD3QI7AlTYsNsAgRDDu7YBhE6dRmny5EXas2eh4sWLba5z8+bfmjr1C7VoMViNGr2rfv3+q+vuy3Bdv35DrVt/pDRpbu+0vBk7NNfYM94EUjsBT3A0xm4c662Ju/5uAYRTx0+p1FOl9OHsD1WoRCHDS9i1aZdeKfqKYfV78iCUb1Rez7z4jM78eUYr5qwwREZfAELtirW99pO5BwSgtsfuE3BAWIF6AajjMdfnEp7TW9U9S+x6u8iBXw9odJfRqtmupmL/O6d1CtRR7qK51evTXooeM7q3Jrz+HQ/M5Z8vq1GDhxMgEHIiDRkvEDLDeAXDFlPzOoh+HkBaJ/wViJZO5oafg+ccHtAIOAAhoGEL7iRK/LIYsCuxqsG5axFFOFzuLCaY3SEGQgEVK3bU00+n0dChre7qwunT51W4cH09+WRq40Xwx26HGD5Rv37jfDqNEEP+/PnND+5aahJYFmiIAQ8CRraCHpHaj2yv/b/uV9KUSZUoWaJwAYIrB+Hn739WqnSplDp9al27cs206S510tcQA0V82G2OHj3aEBUBQLNmzTIhJ9QC8SqtPbxWpesF5iqmj91rdTdZHKQ4Wnb5wmW9WOBFDVo4yHAyTh47KciaWXJk0e6tu42X4YX8L2jfzn06vOew8hTLo7gJ4nqcv7VfrlX8E/EDqu74IHgQAOtwE5AXBiyQcolHCHlj3lfCRoQPLb7Cjz/+aDxH6F+w02eeWfDxlJHBYoUMaJfx4QdOAe8/8sVwDBCC4hlBLdKSWOY6lHdGFhk+k1WYCvDCBoQ6D4Q+0FMhY8YqpkSaNSqPXJ90W8Aqx3C+J10Wn15m56AHagQcgHAfphMXITtJxF6sqmruukGxGRYUtOUxdikffNBF3bqVUowYwe8CT5w4q2LFGmvhwsEGCLjabYBQT02aVFD9+v7pGUByHDhwvnr1GubT6EL+IpyCJnxYklWwAOH4weNqU6aNxq8arz3b9yhLziyKFTuWzwABrwOaCoCCVQtXmUXUnRqhrwCBqn2oJrI4UHsBY1eI3Ha9evXMB/2juR+pdmfv3ghrcA//flhpM94mks4fP1/xE8bXa2VvCzBZNqTlEK1ftl4Tf5hoPAjwMLau3Wru5bUyr2nmsJlK/kRyFXi7gI7uPaota7aoTpc6Hudv7ui5yps2r0qWKOnTHLseFMoAAWCPG58wId4ePqAYZEUyjJDLZo4BCaifQl6EswDhGPDLcdRpeOWVV0y9jRYtWpiaDCziKEIivU4JeNJdqf1AGWVqtRCC4nvQoEEDo7jJd4N6Dngw+I60adPGHGcVXaKWArU+uA61EgAXfEsAJwcOHDD1LfBQ0ieOoX9orfBdcq0a6/fkOic8UCPgAIT7MJ1VqlQx3gCrxrqnLrDrYFdgFfThOMhszZoV8psX4O4a69ZtV5cuiCN1Udq0Ke8iPn799TpNnrxYn33W1+8ROnnynCZM+E6dOt2bYuhvY8ECBHZ3Td9qqopNKpqPav5/9SPCCzG4ehBc+ztt8DRVa13N7S34AhD4UAOCKL71JFrZkmHGQ1rEo2ABhmotq6n54OY+SRmjc8C1O43tpD3b9ggBqN7Te+uxMByVFXNXqGvVrpr761wlT53c8BD6N+5vCJzpM6dXv0b9zL0BNJZMWaKL5y+qcvPKHqerb52+6tKkS0Bu9VAGCBMmTDA7fhZr3ks0LTDeacKFFmDgd3gYPv30U0NGxphjqjiSzmrVYqD6IvwB/kUTBfE0wAdhJ9rH20RFS8IXFD/iWYG0HDbEQOE3sqIACICKy5cv36kuybUp4gSfh4qLtE2/8EZ88cUXd0ppI13N7wERjjkjwAg4ACGSnwPkdHHl8cKTlx2eUcwHrgIfBMumTftUMWMeV/nygVfToy0WzlKlWilhwviaPXu5XnvtJZUuXdhwG3CXwkOoVKl4QHLOe/Yc1pdfHlSzZs2DHl1/AQL3NaXfFJWtV1YJk94mV84cPlMLJizQmBVjlDRVUvO7CT0maNnsZZr649Q7cXrOLflUSXUe19m42F2NbIZ5Y+ep68ddAwYILC7Tpk0zO0ArtESFO0rv4kGxKvc17NBQ1bpV86gC6doBPBytSrbStrXblPfNvPpg8gduPRyXLlwyaZ/P5X5ORcsXVeYcmdWmdBsNWTTEPAt4GNB/uPX3LdUrXE8tBrVQphcyKWasmPfc7983/1b1F6pr/Q/rAyrdG8oAYd26dUZCnN0+YQK8P4QWCB0MGDBA6JtYhjeIv5OdYgEEQD9AgEUaAxiQGUEJaepLACJp1zJSm61jfQEISE6zwFNKGqBgGX2E08NzRmgLIMCzSClnKz2TypP0zRJlC/rldRoI+RFwAEIkTyF58MQmeYFxF/oLENgJdO3aUgsW9Auq5+fOXdRXX61ViRKFTO2FRYtWm8qQefJk17PPPqWECeP6tIN114mpU5cqSZIX9c47t3kAwZi/AKFN2TZmsYyXMJ5xkb9d/W3t37lfy2YtuyMS1K1GN21evVksmtlzZ1eDXg1EvQIAwLZ125QhSwZlfSmricUS09+/a7/+OPSHXi/7urpNci9x7YsHgcUCEECIwQot4dol1ZF/Lfug9wcqVL+QEiX3TZwKfgGy0WmeShMuqLhy8Yoei/6YWfSRpIZH0G5kO8NHAEQ1699MVGtsXbq1ek3rpZRpUyp+ovj3TN/eHXs1ucNkfbnkv4XMnzl+EAAC9wtfgMWW+D2iZ4QfXHVNAAhkIVkcIjwI8I7Gjx9/F0CYMWOGqSXBZoDQE4u2OwsLEHhmACaY5UGgHwAEUjLxKLgCBEIdqLdSyAqAwHXhL1iFrQAIgFhqWjjmjAAj4ACESH4OLPnkIUOGeC2JTGwR1yUFnSzDA5Ez54tavnyoUv27G47kWwj3cngf3n23q4YMGXvHjR5M//wFCMFcK5hzvQEESGPUXWjXrt1dH24KD1Frg0XTskmTJ+lGuht6uYjnFNhg+sq5K+evVJJUSYxOxJkTZ4xwVMF3Chpp6Tmj5+ilwi8pY/aMiuZGb2P2R7OVJ20elSntXlXSW98eFIBg3SceGFz/cAcIAVokP+L5uPGtBT88gIBSKpk88Bao1WHt6uEd4WUiJAV3gOuQNQEw6dGjh+E9uAIEQgyAFFKFuZ7VF9oEMBCuoLy0AxC8PaXO3x2AcB+eAVA/LznxSRB7eEacE+KQtQO5s4BMon7DYb33XvA7dLuHAP2EAQM+14wZt5nWwdqDAhBw7eK6xX1scQ0YG3Zs33zzjWGmW0ZIqc0HbdRjVvAcDk/jTyjBzA9qzv/wv3/uLCYm++GR2/oMYe361esa13GcPh74sVloArFQBAiEBnhvUTW1ZM9d751FHJc+84kaKAs7u3p28pSnxtgU8BwgqsTYASzwAMyZM8eEHAkDIHgEYCxb9rZCJc8FWT0ZM2YUeiF4H8mCgggJKREyImaRXBFWI22YUAfXISsB0F65cmWTEcFxGH+D+wBBEjBCX5D7pkaI1d9A5tY558EaAceDEMnzaSnpseizCwjPSHPELW3pIFjH4kVo1eo9DRjQ0FRhjCoGb6Fdu5GqXLlpQBr9Ye+DcAppWHP2zYkqt+ixH948CBDTEH4ixmwR1GiMMs9kbrjyUfhYly1XVmU6lFG2V7JFqXtHY2HXgl3q0rFLwP0KJYDAXIwaNcqEBshAYGfObr5Xr173EAXhGgD8yQLA6we3hB09CzSLMZ4E2nvmmWdMlsKYMWMMEZHjyXZASfTKlSuG+AhhEMPrZCk38t94JSA6AijQCoGsSIYC7fBc4T0AJPDN4Hq0jeeBtukPBjGR8AIhEvoCsMF7wbeJDA3Cn3hDHHNGwAEIkfwM4BUAxfPSejM0+smzJt0prA0aNEBFiqQxFRijiu3de1QTJqxUv37+6Sa46z8fSnZLSNxuvLUxqtxiwACBdDLy0nHxuhoxakAQMrmuRry5w8AOajW8lUmzjCo2tOlQNanWRHly303i9Kd/oQQQ/Lkv61ieXeL6wXjQyEKAnOhuE8HCjnfHl7oL9IU2HGGlQGbSOccBCJH8DLDgsRiA1r0Zx7AbACCEfcEhG3Xq1FLTp3dVnDi+SRp7u14wf2dn1KvXFBUuXF6FCt3eqQRquFJxkVryy5v+2RRoU5F2njcPAi5eQguuzHI6R5gJ9nu5cvdqTXTv3V0Z38xoCJNRwdZ9vU7rpq/Tp1M+DWrx8wQQ2Am7hloi4p4RCEKAyDFnBJwR8D4CDkDwPka2HoF7D3cyu0lvRiyamCSehLBVDlmQiXeeObNDbdtW12M26Ot76094f1+8+HstW7ZHAwcOvsOKDqQ90sdwxbNQkOKFPQgAATcxbl3S2SyDsY67mtx0d6llsODb92yv1uNa31ORMpCxDeacsyfOakKnCRr54cigixJ5AgjB9M851xkBZwTsHwEHINg/puG2OGnSJBMDJCbtzXAzAxAgtlnpTGHPadmyqapXz6ucOe9fqGHfPhTfRmjWrEV3xde93V/Yv8P0h3MBaQ8AZFmoAwTIZy+++KJRvHMFehDWmF/iyqS5ubNp06dp6bqlajGsxT3iR/6Ob6DHQ2icPni6Xs/yugmHBGsOQAh2BJ3znRGInBFwAELkjPOdq+BGRSkNgpI3gxlNjBpQAdnJnSHD3KNHB3XsWFFZs94mNkWmIavcufPHqlEjeGIi6pLIv5LqBbuaWCtAIdQBAkI4zCGksbhx/6tvAEhEdpcF01MVPu6//6D+upHiht6u+XZkTq25FjUakFWOey6uOrTvEJR3yOp8RACES1f/0i/7zypu7GjKnDaRokcLPoMm0gfbuaAzAlFsBByAEMkTgmY6BCZXSVZPXaBACwCBEq+I6XgygETVqmX02Wd99PjjySLtjijKVKpUGzVs2Nbs/O0yNONRmMPtDit77v65djUdYe1UzVnV1DdwZ5BSkyVLZtjwrsQ1Qk2UeLbU7Tx1jrBLjVo1lK9qPhUsUTDC7sFdw6sWrNL+lfs1csRI265rN0A4cvKymg1fo7fypNXyjUcMOJjS8bUIAwmu3i2nsJFtj4XTUBQcAQcgRPKkkBeNVCu5zt7MUl0kJk8alDsj5XHp0qVGgW3t2mWqW/dN5cyZxVvTQf/9jz9Oa+DAWVq16mflzZvP7PotSdhgGoeQSToWYRW07SlgxOIaCuZOOpvFHe8AaXGNGze+6za4N9JdSY3zZhA3e/bpqQRZE6jEeyUivOIeCpKLJi3SzuU79fvu3039CCoH2mF2AoQTZ6+q/bj16lw9p6r2+kY7D5w1XaxcJKNGtSxoK0igTDf1U9A4oLgS7x7vHbUZCBVFdKYA1yPFkT6UKFHCaBvYYXjqSNEkzGXHO2xHn5w2osYIOAAhkueB3SSZCSwO3ozFhboNFPixFNNczyG/ulWrVqJmA6VkEUh5//2aaty4hEqWLOSt+YD/vmnTLtWu3VPjx39iZGbpAyVjrdztgBuWDMsf7gV542gG8IAi3hKqhpYDwjqUAabwjmUsMswtYHH48OE+3R7PQ9/+ffXz7z+rw9gOihU34rJXBjYdqLyZ8qpK5SrGe5UrVy4TFrNjx2wnQPjyx0O6efOWOoz7UUdPXdbf/5a4Tp8yvpYO+J/SpYzn09h6OwhwQGYNY4GGgZViePXqVVGdFY+XL+902OvAPylSpIjP48ozgIIiXBa8kXYY2VLcF+qKTh0GO0b0wWnDAQiRPJfsNCjDWrFiRa9XxpVJ+ht13IlhW8aiTAog6XGkO+K6pswsxodswIB+ihHjvCpWLKIsWW5XDQzW4AweOfKn5s9fpQMHrqhdu85mR0kfATCoxnmrLeGtD8hQs4uBp4HXpGvXrqagTFglSW/tRKW/k43BwkK4yDW9zvIOob9PkR5fjfFGeW/pd0v1comXlaNQDsW0SSzr5o2bpiT0hoUbVLJYSb1b7l2zK0avH+AGudYTmdLX/nOcnQBh+vI9+nbzUc1eebskumVPproNENKmsAcg8K6xkLKIhjWyTXgHqNqI2qKvxlziSRw4cKDPAIG2CTmibWAXQEBzAWIw3yarLoOv9+Ac92CPgAMQInl+IRviDQiPU+DaJRZ+5JnZafBBwb3YuXNno8/ObiJlypQit5siLZZB9vvtNySP+yh16jhq27aqkicPPPf7+vUbGjt2vlavRs+9nVFJdCXbQcJjMcdN6Yt4i6ch5wPbpEkTIyKFEh1FY7hHQI/r9SJ5ygK+HPPFuDB3eHlcjfljMRk3btxdngVfLka7f/zxhyZNmaSVm1aqVqdayporcK0E2tu6ZqsmdJugMv8ro5rVaprnyvIW4O1Aphe5XxazYM0ugHD52k2V7vSVtvx+Stdu/H1Xtyq+nlHj2hTSY4/eKxftb/8BcygO8nzCCQprFpAnLZd3wddnFU0UQk943/zxzNgNEPwdD+f4h2cEHIAQyXNNHjwuZdyKvljPnj01a9YsU6CF3dyJEycMH4HdHJY/f34Tl3Qn/sIHi9LC8+fPVpYsKZQ7d1alT59KqVMnVbx4cTx+lCAfwjE4cuSEfvrpN23YsE/58xdWjRo175Qkdu07oQAWOwSgwsbZfblHjmERIqbKh7hp06bmQ7xlyxZzOvr37NBCzQBqeFbQ0rc08617AEwxZmhcBMOxYPc6YNAA3Yp1S1kKZFG6zOmU/PHkSpA0gceYOOWaz58+r5NHTwrp5N1rdythtIRq2aKlxwJbpGjizWKnyRwFY/4AhJt/39Kug+d07uJ1xY0dXWlTxNVfN29p028n1WXCBsWLE13PPplEvx89r62/nzaFJf6XJ73Gti6k+HHsUaBEv4JsExZyV9lj1zGgMBLVHAHr7MgJkaFiyDuBngnSx4Auwkq8x4CDFi1amEydbt26mfRguDdU+yRsQcgQYMI7zLvNxsJ6x90BBK6BNxFATZ0HajUg02yRYgHdyEXTdoIECcwxvLeEuCjkxLuGlwRvJUZqLnNtZRLxewB7MBuAYJ4Z59z7MwIOQIjkcWcXRrjA1wUPlju7DF7uJEmSmBcWlj87UrThYfkjmBTeDoQPFW76Xbt2atu2n/Tbb9t0803wtegAACAASURBVOYNZcjwhJIkSajYsWPo+vW/dP78Je3ff1Q3bvytjBmzKnv2XHruuex6+umM5qPiydhBUcUOoLJs2bKAFrxTp06ZjyACUpD9+OACGjBAEjvxUDM+sgA4vD5hF1WK/zCP8C382T26GwPGn489evw/b/9Zm3/ZrMPHDitlmpQGLMSOG9ssFJfOX9Kp46d08vhJpUmdRrmy5dKLz7+oZzI9Y8JF4ZHsTCZFjRpm4SAFNZiFwleAgFeg68QNShQvpgEF3209pms3bunGzb+Nx6BH7ZdU8IXUSp4ots6cv6Z3uy3TmYvXtaBPcT2V2vPz6u9z1LFjRyPcBUDwBI4YE8aHeYWUynuLtwVwj8eNd5V3n+ebugiECeF0QMYFTEAOhFfAPA0aNMjMB3wlQgkAZEAKRZr4e1iAALEXXgLfCUDIyZMn9eGHH6patWp3rgXviY0Jap4AGa7fpUsXAxj4NhDqom+cD7eJtij0RDVZns9OnToZryfF0xx7eEbAAQiRPNfp0qUzbkgWDl+MjwM7a/5FlpcKbnwg0PTnJYfdzkvsr7E7IXRBG5ZeO7sEPmIpUqTwe9GiH3hH+IjBsPbXIHoRVuBDiEueRZVx4kPJrg3NgIhmifvbZ2/HQxoFCLLLD6vLz/zxUV+3bp23ZgL6O+CK8WTxYFHnvwGYjCfPUSBsdRY/dsDMCwtOoOYrQPhqw2Ht3H9G+bKnUrXe3+jPM1fNJRPEjaHZ3d9Q/uyp7upC/xlbtGLTEc3vXdw27wEXYCElvABAcA3luV58+vTpJjzGfLJzByzz3yy6LLRYqlSpTCEmq6Ii/x9+Bzt1CyTyXjLGvO/WHAHOChQoYAp74ZFyBQiAQ4iFpBnjkbAMwIJCJwRfQDshIrwIPAP8HtDDc4nBj6HuCWAFgEBmBt8nvEZW2Wk4T7yDAB/HHp4RcABCJM81H2g+Cq4lf8PrAh94iGGEFPAeQN7jw2LFQkH7wRSFsfP2eZioQMn9+WN8oPiosrOx0jnZXfFxg6TIR5AMiUAWNX/6YfexfFDHjx9vwFxYLwFzyILL/YWKMQ8sQvAf2BkHar4ChI+X7NLpC9e18Pv9+vXQORFuwLI9mVhrx5TRo2HKUUNYnPr1bgMQ4saKFmj37jmPBRViMQDhlVdecdsuvCBALYs9ZZMBCIQlKM6WMGFCcw6/x41vAXp3AIFFmawgAIIrIAZ0s7jzTrgCBAA+aZYAa6tENNeiHTwIeJUAAnjneN4IKQB26KeVHRQWINBngAgeEOudI7SJl8+X9GzbBt5p6L6PgAMQInkKiDeD1HE7+mJ8lNnRs8PGjQ/y5ydYt7Qv1/b3GD5GxCkBM6T2+WrUpmfhQRWSHQyG14S8bxj7UfFefbk3wA5xY1zGYe+hWbNm5m94EULJ8IpQCph58fUZDnt/vgIEFvuR83do18Hb2gaWpUgUW9+PLKXHk/2nSsnfxi3aKUDCgt7FlTShfSmgAHO8ACzuhBHCGjwBxgLvG4CPsAAAgSwDQoPwCiyAQPiMxRdzBQh4CeAu4O7n2YCD4AoQcO+jveAJIJBdYXkmaJsQJOFHvIQY3CA8hHgSeN947izuS1iAQGou59KGt5L0ofTsOn31fwQcgOD/mAV8Bh8BPjTsKKnn7quB/iEh8ZHAhW/tSHw9P7KO40OKEBQ7DV/j1MRA2VHhIRgyZIjpKr8j756PMcAoFA2XPoWYyFhhTMIaLl3umw9xKBmLIQCVZxiinUVq8+cefAUI2/aeVqUeK3T4xKW7msdzUOD5VOpYLafyPZfSeBLgJFTuscJkNMzu8YZezpLCny55PZZFdcqUKea+48W7O3USoSvmkWfekkT3BSBMnDjRpE2ym8cTAJERjgPkVYSpLPc+WTyEqiAzQhQNy0GgJDweSbwYFhClXeYHDxYhA8IknA8XIm3atHfa5sbDAgRCjnANEGCzaofwPDNvrloeXgfNOSDkR8ABCJE4hcTpYRfzkfF1h40HgWP5MMM2juq7aT5KFPTBS+JLGIUQCrsv3KDWTgtPAh9EdktFixaNxBmy71Ls3CjQxDi4I6TyHLCD9DWbxb6eBd8Sc4bKJWEgTwqf4V3FV4BAG9v3nVHtfiu158h5pUwcW4Mb5VX2p5NqwuKdGr3wFxV4PrVqv5lFK7ccU5yYj5ljpq/4XYMb51XhFx8P/mb/bQFvFq5/XO08l9bOmt+jH8CHFJ4AZmlVQOzDrc8iywKLJ5AwWs2aNc17jMQ2oktwBChUBhCAbwOZEN6IteADQKjjAXGXkCKLPVkPtE940SKQkjILYKNPeArQE+E549vBfMEbgUDJe0bGBO8d50NwZfMBEROOBX2jLbwY3Cv/jVeBPuI9cuzhGQEHIETiXBO7JeUNgOBa9tdTF3jRkTDmg8Cii1s3qhsfR3Y03J876eGw/cfVSXoWHyfLUB0knsoiG7bMdVS/f6t/EPlw63JvVtjE+hsfdDwm7DJ5HkLRWMSIubN4+Suu4w9AYGxu/v2Pzl66rsTxYiiaS1nz/ccvqOP4H7V0/WENa5pPKRPHUZWeK3Trn3/0RPK4WtjnTWVJdzttzw5jkefdBSDBJSKNlcJrkATxCFrgHSDP7puQAQsyGQK8u4BgsoEIw5HJgMFTYQHnOWfRJv2Q68B34F/+m+sAlPn//J6URMIPhDSssAKgGsCBdwNvBM+VVQEWTgFeCjJPADZ4CCCw4k3AG8HfLCGv0qVLGy8nQIS5BRTw/AIkaDOY7BU75sBpI3JHwAEIkTjefFjYVfORQZrVm0FU4oUFIBDbJGc+FIwPGKQq4qnhEQv5+PAxYiftmomBe5S4PR+8UDXiz8wfZLGwXh8WEEBUeGlzUf2+CQOxY4aI528Wjb8AIbyxwLPwRuslqvO/LBq18BddvvqXOfzRRx/RpA6FVa7QU7YPJQs6PxgLbrBePYCAuwwdwDY//pCQw7YFGEBsDY+AK5DjOAA8wMMT8ZL7C6QPtg+40+B9GwEHIETi0PsDEBDSYXfA7qNChQpml8IOJBQQPAs/sVLisWgYeDLiuhAvSQ0jLmoZMW5crCNH2ldBMBKn2XAomDN4FNxfWGPnzbiwQwvrXYjMfgZzLRYOJL7Jlwe4eipX7e4adgKEGzdv6aW6c5U4fixt3n3yzuXwNEzuUFilC0Z+CfRgxtXucwEyPGvs/sl8sr4feAwgXeLlIvzgmDMC7kbAAQiR+FwQ6yOGx86R2KAnIxRRqlQps2gSA2QXQPwQUhOLTigY4k3sooldui7+Vt9xvwKAyMkfMWLEXbsw8sCJ07LIhqLx8WW+EMRyF0LgpYObgN6DRUQLxfu0tC/gIRAq8nWnaydAYNyGz92mHlN+MmJKlqVJHleL+72ljE/cTjF8mA3AzpjjkeN5I2SB54NnlDCFr/P2MI/hw3rvDkCIxJlHfz9fvnzhAgQQPyl/xA0tFrG1IwVcQEwKBUPwBcITEsMU+gnrhgU4EIaAb2AJyXBf7EzRREAimpztUDQ8PezWiPO6cx2Tnw5A8lcvIiqOBfdApgaAh3x8X8xugEAhsW4TN2jR2oO6dv2mUieLqy7Vc6roS2l86Y5zjDMCzgh4GAEHIETio0EaE3FbOAjuPAgsjpCGILhB2rMq5/F7Yr0wotesWROJPQ7uUuygUV5zR2TjwaM6XljBHbwsMPsBDhDBQtEQ1oHhz32HNchfAD0Iabh4Q924Hwi0eLZ81XSwGyAwhngPKPd8/cbfSp44tpLEjxnqQ+v03xmB+z4CDkCIxCmwAIInyVbyqFFsQ045bH48oQZ24mj3o6gWCoYrE3Y3sWrXOvN4RCBpotQGV8HVuE9+SOsKr/5DVL5/4rqkkpFmFtZwy+NFAvC500eIyvflqW9kY/C8Qsj0pZBTRACEUBw3p8/OCET1EXAAQiTO0LFjxwxjGIAQNosB8EAuMosG1QzDuqap5kgGBAIqvugLROJtebyUVcQJ4MPiYRGk8CxQTIZ7CctPwP3OvXNMqNVesAaCuSUUZCnmuQ4Q6WikuQGCXEFTVJivQPtAuISsDIShYMt7I9I6ACHQkXbOc0YgckfAAQiRON7kJxM2IMTgWjaW3wMcKJACuc+dvCncBKRW8S6Q2RAqBjGKsAqpi6Rs4j1AWAadBNzwrmapD1LkJmx55FC5X6t2BsVt8BSENbglkDBJBfWH+R/V7595BiTgTUAgKjxzAEJUn02nf84I3B4BByBE4pMAmxjWMADB+ojihsclzQ6bRcUd49/qIm5c9NORJA429zqybpsYNZLJ3Ce7ZjQAyNCAwR+2Mh66CQAneAl4U0LRKN0LuEGFzh1pD9U8AB5ciweNPV6/fn0DACkG5A0g9O3b1wBGx5wRcEYg6o4AdXWQ62Zz6mqP/IN/2DFbRwBlRHaNAARIXQwxrnRY4Cyc3moskNUAsY3FNZQqG1oS0yyaLP7sot0x+CH1QXhDQZHKd6Fo8ETQdYBQ6g7EQT7FC8TfHzSjkic1JuCPuPOeWPfL88Cz4JgzAs4IRP0RoDZI2LChAxAiaN7QYweVkR8P2x0tdkAC2unejA8r+umbN28OOQIf5EtCJ999950h7+GODmsUouJvEDFDcXfN7pnwARwRdsjuDPU6wKC3Xba3ZyEq/h0AXK9ePSM/HMok06g4tk6fnBGISiPgAIQImg08CAAD/oWk1qhRI1MExpcFEQ1/dmgtW7Y0O+1QMoiZFStWVLp06YwHJWz83UrlBASRGhmKBtEUtE3WBkREd9agQQMTRqIQz4NoEHHhlyANHqphogdxXpx7ckbAzhFwAIKdo+nSFkxvOATUH+D/4z3wlU9APB91QlzwkMFCyaiCh9eExYOsBgrPuBoERbgJ6Pr7q+0fVcZh06ZNKlOmjCnNHTduXLfdQkCJXTbFqB5UQ8sDTxGeslAKhT2o8+HclzMCdo+AAxDsHtF/20MdEFcsCwiENX/FgKgKB1kRN24o6fjDXMf9ToiF+3ZVT2RoGBMIivArfFXki6ApCrhZCIp4DyjS5MkASIQXrGp+AV8sCp944MABM9cdOnS4R88jCnfb6ZozAs4I+DgCDkDwcaD8PYzCKHgCIByGV4/BU7uw3xGjwQ2Pyz5UDJU9yHtIMNetW9cIQrnaqVOnTDoku3BK1oaiQVAE+HniH5CqSu0JyJi+CAqF4hjQZ8JFzDeprQDDUAKyoTrmTr+dEYjMEXAAQgSMNrXfK1WqJMh4YRdIXy/HxxceAkCDMEWoiAmh/zB8+HChE4BIEnnzrmEGxgaRHUIn7nQgfB2f+3kcBFK4BZ7S96jNADkTL0moZmn4Or5nzpwxmTrt2rUz5YYdc0bAGYEHZwQcgGDzXLIgQizElY7EsDuVPV8viV4CAhaQ/RIlSuTrafftODgH7CjZOaO6B5EPYiaeBMtQkCSVhhLPvhA279vNeLjw+fPnTZEp4u6ewgeQUwcNGmT0LkJFLjuYcSalk/v9/vvvQ7pqZTBj4JzrjMCDOAIOQLBxVinXDKMbYaCTJ0+qaNGigs0eqCE69MILL5iiTt5U6wK9hl3n0dfcuXObAkyk+EHIZJcNWICLwEKJVyRDhgym1gQZGqFogCDklbknTxyKnj17Gv2DuXPnPhQL5oULF0zFTsoKd+nSJRSn1emzMwLOCLgZAQcg2PRYkJqItwAWP+JALI6EB4KVEgZg4KInzBCVjd0jHoOVK1caoIAhLQ3/ggwOyGyEHSAtUuI5VFPjmjVrpp07d5qyx2EzNKz5KV++vOLEiaMpU6b4nLkSlefWl77BlSHEQC2RB5l34ctYOMc4I/CgjIADEGyaSVysI0aMMNoHpPkBENhVE2YIxtiFUrOARSmquqvxDHC/qOYBEFz5Et26ddNvv/1mlBXxJgAUdu3aZUh8oWbMZ8GCBfXaa6+5reDI/TAWFHECJPhaFjnUxsFdf5EXR+8DDxLkzVDhzDwIY+/cgzMCETUCDkCwYWSRniWcAFfA2j0PGzbMEPSCFQM6fPiwUVVEeplaB1HRWDjpI7wCFlBXAxywoFLRkfFh0SSTIRQXENL6WARJcQTouDOyN+AooBQZSsW27Hiu0IUAIOzYsUOJEye2o0mnDWcEnBG4jyPgAIQgB596A7jLW7dubcSNLMGY6dOnC/JWsEJH7EjJhIAtDhchduzYQfbY/tNZ+Lt27WpEc8L2j9DLe++9J+LUaEFA8kNHIBSN+ytXrpwRSEqaNKnbW9i9e7fy5s0rsjUelDLPvs4VIliU8SY7hbBSKJJQfb1X5zhnBB6GEXAAQhCzDFOfVESKL8E7cFWTg8TWvXt3kx8erKGJgO7/N998IwSYoppBoGRHTcaFO7VIvAdkdgAQOnbsaABDKBr5/nBBqMjpyQiz8Eywiw4rEhWK9+xvn61CXDz/Yb1J/rblHO+MgDMC93cEHIAQ4PgTc4WJT8EhUt5ixYp1V0ssFJTFpWCPHcbOFTc+qnVRybhP6hGgKsjO2Z0hGAXDnWMo9RxeqeuodG9h+9KiRQuzOyZLw5PhOcDjQxaLJxJjVL7HYPuGSBTy0niSKPsd9r0Itn3nfGcEnBGIvBFwAEIAY82C16tXL8EzgJTnLgWR0AOVG5FKtsMgP5IeSH2GqPLRZRwIrZDBsH79+nD1+FFXLFSokKiEGKq6/fnz5xekS7I1PBniWAhB/fzzz3ZMe0i28eeffxqiLjoQpOk65oyAMwKhOQIOQAhg3qhYSHVG3M2e0vVwMRcrVsww+OPHjx/AVe4+hTADu3Cu27Rp06Dbs6MBeBGQM1FMDG/R5FqUBWZnSRgCHYFQMrxECFUhjITrPLw0PrgYkBkJRzzMhrLi9u3bTcGuixcvmrTPqMifeZjnyLl3ZwS8jYADELyNUJi/89FDRhd3c3hiPywqLJpwEyjcE6xBVsRrwQeXHHyKId1vg5yIMA6iQN6yEvB+UJeCDAbAUygVaiKEAhiixPEHH3xgQCEVOt3xLWrXrm2yGILVv/B1bnHpI+18/PhxEfbiOUmQIIFSpUplUknvV5iD9wRAi+Q43jS8Kna8B76Oy4N0HHML6KREulUADsCaKVMmw39yLLRHgPeWd5hvI7w23lk2lenSpTNS7d6+rRF59w5A8GN0eVHR32fiiK+yK/Jkf/zxhyj5y44ZQGGHkQlAJcShQ4eacsPejMUDZjk/LBz8Nw8bCxv/8hPoAkKbLACkMLJr9mY5cuQwRafQi2CRRdvB1/LX3tqO6L+jaYAeBYZMNHNKaMUdS58xAThGhBAUc8hztW/vXv20YYM2rV2rQwcOKEOaNHoiRQrFixXLjOn5y5d1/NQpHTp+XGnSpVOufPn00iuv6Kmnn1by5Mkj/IPDcwYoqFmzpgmJYYSgrBTgiJ6vUG6fd/zgwUNGcGrNmo3aunWnYsWKozRpnlL8+IkVLVoMXbt2RRcvntH+/b8pTpxYeuml55Uv3yt69tmsht8TqjVOQnnefO07AA/BON6LNWs2aP36zbpw4ZLSpn1aiRMnV6xYcXXz5l+6cuWijh07YOY5U6anVaDAy3rppZxm7YlMPRwHIPg4s3ycYd8DEkhh9JTmZjXHiw6bvXLlymYxtMsAB5AiKQRkGeqNe/fuNQvHgf37jZrjqTNndOvmTcWIHl3Ro0XTo488Yv796+ZNc9qNmzf1F+Dh1i0lS5JEyZImVbonnzSLCDtPb0RCvAbcH14BMizCM3bfqEqS3ohnhXRNwjRRhUvhbW7wkvTp08csvpBE0XLwBKzYJaMUyf3aaYSqRgwfrhh//aWc6dMrc7p0SpcqlZInSuRxwb/59986efasDv3xh3YdPKithw4peuLEatiokZG8jihDFwPNDuab9wbD80Umi2PuR+D69euaOHGS1q//SalSZVOGDNn1+ONPKlmyJxQrlufU5kuXLujEicM6dmy/9u7drBMnflWVKpVVosQ7IQPAH4ZnAr4WhO4pUz5VrFgplCFDTqVJk1GpUqVTvHgJPaYE37hxXadP/6E//jiofft26OjRLcqUKb3q1asbKV5kByD48HSyI0IdDtEjdA18cZVyDql/VDdk12yX4Z6nXWRtz508qfVr1ujvv/5S9owZ9VyGDMqaIYPSpUypVMmTK26YzAp3fbjx119mt3n05En9euCAfjlwQNv27NHZixeVN39+FXj1VeXJl09JEidWvPjxzUeHhx0eBCAB8qE3LwREzgoVKpgXhIWTMSFPPl++fHYNS4S2M2HCBDPeZJGw+LMLd2cshhkzZjRjYlcICLfj+LFjtXbZMvWsX185s2QJ+F7p3w9btqjD6NEqXaGC6tStq8RJkkTIQoLbtHHjxkZBk8WPCp/IVDt29wgwNqtWrVanTt1VtGhllSpVVzFj3p0R5c+YXb16SaNHd9a5c4fUv39PI3V+P13U/vT9QTwWTytev169+urYscuqV6+7Uqd+MuBbpb0VK+boyy8nqmXLRipW7A3Fixcv4Pa8negABG8jJBkeAeTAMWPGqFSpUj5/UKnNwAfAck/7cCmPh+CRmDd3rjatW6ckjz6qzGnTGjDwZOrUSpIggc998rUPF69c0cHjx/U77rAjR3T8yhU9/tRTqlGzpomDEj6hKJEvoY4hQ4YYQicpnxDVyATAgwBgwGUf1Y3UReaSHXF4u2CIpIwLWR3BKgmymJO5snrJEr3xwgsq+sorih0zpi1DhRfpix9+0Jdbtqh46dIqVbp0hCwigOTRo0eb+Saj5+OPP7al/w9KIwhuDRgwSMmTZ1fRopWUJElKW26NZ2ffvl+0atUcJUp0S23btgr6ebSlYw9ZI8zDRx+N1JYtB1WwYFlly/aKHnssmi2jcP78aa1cOV8nT+5Q/fq1RAg3IswBCF5GlXx24v6IHqFr4I8hCgSRb/PmzUEt4BBXKpYrp2LPP6/G5cvrsUcf9acbth27+Pvv1XPyZNWqV8/IDVMfwpvxkhCLZkfJgoeRAoiIDrtLT5LF3tqNzL8TzqGveBLCM7xLhID4N27cuAF3ERd9n1699NumTZrUpYvi+OAJCvRiDfv1U9YCBdS4SZMIAQn0i3HD+4YSZaimuAY6vu7O450gZNSgQQt16DBJyZM/bmfzd7W1atUCffXVOE2dOtkIlTkWOSPAhq5ChSp69tnXVLlyCz366GMRcuE//jikLl0qq3v39iasZLd6acgAhPtV+IZFDZBQvXr1cEmJ1uzjPiedz/owIqqzadMmkyYXiPExKVWypNqUKqWCL74YFNAI5Pphzzlw7JherFZNHTp29Em0iRcFrwtjYqVnEqKA3c7DTMVDuAiQPmFqR0VDywLPhxU2gGTpznhG2RVyL4F6Rqjl0L9PH2WIFUt1/fBWBTpuV65d0/gFC3QyenS1a99eCQN8Tr1df9q0aYZ4Fwxw8nYNu/6OXHREFRPDRYxHcfbs5apVq7MefzziuCDWeOzY8aOWL/9YTZu+H6FE0fv1jfZ33snw8Xez5881ICH26NFfzz//P+XJUzzCv9mXLp3TjBmDlCNHOjVoUM+frno9NmQAQvHieTV37gCvN2T3AadPn1O8eHEUM6ZvrvAGDcYaEiOGNDK7Z3ZOwZDWSKlbPWqU0qdKZfft+d3erX/+UZYqVcy9eSMy0jjFpmD281F05W4gpoPA1Jo1a0x1R4ic26ZO9bs/kX1CgTp1tHX3breXJcMFeWUEtALJ0KBuRd06dVQuZ06VLFTI9t2Ap7EChM5buVIb//xT/W3ky7heD3nqL7/cpddfvw2eo6pt3PitnnsuttEwiQj74Yc1Gjt2jpo2Haho0aJHxCXctnnu3Cl9+GENjRw5VFmyRIxce+rU6TV79o5Iu6dAL9SsWaEIEzKj1syrrxZR69Zj9OyzLwfaRb/P++uvGxo1qoNy5kynli1b+H2+pxNCBiC8/XYBffHFcNtuPKIaqlp1yB2AwI4YRTnCDPwbqAEQ3syVS6+//LJee+klJb8PlfKuXrum1Zs3izDD5sOHDRHPF2PXiAeBPF+LLMWCRJoPxEWAAi51dlbnvvnGlybv6zE5qlTRz7/95rYPgAOIeYgE+WuMydCBA5X4yhXVLlHC39ODPh5ewvDPPtO1JEnUtl0721PlAAjffntAb7xRIei+RmQD69cvU6ZMihCAsHr1dxo8eLwaNx6oZMki390PL2HJkhEaOLCXbSRa17nAG7J48f6InB5b2n7//RwRAhAAB+3bd1XOnGWVK1dhW/rqTyNkPIwf31klSxZQmTKl/TnV47EOQLBlGP9rxBUgsOjhlp4xY4ZXpcHwugFA+GnSJC1ds0YTFy7Ui5kzq+Y77+jFZ54JaKfqzy0f/vNPfbJkiT5fvVqVihVTxTfeUPlevXwGCCgoQlDE42AZOfGAA4SHGKNkyZKZf88sX+5P1+7LsZ4AAmqB5CcTXqhSpYrffeMZWbt4sYY0b25SU++HkRY5aPp0PVe0qN6xGaQ87AABAmuzZm3VtOkoJUiQ5H5Mr0k5/fnn77Vw4QDNmzfX9jTjhx0gQDj9++/HVayY/++/XQ/ExYvnNGJEC40bN9BjtpU/13IAgj+j5cOxrgCBw9GiJ3cePYRADYBwYN48c/q1GzdMqtrSH37QmQsX9Hjy5HoieXLjVUicIIESxY9vSG0w3vlhsYHUyO4dLQQjmPT33yZVES2Ea9ev6+r16yIWjcDO2QsXdPrcOZP2eOTECXPN/+XPr2J58ij+v8JQeZs08RkgsJvmWmFTPanwyG4bshZqcACECytXBjpEkXaeJ4AA9yBbtmymNgc1J/yxPbt3q1ubNprQrp3i3edy3n+eOaNOEyeq/8iRBrjZZQ8zQLitgvqhUqTIrZdfLmLXkAbczrx5o/Xss4lUrZq9C9nDDBC++eZbDRs2RZ06jVeMGIGnqQY8qS4n7ty5UdOmddfcuZ8FLfPvAAQ7ZsSljbAAAfVAwgtt27YN+EquAMG1ERZ19ArObLpNrwAAIABJREFUXbyoS1euGD2DYydP3vnd+UuXzMKP+xi9A4ABYAHQAJs8TsyYShA3rhLGi6ckCRMqVdKkejxZMsWPG9cADQCHBQpcr+sPQChQoIAhBEHyDGtbtmwx6W+QeviIXluzJuAxiqwTPQEEPCTErQmd+Ms36dOzp97IkEGvPPtsZN1GuNf5cu1afbZxoyZPmWIbD+JhBggsHhMmzFWLFsMUPbpvXKaIfBAuXTqvcePaafLkEbaGkh5WgIBWSePGLVWv3lAlSmQfqA78GfhHn38+UenSSe+//37gzUhyAEJQw3fvyWEBAgJLsODRog/UPAGEQNsL9jxfAQKkO+Ly6Ae8+uqrbi+LAiSKjCys/2zaFGzXIvx8TwCB4kwobRJq8EchkmejT6tWGtm2re2hBUBhoOGKhoMGqXaLFnold25bxvRhBQikKJctW0EtW06I0HRGfydpxYpZunRph9EyCYRQ6+56DytA+PzzRfrll0sqXtxej4y/c+p6/PXr1zR1amcNH943KBDoAIRgZsHNuWEBAoWVcK+7xuD9vWSoAgSIjKQzLl++PNwKiAgm4Wk5umiRv0MT6cd7Agj9+vUzKZuEGnw1vCYVypdX6xIllMeGgl7WdfEU9Zs8WSmSJlU9H2p2uOvvzv37tei339Shc2dfbyfc4x5WgLBixTdasWKHypdvbss42tXI9etX1abNO/r00/G2pXQ+jACBd7hSpdqqVau3UqRIY9f0BN0O/VqwYKxeeil1UIRFByAEPRV3NxAWIOzevVslSpQwsfZALVQBAqJBLJooC1JhMDyj6NPKCEqxC3Tc3Z3nDiDAsaBAE3oZkA19NZ6JLi1bak6vXr6e4tNxy9evV9l27dSkQgV9GGAdELJWOowbp8GTJtkibvSwAoTevfvpuefKKW3aTD7Nna8HXb16Wfv27VS2bIGn0q1b95Uee+ygGjb0TwDOUx8fRoDAt2306Dlq02aEr1Pn03H//HNLR47sU8KESQImtd4WUSqnTZvWByyC5gAEN9N169Y/evTRR3yayLAHhQUI6AAULlzYqCkGWpo1VAEC3gNkmdFA8ObGDGWAQJomHAt/uSZTJk/WE9eu6Y1XXgnoWfN0UqdRozR85kw1Kl9eA5sHvnMdMWuW0ufPb9JUg7WHESAgNV2lSkM1azZMsWMHrqzpbuyHDm2tDRtWaObMrQFPzbVrlzV/fh9Ts8EOhcuHDSCwS69cuarKlOmojBmzBzwP7k784Yel6tu3vvr2nakXXywQcNtdulTRBx8081pQz9MFfAIICP1QcALjQ1+0aFGj7Q0TnUp97KD4PYI4lmIgcWeMQj558+Y19emDsUB1EP7++5Y2b/5VkycvMkS4QoVyqkyZwvriizUqW/Y1twvXqFGz9cQTKVS6tP+5rGEBwunTp40+/8CBAw1QCMTsAgjBxKRd++0LB4FY/Ouvv25CB23atPF624EChM++/tqQL/mJGT26IdURd8/y5JN68vHHFStGDDPHzP2SH34wJa+pYBmDCpePPipqDfI3Uxb71i2Vfe21cIl57jwIV65cMeWdKXtdpIjvLPXeH3yg+gUL2qprsefQIZOWOmnRIpUvWlTDfRh7T5OzY+9edZwyRYuXLvU6f94OCBQg7N27Q0eO7DUlcNGxv62lcXs+b92ilPlNI0iDSM/evb/oyJHfwz02a9aXTJVET2anDgLfzc8+W6U6dbp5Gx6//n78+AFVqvSCcWnPmfOLX+e6HswzP2lSdw0d2skohQZrEQUQyO8HDPEvfX7kEempp7LpqacCI/XapYNA1dzateurZ88FwQ7dXedfuXJJzZq9pd27t2rEiKVBAYRt29bqxIk1at8+MJK8TwABNzkFdyhaM2LECKEYxwPF7ydOnKjBgwdr/PjxJpXPetCWLVumAQMGmCJHfDQD3T1bIxcIQAC4jB07z3xMatcuaWqnb9/+u2bNWq6DB49p6tR7CTrXr/+latW6aN++o9qwYaoee8y/ugdhAcLVq1dVvnx5U7mwU6dOAT1IdgAEii9V7tRJM/v2dZuZ4E/HfAEICCPB6kdVEoDozQIFCJt//VWTFy3S6Llz9fngwUqfOrXJ2Nh75IjRjSBFs8Ibb5jLr9++XZMXL9aEBQs0+8MPleGJJwxAIANk98GDGjB1qr4dO9aUUfZk7gACctKUvGZB8Cc1sEPDhupWrZpttRbIaHm/Vy/1bdxYRRo00DuFCmlsx47eht7j3wFTz1evrrUbNgQsFW41HihAOH78oAAJH3xQU1WrtlKePMUM4EM57syZP7Vs2Sxlz55HlSs3NyVx9+7dqW7dqqtKlZbKm/e2zK117PLls03BnCpVPCvN2QkQmjVroeeeK22raM5ff13XwIHNzSJJXz//fF/A88uJM2cOU40ar5t6M8FaRAEEQOD+/buEy7xz5ypq0WKQChZ8J2CxKbsAwvr1P2ru3O9VubL3DZA/Y/vjj8v1++/bNWZMN40Y8YVy5nRP8PalTUD0p5+20aBB/QOSf/cJINAR2Obk9FPX3XWXtHXrVrMAULWtVq1ad/rMzpm/sYu0wwIBCCdPnlWzZgM1Y0afuzwFu3btV+/eEzVtWq97PAjnz19SgwYfatasZfr55xl64QX/YodhAQL3Dkhi/KhgGIjZARCo3le2bVt9MXy4qQwYjPkCENauXWuAJCmM3spB05dAAQLnjp8/XxQdOvbVV0qZ5D8Rmm83blSZNm20efp0PZ3mNoFozNy5aty/v44sXWo0JCwDKExbutRoSqBY6Q9AwIv2yiuvGJ6JP6V1W1arpsHNm9uWSsi9IZ5Flc/sFSvqjdy5NclD3Qhf5/+9Pn3UtGvXoKvFBQoQ6CcLRNmymfXBB5Pu+ViePHlM69d/rRIlaptbYlNQpkwmde06US+9dLfH7tSp41q79iuVLHn7WHdmJ0B44YUcGj78W8WPn9jX4fZ63Lp1XwuCIQvm7Nkj9eWXR72eE94B33+/WNGjH1bjxo2CaoeTIwogWB3jOShR4kmNHr1CTz4ZeNlzuwDCggULdfx4XOXOfXsDYpeNGdNFBQq8owYNXtOwYV/o5ZeDW0OnTeuqHj3aeuWBueu/zwCBk9kFE0ZwLcqxevVqk+eeO3duU87VWgxI32JnRfEiX40PLOe7yyMPBCAcPvynqlbtoqVLh5t6Cq42ZMh0tWxZ5R6A8PnnqxU/fly9805z9ehRX23aVPcaP3dt1x1AGDlypHr16mWKEQXiygsWIOCWW7h6tWZ+/bWypE+vXg0b+nVPYefPF4BA9UPuGxKPZRZozJ8//z2pNxEBELbt2aPiTZqoT6NGeu/fOHpYgMCCgjhQ6mTJdPLsWS3+7rs7x7p7bt15EPCWoOcAzyRsNTWEk+AmxI8f/67m8L7NHj5cXd57z9fXI9zjEM0aN3++2tWoYTwoWcqV08vPPqvZ/fsbgaxAbdScOUqXP78h2nqz20p9P4vnFVVJV7MHIExWzpy3RaiuXLmoaNFuh4++/Xa+ihevZH7vDiDcPvZ2+OnbbxeoWLGKHm/FX4BgcYv4ZrnybPj2FSr0miZO/MnbsPn8d8Z34sTeqlSpmclznzSpj7755rTP57s78LffftayZSM1ZcpEn9pB/RTXOh6HsM/6gwgQqELLukQ55bD3O3HiJMWP/4qefvo5n8bO+0H/6LPPPlKKFE8oc+YcevfdrBo2bEnQAGT69L7q0OH9gOS1/QIIY8aM0dixY41nAOOBpRQuZX8JNZDKl/zfXRmpbTxEKVP6XuOcBeXDDz80nggq/7nyFgIBCHgDSpWiFnoCTZzYTUmS/Mek528JE8a7Z84aNvxQI0e2V506PXXq1DnNmdNfsWPH9D63/x7hDiDA1WA3vXHjRmXO7H+hlGABAuqIW/fsMaGFZoMGaeXYsQHnx3ObvgAE1CMhKBJ+sgxhJFQG+aEi4ssuO/WIAAjrtm/Xm02aaPno0XolWzbTjbAA4eLly5r37beqVaKECTecPX/eiEZ5MncAYcGCBSbEtnTp0nuAFwA5Tpw4ovQ3pa0tAE19joNr1qh+aXs00+v37av3S5c2oID38pkyZZQxXTotGDTI8DACNUSTTsaPrxou3kFPbQFEEWZZtWqVqUeBLkTMmLffHbsBArHVVKnSmTg8wj/x4t2eM3cAYdu2dUqZMo1Spkx717Hu7sNfgNC6dWuj88E3i3u2gOChQ4dUt24z9e27MNChv+e8pUs/NTyMYsUqad68sRo0qLnWrbseFNjHbd+/f219951vdVAAvIRMqc7K/WbMmPFOPx9EgLBv3z7DIaO6JxtjPIWWDR8+UunTF7ctQ2X//p2aN2+cWrYcrPPnT6t48dQaOnSxChR4O6hnaObMwWrVqrIef9z/suJ+AYQdO3YYoh0LHos/MUpAASEGBvCLL74wA8gHipADUrqW8Ttc7OycPBneCMorY5AgIX7xQxXAjh0bBVSs6YsvfjBhhjNniBNnV5EiL4vKkNmz//dgW/3ZtGmnjhw5YciJhCGKFm2kH3/8RGnSpPB5gtwBBAoSZciQwdwbD5u/FixAgLgGB+HZDBlU4P33DQ8hU9q0/nbjzvEZ3n3XpPWFZ3iTWBzxLFlGuAFeimU8N+y8eWZatWqlDWPGBNQnK8Tw67x5SpE4sSEs/nn6tCYsXKhkCROqc506d9q1AMLnQ4Yocfz4+nHHDsNB+KCeb2VSAQi1XZ5rGuZ9YGdVtWrVez7WeI5QWmN3+eyzz5oPa8GCBU3xqvhnzqhaAM+D6yDxXs1avlx9J03Su0WKmAUSw5uQKV06LR461ChlBmrwNj5atky58+Tx2gTXhnNCeXOMD1K5cuUMqRki54EDjwZUrMkKMVSr1kaZM7+gCxfOavnyWWrYsLcBCa5mAYRq1VqZXRjHwlNo1KiXUqVK7/UeAAi//LJQWbL45sLmnea7hVHKmvktWbKkAUaTJs1Wly6fer2mLwccOrRbo0d3Vu/eM4w35Msvp6tr12rGg0AqXKB29uxJNWxYSE2bNvSpCb7fo0aNMsfiDSWEzOaHyqwlS5aP0GJNdoUYSpVK43NBNd5dqrNCuiZ8yDerTJkyZnPzzTerlStXVdtKdn/66SAD/gCz8Gby5YulHj2m6n//q+bT3Hg66LPPhqlZM1Jt/f/m+wUQzp49q3coEvTii+YhwdWEMAw7Ql4KFsHhw4eb8r1kPbArtIwXFw8E5X09GQ/fTz/955JjYaRcMsVvWrZ8LyCAwAd0//5jWr16s+bN+1bfffeT4sePozFjOqlkybs188eNm2fIjDFi3C6Wkzt3TVWv/raaNPG9Ap07gEAfQNqw+Rs29O1FdB2jYAECKW8I5sSMEUMtBg8WJZtHBlBx0OpT8jffNKGm8AyuCs8FQM8ynh92zpax22JXzU6zW7duWjdyZEAvggEIH36oEe3aKWnChGYxThwvnlInT67M6dPf5S2xAMJ3EyYoaaJE+u6nn/TH6dN+AYSsuXLd1U/IibjUXctZWwcsXrxYuCkxvAe8E9zvuXPnFO/0aVUtXjyge7ZOou+DPv1U7xQsiEvvTltDZszQ74cPa9moUUqTIoUBiL8eOKAcmTNr2++/K0WiRErjg3dv4y+/qMXYsUr/pGfmv3VRnnMKcRFKsyxXrlyqU6eOAQu7dl0PCiDUr9/D5P1fvHhWs2ePVqNGngFC/frdDSGR4jXE6m8f6xtAmDevn89ZV4QYLI0Tnjve82rVqon7BiB06vRJUPPLyWRwjB3bTTlzFlaiRElNe5s2rdTIkR00a9Z2ZcgQGJufdtip1qyZSwUL5vOpn2x2AMSWUYyOTKUaNWqEDEB4440kPm/UeHfxhqMKi8WIEcN4UHimv/9+nXLkYGeewaexC++gdeuWacOG5SpSpPydUMb77xc0z221aq2Dan/WrOFq2rRsxAMEetm8eXNRoY8ww9SpU41rDREcKvaxW4J7MG3aNPMR9IewRdtWGzlz5jQhBiR4rbhPICEGQAmaBtGikRp12wgbEEY4e/aCFiwYbMACdu7cRSN44epZ+OSTJdqxY6+2b5+l6NGj+TRJ7gACJ9auXVtJkyY16Y7eNAHCXigYgECdhjbDhqn4v5kE7AjZXULSo95CIOYtxICnCZRNJgug0TJCDHgLWEj5qDAmfGAwO0IMBxYtUlov6bRhQwwXLl/WwlWrVOPt2268oydOmLRDTxLF7kIMhI1atGjhFvxlzZrV7OoBQnjU8LRheNuO//ij3vdTYwDvCGRKAAFcg65jxhi9g1xZs941ldxn59GjtXr8eJPyiXjSsVOndOrsWdUpU0ajZs1Sm+rVFe/fAlyenoPlP/6oo7FiqZYPXAlCDMwpIQZ2ls2aNRPvMmZ/iGHdvyGGJ3T+/Cmzq44bN6HbEMP27euUIkVaszNjQSTnn2Pdmb8hBuYdrwn8rAYNGhhvCUCQ72DDhq3Vq9fcQF6xu85Zs+ZLTZjQw3xPLQwIrwKi4sCB81Wo0H/8EHbZVsiFcIQ3+/PPI+rTp6rWrLntBfFmgAO8JHgHCSexWBJCwx7EEAPkcuaUDQC6Lmzw4v3rkRs27CNlyPCW0qS51xvtbRxd/3706D517FhR0aPHNN53y8jeefvtGmrX7iPzK9I8EVCKESPmv3OcyKe1ZObMIWrZsqKeeOIJf7pljvXLg8AJxKAQTiHuxm6/879SrMjqEg7AS8ALgmvRX8M1yUcGUldYcBEIQPjzzzM6ceLMPeEE+AdvvdVUs2f3vxM+wMvw88+QUZ650+3163eoTp1e+vrrj1SwYA6fbscTQIC0RyngJUuW+M1aDwYgzF6+XLmzZ1eCf19iCji9ULmyxnfurIrFivl0T2EP8gYQ4JJ89tlnZhF0TW/FDf/jjz+KAk4WV8Vq+34BBBbv0+fP39EiGDZjhllwfQUIpLFyL9RiABSFNUSiAEXpqJziYtu2bdOXkyapvZsiVuFNyslz5/Rq3bpmYSfE175mTZV/4417iIh4C7JVqKDaJUqoQI4certAAQ345BO9nT+/CuXKpVZDhqh+2bIm4yE8m7hokZK88ILKlC3r9VlhLCGlAvqeeeaZu95huwECSoKAAoofkb6YJ09xxY/vHiDcPjaa+QCvWDFHuXMXM8e6M38BAt9DPGEsmBbfgnbJbCle/B2NHbvW67iFPeDy5YtG4yF+/ESmPPP8+ePVtu0IxY37H4dq9+4tat78bZUu/b7ZZWKEIX744QtDavvll43hZmu4LkLz5pG1Nd2nfrJg4iHC1W4BA+vEBxEg4Onjm0VIISzxdty4CUqaNH9AHhwWf8iNLPpjxnRVuXL1lTr13V66jh0riMybSZPWmnXx22/nGXIuWTF40fCQ+SLQNH16P7VvX9svPqA1p34DBDqaJk0aE1umxoBFUsEVw8JOHvikSZPC1d736UkMc1AgAAEtg7Vrt6latbfuag2QVrFiB330UTulTHk7fjd9+lcqUOAFpU+f+s6xAInnnquo8uWLaPDglj6hNU8AAdccLvdffvnFb9WyQAHC9Rs3NPWLL1Q3zMJVv08fU+p5QpcuimaEZ/wzbwChQoUKBgTNnDnTpzHj6vcLILjeOZUv2w0frpHt23sckLAeBMJi7JLxlrCL9NV4j9rWqmXSHP3xKLHDGDZzpsbOm6cONWuqdsmSHi9J6CFjmjQq8W+hrPx16mjhoEEmDFOre3cDEuN6EchpPGiQarZseRc5y9d7dD3OboBgtQ0o+eSTfqpd+7bGSHhpjrePHaDatTt4vAV/AYKnhpinZ5/NpgkTNvqtorhgwQRt2fK9ihatoLlzx6h//zmKFevuLCzSO+vXL6zkyZ9Q797TzTU+/LCB2rcfbTQSJk/+UM2a/cf38dRP5JavXt2htm2Dz+W3GyDAj+jTp57Rv8iRo6BJd3377XSaMmX9PdwTf55Ju9IcAf9nzyb3W6fg8OHf9f77BdSu3UitWrXQlAB3l3o7aVJfk7Uyf/5vOn36TyVMmNSEmtq3HymyT55+OpsSJfovVdvTGHz6aTd1794qIC0TvwECnejSpYuJy4CsXA1WK7tGyIiACDstUIBANkLv3o2UL9/zdz7EK1du1JIlP6hfv6YmdLB37xFDZJw3b4Bixbo7Y6FJkwHauPEXw39IliyR11vyBBAguYC6YbqH3U16azQQgICrnDj05l271KN+fRX619W7+9Ah9f/kE327YYNaVKliRIRI8fPHwgMI7KhJCSLExPPgqwUDEEbPmaOmAwfq94ULlcELU/ejWbPUfNAgHVyyRGldYvCXr15Vz48/VtxYsdStbl2fAQLAAEBELNrfMs/t69VT91q1FPtfpr+vY8VxgBnO8xVcbP/9d9X84ANtmjbNcBMQl+rdqJEp/x3eIpejRg0tW7UqoBQpOwFCqVJPq2vXj+9J+dqw4RvB7u/efcodgFCy5FPq0mW8EVVytY0bv9UXX0y9c6y7+7YLINB2rVrv6fXXG5idnj+GVkPnzpUVN258de/+iV566T8ul9UOi+WIEe10+PBevf12daVJ87Rmzhxu4tUAoeTJH1fixN4Xj7lzR6tkyRw+iZl5uwe7AcKffx42mRq1anUwY/j77zvUvXsNjR//neLECZx4axdAwFv21VfbVbasfxoS586dUv36rwmgULt2R1Wv3laxYt2rZLlz5yYzx4UKlVThwqUNQJgwobtZq8KmXIY3N1OmtNSgQf0CquoYEEBg10RRmu7du9/VL35PyAH3sr/8A28PXyAA4cCBY1q5cpNZ9H/6aZeKFcujPXsOad267Ro3rpPixo2tuXO/UYcOH+nKlWuqVu1/GjCg2Z2uoMI4YMAnunr1ujJmTKeaNd/W+++Hn5bmCSBcv37dLCSEYdCN8McCAQj+tO/vseEBBMo24ykhLuuPSFagAKF8+/Zi8Tt/+bLSpUypllWqqJIb4h87unLt2unnX38VioM5smTR48mSmZgfRL9d+/fr6vXr+rRXL5WA8OfBwnoQJkyYYFIYiTnDYvfHenburMZFipgdfUTbiM8+M+NU5OWXRfon4IC01/Bs39GjqvHhh/ph3bqguxeoB2HRokmaM2eMDh/eYzgEuFQfeeRR3S5W9IvYZb7zTk21aTNcixdP0Zw5o3To0B6T/pgpk+uxO3X27AkT08Vd78nsBAgQVFet2qMqVVr5PX7cFyEGwii+2Jo1S4UE87vv3l6sYMETfgnPCGNMmPCBhg/vHJA+S9i27QYIvJtffTXDLIxp0z6tjh0rqXHjD5U3b2ChUau/dgGEI0eOqHnzDurUaZovU3TXMRBPr127cic915cGduzYoJ9+WqmaNT17OMO2A09l27bP1LNnD18ucc8xAQEEYp+kLbmr0EcqWyBkCG+9DwQg/PXXTfGDxDJ8BHgGiRPHV6ZMaf1CYN765vp3TwCBh719+/YmxICXxR8LJYAAiYnURdL4wsbswrvnQAGCP+Nox7FhAQLetEWLFglOgb82buxYvRA7tq2lnt31gXBGta5d1bNhQ+M18VUXYdLixVK6dMYbFKwFChCCva6/59sJEC5fvqxatVqoVauPFCNGLH+74tfxJ08eNemcr71WVuxQL1++YFzf4W3Ubty4ptmze2rAgB4+qZ1665DdAMG6HnLb3NMTTzylBAmCV6W0CyDwXpUpU0516w61JZPB2/gSXnj++XzKl8/3VPnBg5uZzLw33ijqrXm3fw8IIAR0pSBPCgQgBHnJgE73BBBobPLkyYYFe/78eb/cPaEEECBikjeMop4/FooAAdBHFg8uXUiK/hphifGDBmls6+DSmLxdl8wV5KXHdOigV57zTfUNjkrLoUM1fNo0vzkz7vrzMAIExqFz5+7Km7fWPQQ0b3MWyN8hvJ04cUSpUqXVY49F9xp+2rNnmw4fXmYL/4D+RhRACGQswjvHLoDANdDB+OabHXrvPXsLcrnr/5kzJ4zmhS/ZKZxPNkuVKs/pwIF9AQNAByDY/PSFBxDI+oDc+cMPP/hVfjOUAAJeEngIFPXyx0IRIOBFI83r1Vdf9YtvYY0LZaJLlSihofXqmVTEiLJT584ZMSh2k668i/Cud/D4cU1Zv14f9L7NkA/WHlaA8Pnni7Rjx3m9+Wb1YIfQ1vPhMHTpUlEDB3YzNXbssIcRIBA6rljxPTVtOlyJEvnH5bJjzMNrAzGtpEkvqWFD/0Larm06AMHmWQoPIPAwkRKHnLSryqS3LoQSQIBjgYiIv2muoQgQSGVD3wDZ6EAUMpn3rVu2aEK/fhrRunWEhb28PV/u/t5r8mTlK11aRYoG5poM2+bDChAQBytd+l317bv4nkyEQObFrnMon7xhw0xNnDjBtufuYQQIzMe0adN1+nRCU2ApqhgclIkTO2nYsJ6KGzd8rlF4fXYAgs0zGh5A4FKoQpI/PG7cOJ+JnKEEEMh/h2ORKZN/VTBDESDAt6HfCAMFonNuPXqdWrdW1Tx5lO2pp2x+GgNrbtOuXeo7b55mzJypWLHsiZ0/rADBWkB++GGP3nuvi8/u4cBmzrezIMeNGdNOgwd3DSg33tNVHlaAcPjwEXXo0FP16w82mSdRwdauXaqbN3erRQv/0qjD9t0BCDbPpjeAwOKJB+HLL7+8p8Kfp66ECkA4fPiwihUrZsS0XAtt+TLEoQgQIGIiOU1BF1/TDd2NBQJhHw8erDGtWwfVji/j7O0YlCWbDh6s3iNHBiTN6qn9hxkgQOpu1aq98uatoWeesced720ew/s7YkqPPnpATZv+VysnmPascx9WgAAX6dNPp+nbb7erSZP+9/0dJj20c+dyWrHiS6PeG4w5ACGY0XNzrjeAQIVDpHnhIfi66wwVgDBlyhQjs011w7Dljb0NcygCBIiYSAsjIR2M8YHp07u34p4/r6YVKgQkXhXM9a1z6cekJUv0WPr0qlW7th1N3mnjYQYIDAL1aXrra0MCAAAgAElEQVT3HqH69Qfc110mqaEff9xW06Z9co+aabAT/rACBMaNd6dx4+Z67rkSQZdnDmYerl+/qtGj26t58+p3VcsNtE0HIAQ6ch7O8wYQOA2dAMohE6/3xUIFIFSuXNnkU6MN4K8ORigCBOSz0XsgzTFYg5/SvUsXFU6f/k7djGDb9Pf82StWaNXevRoweLDiBVinw/EguB8BMl3mEbaZ8bVatx7ut7qiv3Pp7vjTp49r3LgO6t+/mzJmvF0TxE57mAEC40iBwtatu6hKlW5BKT0GMyczZw5VpkzxVL++Z7E3f9oPGYDw6qs5NW5cZ3/u7b4c26vXfLNohGcoDPIwUezKF6NM8E4vbfrSjl3HFGjSRCu++eau+DQ5wShEUgaaqpX+GgBhTJMm/p4W6ceXbdtWO/ftM9eFnAhRkSJjdtjpU6fUsEEDdShTRi8+84xt5DFf+vb9li0avXSpJk+fbhvvwPW6eBBmzVqjfPnulj33pW+ReczWrWtUoEBaEyqLCCPVefv2U6pYsYXPIkh29IOUt3HjOqpOnXdVpMjrdjR5TxuIU40ZsyJC2raz0d69K/udhu3r9Xfu3Knq1d9Xt27TlCZN5HGKEF5auvQTHTq0TuPGjTFVJ+2wkAEIEydOtON+/WqDEp+9e/dW6tSpVa9ePZ9ySanWV7hw4XCvw86TSnfErn1R33u3TBn1q1vX6Orfb0Pi98VKldS+c2eTrWAZ9/L888+bXVLxAEoYI0F9/Pjx+317Pl3fum+UMSnEFAgg8nSh/fv3a0CfPno7e3a9U6CAT/0J5iBco3O//Var9+xRx+7dI0TkjP6tXr3aVHT0RzzL232xKyd1mEI6dhoZKREh9kYf8RRR5OfHH/eofv1edxVgsvMeXNtCYXHKlN6qUaOU3n77f35793ztV0R8o7dv324KYdlpxOVLlw5fETeY623e/LOGDRuvcuXaGAnsiDbe4TlzPlKcOBfVrl0rW1QxrT6HDECI6EH21D717d955x0jH03ZTzsMlFmwYEHNmTPHJzli6s03qVNHg5s2VeZ06Qw6fMSOjvjRxl83b+rIiRNqNmSIkqRNq99279batWvv7HKpSVCyZElR7S2iPq5+dDdSDiV/nFARoRU7jcJn9d5/X29ly6ZKxYopejTvZXsDuT5zOnnJEn2zc6c+nTnTtl2Ha1/4eCEIhWeJGi2EoOwyuB+Es0aNGmVXk5HWDtVwZ8z4Uq1bj/i3roD9bzQACnAwfHhTDRnS1za9g8gaJN4DpPsRXguGBBxZ/XW9DmUH3nrrbbVrN045cxaOMG8gnqHRozsoffoE6tu3jy2iZq734QAEH54eyhfzkBI6QOgoWEMgh8qXAI++ffv61ByM+blz5ujM/v1KES+ecj/7rF545hkl8FP/36eL/XsQtQl+3b9fa3fs0KGTJxXn8cf1v3feUYqUKY2XANc6LH5s9OjRpronACHUXmZ/xsQ6FrIpJFOeiYhwR1Pca+LHH+vIjh2qVrSoCTnYZSzaGwAFX36prPnzq87770dIWIH+ws9o0qSJAcTeQm/+3h+LB+3jnbDTM+FvPwI5njlYuXKVJk+eqcyZC6po0Ypeayf4cx2klj///GPduHFYjRrVU9asWf05PUocy7eEei6QnqmYGmpG+HHYsJE6fvyGSpasY6sc882bN0Qlzp9/XqbSpYuqdOlSEfLddQCCD08daUrVqlUTO/+vvvrK5+yD8Jru1q2bqYaJVKcvYQba4qNCX3b+8osmjB+vJYsXm4JDxXPn1ivZsplFJFXSpAE/KBQx2rZ7t8iDX7Fpk3bs3av8+fOrfiOqYea77bl45BEjLYyb/ddff9WaNWvM79ghgvg//vhjH0Y09A/h45UnTx7zPOTKlSvCboiQQ+Xy5VXouefUs359n+soeOrQxcuX1f3jj/X72bOaMnWqKQEbUYBu7NixBhzATxkwYIDatm1r2zghVw44pTgYRZEKREI4xrbOuzTE+zxo0GDNm7dUrVt/pEyZng/qMnwjvv9+sQYObKyPPhpuFg5/CcNBdcDGk/GyVKxY0ciZw90IReNbuXXrVtWv30RvvVVHJUrUDvp9u3DhjPr2ra8sWR5Xv359fV4/Ahk/ByD4OGoXLlww1RhTpkxpRI6CFZBhcS1RooQpm02WQiDGw3fo0CH9umuXDh44oCNHj+rK5cuK9sgjekwSdeAo5ovz8tF//rlziX9Y5CXzc/ORR/T3P//or3/+UYyYMfV46tRKlz69nsmcWfApPJFdSNMkpIDbmPLO/P+aNWuaF/phMO67bt26ZveaIUOGCL1l5vnzzz/XqhUrlOKxx5Q9Qwa9kCmT0qRMGW65Zjp1659/dOj4cf28e7e279uns488osJFi6r4m28G/Qx7umm4O61btxYxaWLu2Ny5c/1W1wxvUHn+eH/OnTunTp06qU+fPhE6BxHd+I4dOzRr1hydPv2XkibNoKxZX9KTT2ZRzJjeQzIsGFTt+/XXTbp06Yiefjq1atasoWR+lnGP6Hv0p31AJZsTNlGoz8JfCfQ76c91I+pYFDU/+2yWtm7dpThx0uiZZ3Lq6aezK0mSFF4vCQGRaqa//rpZx4/v1qOPnlPlypXMBsWfss9eL+TmAAcg+DFqLOqlSpUyoQHc6cHsvED6hBkIMQRC6vPUbV4sdiX8yw+LC9f6h3//BQuPPPqoAQ38Gy1aNLPD4If/76vRLjUIIHRB0oOgyGLpr0CSr9eLascR96bexMaNG91WNY2I/rLwnjx5Usu//lqfz5un0ydO6KWsWZUjUyalT53ahJuYxzPnz4taCj/v2aM1W7YoTfr0KlOhggEFeAyCBbfe7o1ng91fo0aNxIcRW7dunV/1R7xdA6lywloYoP3AgQMRfl/e+hTs33lf8YwAFqZPn63Vq7/X009nU+bMLylDhqyKHz+JYsWKrStXLorCPfv2bdeuXYCCMypevIjKly+nDBmeNBokwXybgr0PO85HUA4AyLeLZ5r3rX79wGsK2NEnO9qgwuexY8c1b958ff45VX2jKVu2PHrmmRxKkiSlKf8MIDh//rSOHPldu3dv1i+/bFSuXDlUqdK7ypMntxInTuzXtzqYfjsAwc/Rw53Jh2/gwIGqVKmSn2fffTilgo8dO6ZJkyYF1c79OpnMA1L9iAMTK0QR0Ndwyf3qs13XJaQCgRWi5v36GJ84ccKEeX7fs0cn/vxTfHz4oLJAwBPJmCmTsmXLdl/i8wcPHjS8A4Aj4ZgZM2YYT5Mddvr0aQPSuQYABFnvFi1a2FKW2o7+2dUGXCUElgijHDx4WBcuXBQVGyF6AvSeeupJI7qGB8sfcG9X/yKqHfg9vF+Ujic7Ck9m3rx5H7jwJe8qHmBI6L/9tkfnzp3XlSuXzVwmSJBAqVOnUubMz4g09/v1XXUAgp9P+W1ZzU8Fh4DwgL81B1wvR/z6vffeEwRE6jOEmkHCIQ7MD3E23OB25d9G5bHgGSBNinSpUAV3ET2+gwcPFqW/AVCEAdj12PWRI2wBMBgzZozJBAKo8kENNaJiRM9BqLaPB4pvCwCQaqmEp9KkSaMUKby740P1nqNqvx2AEMDMUM64efPmpkjPihUrjEBQIIZblJ033gh/qx8Gcj27z+FFJs0PYmLVqlU1fPjwCI+J2X0PgbQHGZPQCuEmO4l3gfQlKp6Dm5z46NChQwOucunLffHeANaJU9uZPunLtZ1jIn4EAAikluNJSJs2bcRf0LnCPSPgAIQAHwpiwZAWQbYoIgbiZibmWKZMGeM9wAUb0YSTAG813NOIwZP6iaAUZLGHwRB0gjdC0S3KPTt29wjAD8ArhmhWvHjxImx4HIAQYUMbJRp2AML9nwYHIAQxB4AE4qw1atQwO8no0ckb8M8ABr169TKeiFAUGDpy5IhB9yhDsmMMRZDj34xJiKCgfcDO5qkoUqLZ33uIqONRNqTWCKA5or1iDkCIqFmMGu06AOH+z4MDEIKYA2LRxD/5EI4fP17Vq1f325OAuxoiF6mTluhQEF2K9FNJ98PdDpGGVCS74syRfiN+XBAyJhwEQkQPEjnMjyFweyghp6ZNmxpSInyUmDFjBttkuOc7ACFCh/e+N+4AhPs+BXIAgg1zgCBM//79zY4ykJx4Pqp4H4YMGWJDbyK3Cfrcs2dPAxBatWqld999N3I7cB+utnLlSsOyDrbM833oeoRe8s8//zSZCohnBfIe+Ns5ByD4O2KhdbwDEO7/fDkAwaY5IM0K8RZY1f5+HAEWDRo00LZt20IqlxsOBSmfkNJYGGCt42J+0AljqLqxQ164cKFNT0/oN0NqGqRN5KcBzJHhWXEAQug/N+HdgQMQ7v/8OgDBpjlAaZFcXdIe4RX4k7Z49OhR46bv0aOHypYta1OPIr6Z/7d3HeA1nu/7JolEIoMYCUHsPZug1erfqNlFtWqv2KGoPUJSiVCpHat2ldaoqCpaLeUnVYoiKBXECBEZIjv4X/er0SDjnO98ZyXvc13nijbveN7n+XLe+3sm8+4ZZMkMBpYbZrAiO1UyRz0/E4MxmaPOYlmSnkqA9UHoajt8+LAq/Uo0kasECJpIyXzHSIBgfN1JgKCiDlg3nxc8zey8RDTNbOCbOHsb3LlzB7t37zbI25cax46OjhZBmqwHwTdH+uWZ784Oe/m5HgJzs1u3bi2sPpKApKQk0dGSdSGY8mqoQFUJEPL30ycBgvH1KwGCyjo4cOAAevToId4uGbSoKTHYj70MmM1Qt25dTacZdRyrgDGwkpXASIzupyWErhYChvxK7CzHEtk8qySIipKsKspmZtpYznSVnQQIukrQtOdLgGB8/UiAoLIOGMnNwD3WiaergQVjNCH2T6Afnz79YcOGaTLF6GPYiZLWgh9//PEZLwQMrA/BRkb5kajfihUrilgTTXWbH+WQeSa6mVq2bCnq5k+fPt2gR5UAwaDiNvhmEiAYXOQvbSgBgh50wIAt9lmgVeC3337TuJkPu9/Rh79//349cKX+ksy+YCpbVl88TcwsIMQa8vnRzXDjxg3R+pq6ZeZGQScCYcbOsKQya+YbkiRAMKS0Db+XBAiGl/mLO0qAoCcdsJEOXQ00ubIcrKOjY5478fJhh0QChKpVq+Y53tgDGjZsCG9vb3h5eT1jhY1l/u///k8UTaIlIb8RdcOMFf5kFc2CTHzGWUmSgarGqKIpAUL+fvokQDC+fiVA0KMOWG62Y8eOIsqfXQ/zIjahYVVGvpWzEp0pEzvq8Y2RjVRYLz2TaILv37+/aKZDa0h+S3lki2e6jggQ2CCoIBMbVTGlkXUhjFEgSwKE/P30SYBgfP1KgKBnHbC6IPPD6asnWMgrwnvTpk0iBoE1Edzd3fXMnfLlWbuBgWksivNiR0sGq/GszMgwl4BLTSVB3TBbhRU089Klpmua47jM2hcsE04AbAySAMEYUjfcnhIgGE7WOe0kAYKedcDgwyVLlsDf3x8M6mNaYG7EL16WXmZvB5rvTZUYd8B2u+fOncvWSsCUR9aFmDhxoqkeQRFfDMirVauWCEItqJTZxZPprYzFMFYbXgkQ8vcTKAGC8fUrAYKBdDB48GCEhYUJ03Re5lhevAQTzA4wREU6bUXAHhRM4aRLhNH82RErDbIcMVMglTSx0pYnQ4xnxH6TJk1EzAXPVlDp4sWL6NChg0j1ZP0DY5EECMaSvGH2lQDBMHLObRcJEAykAzZl6tatGywsLER8gZOTU44703/fvHlz0N3A1EdTI1o53n33XXEepmVmR+zyyNiESZMmoV+/fqZ2BEX8MIiUnQoXL16c76tF5iYgpjOyzTerJxoT/EmAoOgxNptJEiAYX1USIBhQB+xyR588o+DpcsjJh00TLsfQl8/CSaZG/MNlvQNaCWhuz4noIjl27JhI9cwPwYp//fUX2rVrh0OHDqFGjRqmphaD8MPg1Jo1a2LXrl3ChaRPoqWK1UVpsWBRLgK027fvICYmBunpGbhy5TKiou7Cw6MpbGysUaxYMZQpUxoVKpQXLcjZirt69eomaYXTp9zMaW1aIWlZZVwPdRwRcQOxsfHgCxU/p079iXr1GogXKmaEOTk5okIFN6FffphqnNvLljnJwhR5lQDBwFphrXq6GwgQcuu7wIqMvIxCQ0Ph6elpYC5z344XJVPbmKWRW6Aev9hZkpjZDK+//rpJnUEJM4zWZ5llWkdsbGyULGHWc9h/gq6llJQUYd3ihawGcb3z5y+Az1Vk5B3ExaUgISENyckZsLGxhbNzGdjbF4ednRPs7OxhbW0rLHFFiliLcuZpaal4/PiR+JmU9BCJiXF4+DAecXHR4mNlZQE7O0s4OdnA2dlRAJxGjRqiZMmSarAv19BAArz8T548JVqBx8Y+RHx8GpKS0vHoEVCypAscHUugWLHiKFbMEdbWRWFlZS10zJ+PHmUgIyMNrC+TmposdEsdP3gQi/v37+Lx43TY2lrBwcEKjo5F4e5eCY0bNxQAkWtIUi4BCRCUy07xzBUrVojgvb179+ZYjY/9GejvZlGeBQsWmNSDvn37dpHexiC1vIg+av6hEhCZO/HcPj4+4o2nIBItQayYyAwOusB0JX7hE2gsWRKMqlUbo2XLbqhcufazC4LxN4UL6/YFTytERka6+KSnpyI6OhKhoXtw6NAONG5cH76+M/J1WXBddaTrfGZjjR8/EUlJGXjrLTZ1awU7Owdx8VtaWqli3XkKIKjfNKSkJOHMmf/hwIGvkZISB3//z1R5VnWVg7nOlwDBCJrjGxPN7/zj4aVDU1l2xOp0DIijm8GUeht8+umn4g97zpw5eUqP5vghQ4bgxIkTqr1x5rmpngYw9oCWnYLa5jkzlmTdunU6S5jWmLVrv4Grax20bdsdTk6GfZvnhXLixC84ciQEnp7VMXiwl9k/nzorRcUF6A5auHAJoqIy0KlTP1StWk/F1TVb6saNfxAS8iVsbdMxZsxwVK1q2EqfmnFp2qMkQDCSfhgRz0qLNJEyYyE7Uz3fftg6mamRDPYzFeLb44gRIwT/eRE7PrLaHgtAcY45E4ERg/ICAwPN+RiKeD99+rRo58y0Rl2rfLLaZu/eg+DntwXOzi6K+FFrEk3W33+/Fq6ujzBq1Ei1li3Q6zCGaubMz1C9eidUr94QFhaWRpTHE5w//ye++y4IO3ZsNiIf5rm1BAhG1Bv7FdCXzw8rLWbn1968eTNGjRol6g2UKVPGiNw+3To5ORmVKlUS6Y151XTIZJZm+S1btggrgjlXH+QFyewNdt0sSEQwyxLgbE5Fd5euqbdz587F4cNhmDp1FaysihhdlBcu/IkDB5Zg7dq1RuclPzBA9+jQod7o2tUHJUu6Gv1I8fH30b//a7h27aJ4IZOkuQQkQNBcVqqPpIWAQYtMF+QXL3++SIwaZywC38B50Rr7Aafbg5YDxh+8WEExJwEx66FBgwYg2GH+vLmSh4eHSHHUd/S+qcmHeqOr6+TJk6pkbxDwpqU5i4Czfv0mi8A0Y9G+fZvx00/fonx5e5Mvb24sGSnZl99V+/aFYsgQX9Sv3wyFChVWsozOc65fv4SNG+dh//4tSEx8oPN6BW0BCRBMQON8c2FuOYMWsytNzDLNS5cuFcFhxo5FCAoKwldffSVSF+3t7TWWHvszME2J5zBHIphj7wnqgFHwBYWYhkY3F+s/qNXOmQChT5+FOHRoFzZtCsIbb7yDJk3aiGh2ggVmLuiDGHfAS4JvlBcvnsK+fV+jcuU68PKajuXLh0iAoKLQWYK7Zs0P8NVXQbC2thE6dnevCQeH4rC1LaZz8Gl2rNK1kZyciISEONy9G4GDB3fi6tULGDTIB35+A/DPP+dUPGHBWEoCBBPQc1JSkiitfOTIERG0+KKPl+llTBdk7wNj+/GZ5kf69ttvtbJmMIWta9euoC87r0qSJqCSl1i4d++eMLEzuK5ChQqmyKJeeGIzLrbvZnCmWvnmBAh9+y4S/DLqnJf11avncffuDZGWyHicSpVqoWzZyihbtiJKl3aDra29Vs8bUx5jYu4iMvIabt++hoiIS7h3LxJOTs4i7qFixRqoWrU+XFyeBggvXNhHAgQVnyAChBYtRqFoUTsh+ytXwsCgwbi4e0hMTICbW2WUK1cFrq7ucHWtgOLFS2kFGpjWSiAQGRkhdHzrVjgiIi4Ll1WJEqVRtqw7qlSpKz6MgejWrR7++eesiicsGEtJgGAiembKF9skV6xYUXxRvejnpc+fX6ysLaBJ62h9HOvBgweCR+bCa1tqmEVPGGvRtm1bAYbMjdicasKECaL8dalSpcyNfUX8smImU1QZIDtu3DitLujcNswKELIbd//+HZw5E4rLl//C5ctnxAWTlJQovviZ7UALA3Pl+WbKL3++NTLVjTUQEhJiERMTJdLeXF0riuj5atXqo1atV1CtWoMczyABgqJHJMdJmQAhO/cRXUthYX/g0qWn+g0PfwoOHRycUKJEGdjaOggd8zuQAIPj+f2YlJQg/k3gl5AQL2onMC2WQI/BkHXrNsnRXSUBgjL9SoCgTG56mcVqYiyexCqFs2bNQpEi/wVw8Q2W/ns2C2J6oTE6CTL6nBc8Aw6bNm2qlQxool+4cKHIAGAdAWdnZ63mG3swef/hhx9ExolaBYKMfabc9qe5lqWM2d6aZZXVdG3lBRCy4ysTACQnPxSXBQHAo0fpIJ98a+TfA3PrCRxobSB40IYkQNBGWnmPzQ0g5DSbuk1MpH5ThI6pWxZIIgjMLIxlYWElimXZ2Nhp9R0oAULeOstuhAQIyuSmt1msecBWyatXrxZv6lmJwWJTpkwRDZ80DRBUk1G6QAhgbt++rSiSnWVz3dzcsHHjRqM2+VEiEwbp0Qry9ddfa/XFpGQvU5jD9FRai5hdk+lWUosvJQBBrb1zWkcCBHUlrAQgqMvB86tJgKBMuhIgKJObXmetWbMG8+fPFxdpw4YNn+3F9KH27duL6oq+vr565SG7xXk5soIiAxSVEmMo2Ixq/fr1Rm30oyn/jP+gJYcWEwbq8a26IBCDURmQScCqduaMBAj5/wmSACF/6FgCBBPUI4EAi/LwQj516pR4W2fNBL7RMc2Qb/H8Sf+wNpR52WkzJ+tYxg7wsmAeu1Ji2iZBD4MVzcHNMGDAAFHxknUo3n//fVEVkmmnphhoyedGjdrzrIJXv359rFy5UnXrAZ8bCRCU/vWYzzwJEMxHV7lxKgGCieoxKipKAAFeyIxN4OXEHHwWKuKlxbfw7777TqQOZhL9/JGRkTh37izCw68gKuom4uPvieYmrENfuHAhPHr0RLy504/n6FgSJUqUE81NmF5ZsaJ7rhcMMynY3pkFg5QS/YofffSR2G/mzJlKlzHYPHajpMWGfJP4bwYqGqvgE4sWhZ07h0uXLuHW9euIu3sXCTExSElKEjzyQ0BpXbQoHJyd4VSmDMq5u6NmjRqoW69enk2m6Pv95JNPRM0DVk3UR0CsBAgGe3yNtpESgMCURGav6IOki0GZVCVAUCY3vc/i2+DYsWNFkBipVatWogcAaw/QmsBiPXRBsHkOiYDC13cmbt++ivfeexUeHjVF5zo7OxsULWoDS0sLATYIIh49eoyUlFQkJqYgLi4BYWFXsXPnUWRkWInGKo0aNXrpfJzn7u4uQEnjxo11Oj/dC2xnzW6Qpm5F4LmZdhoeHi4qWRIcZCcfnQSiwWQCw40bNmDbN9+gea1aeMvDA+VKl4Z90aIoamODIlZWsCj8tBjNo8ePkcao75QUPExKws2oKOw7cQKHzp5Fv/790X/AgBx3ZJZMmzZtRKVMfRWEUgoQmNa2ZMkUhIUdE2mKvEyYuZCWloIuXQaLmgZKScYgKJVc9vOUAIT588fC2ztQL9U1JUBQpl8JEJTJTa+zeCkx/5wmfbZJ5X+zoRNz8Fmsh+Tn54ezZ88iICAA3323Fb///guGD/8ALVt6wMJC+6pl3OOvvy5j6dJtcHauiG7deou3fFobSDSzM1iNb5UECroQgxx5yTKOYujQobosZZC5tHjwwhw2bJjIxMiUiSE2p6WINQj2bN2KBhUqoE+nTiiuRYGqrDw+SEzEih07cDI8HB/07o32HTo8l5HBZ4BNxJjOSvCpL1IKEMhPbOw99O3bFJ9+Oh9vvvmeYPHOnQiMHv0ORozwxxtvvK2IbQkQFIktx0lKAMLq1bPw5pvvo2rVuuoyA8g6CAolKgGCQsHpexpNvXxrZUEipjWyAyRb42aWY6Yvf+zYMbCwSMHAge3h6VkHRYro3hSFlosLF65h48b9sLIqgxkzZooLkZYMgpbdu3erYl5nu2sCHJ7P1NMGCWTYrvr8+fM6NyrS5rnh2/xsPz+0r1cPrT08UKp4cVUCBqNiYrAnNBRbjx7FZwEBzyxCoaGhwv3DNFY12jnndFZdAMKDBzHo3dsT48YtfA4MrFgxEzduXMKsWV9rI+JnYyVAUCQ2VQHCzZtXsHjxJHzwwVB4erZS5VnPZFBaEJTpVwIEZXIz6Cya4vmmTd8yc/H5VhkUNBf29omYMiVnc7EuTPJtcv36Pdi79xT8/ecJa0bRokVFmWU1otpZhIf9GWiypwmfwCS7ZlW6nEGtuSxcxcua1hpDEMHhrpAQBH/+OZZNmoTqeqrceOf+fXy6dCl6DRmC5q+/LipdEqwRIGStwaH2mfUBEBYuHC8KJk2aFKyIXQkQFIlNVYDAxVhZc9UqP1HwqkWLd+HiUkGUZra0LCLio1jnws7OQevvIAkQlOlXAgRlcjP4LF6ofNsuXbo0vv9+Oz74oAlat/ZUxWqQ02Ey3Q7Ll+/G1q17RQ0GZleoRQy2ZK1/Ah++ubIttCnSH3/8ISpcGqKbJoMMF3zxBZIiIjCqa1c42NnpVST3YmMRvGMHzkVF4WhoqHBn6LvXhBoAgS4GuhMePnyA33/fjydMNyQAABh6SURBVN2718Pbe7aomqiEJEBQIrWc5yhxMWSulp6ehsOHv8fWrcGiPHLNmo0FUHB0dBalk9u27aZ1C2kJEJTpVwIEZXIzyqy4uDgMHNgLkyd/DA8P/UT7Znewa9ci8dFHUzB37iLR9ldXCwKtBYcOHQLdDGwBnUllzaCEMS9UBgDqg2g5mO3vj8Tr1xEwfPizoEN97PXimoHr1yOqcGF8HhSkSqpkbjyrARAaN26BGjUaiouiSpV64H/rQhIg6CK9l+cqAQh8IYmOjkRw8FSx4Dvv9EOdOk2E1SAnYoYW2zjzZ6NGb+Q4VgIEZfqVAEGZ3Aw+i1UIp06diO7dmwnLga6XtLYHuHr1FgIDv8H48b46++EZBMeCQ/PmzROxFZn0JAtY0JY/Q41v1KMHTv39t16227BuHaLOncOYbt0MCg54mMTkZBAklKlfH8NHjNBrtUg1AMLIkYFo0+Zp4zA1SAIENaT43xpKAML588cRErIGXboMEZagvMrJs0HTtm3L0K2bN9ici9ak2rU9sj2IBAjK9CsBgjK5GXxWYOBseHo6oXXrJgbfO3PDU6f+RlDQTmzc+I0qAIUZAWwClJGRIbYoyACBAZuTR4zA1sBAFLW2NpqOB82ZA6+xY9G0WTO98SABgt5EazILKwEIy5f74KOPRoiGTZqQt3c7AQjodmCDrk6d+oh20tmRBAiaSPTlMRIgKJObQWcxc+DIkR2YOXMQbGz+a+BkUCYAPH78BCtX7kBUlDWmTp2msyma1gOW9GWWAM3rBRUg3Lx5E+NHjsQcLy9UcHExtFqf2+/q7dsI3LYN85cte64Il5pM6QIQ2A66b98mGD48AO3afawaW9KCoJooxUJKAEJw8DQMGeKr0fcKOzv27PkKlizZK9qBs2FXbiQBgjL9SoCgTG4Gm0XXwvvvv419+4Lg6FjMYPvmtBGLLI0atQCDBo1Dw4YvF1TSlkHGIzD4kS6Hx8ePazvd4OP14WJYsngxahcpglYe2ZtHDXlI+oHX7t6NK2lp8NdT1oZSgBAfH4O5c70RGroX5ctXQ9++E9CqlfKqnlnlKgGCuk+ZEoDAVs65xRtk5ZDdPb283sCiRT/C3t5J1Mfgh+2fpQVBPV1KgKCeLPWy0vLlwXB3f4z27V/Vy/pKFj19+jJ2776IadPUKZV89+5dUb3v7Lp1Stgx6By1AQIrYE7z9sYXo0ahWNGcg7EMecj0jAz09PWF77x5qFU7+y9cXfhRChB02TOvuRIg5CUh7X6vBCBotwNEcGJ4eBhKlSqHJ08eo3ZtT1haPi3s9iJJC4K20n06XgIEZXIz2KyRI/shIGAA7O31m+6mzYHS0tIxdOgczJy5EBVUytFv2bIlfp03Txs2jDJWbYAwYtgwdKhZE2+//rpRzpPTpif//huHIiMxRsW01sy9JEAwKVXrhRlDAAQyntkjJa+ARgkQlKlZAgRlcjPILBYRunDhZ4wd28Mg+2mzyYEDx7F9+2ksXbpMlYDFgggQ2DVxQM+e2BcUlGfEtja6efzkCU5euIC0jAy8Vl9ZXQD2cJi+bh3mrVypkU9YG/4kQNBGWuY51lAAQVPpSICgqaSeHycBgjK56X0WfcFNm3pi8+bpqFLFTe/7abtBenoG3n57Itat2wxXV1dtp780viAChC2bN8Pq1i180LKlzvLLusDpS5fw7pgx6NG+PQJHjlS0Np+/ORs24LWuXdGihW41Bl5kQAIERSoxq0kSIJiVunJkVgIEE9XjlStX4OXVA7/+qqx0bNZjJSYmIyLiDsLCwhEVFYuHD5Nga2sDBwc71KzpDnd3V5QuXUJrSQQH70C1am/irbfaaj33xQlKAMLRM2dw8do13IuJQQlHR9j/2/raytISFVxdUcXNDSUcHJ5tlZyaiu8PH8bd+/dRxNLyaW8DdkB88gQpaWmIffBAVC7kxZqTyVJNF0PAZ59hYLNmKFNCe9nnJvBZq1fDb9UqjOnRA3NGjVKsmz/CwrBwzx5s2rJF8RrZTZQAQVVxmuRiEiCYpFq0ZkoCBK1FZpgJ27ZtRWzsGQwa9L5OG/7xRxh27/4Nrq6l8Msvx/H339cxblxv3LsXi9DQs/j11+OoWNEVY8b0QM+eHVG4cCGN9yPgOHQoCsOHj9B4Tk4DlQCEqNhYARA+nDgRSydOhMe/AXXxDx/i9N9/Y19oKKYNHIjalSuLbTMePRLjP54yBRVdXPD56NGwtrICTfIJiYnCLL9k61YcWrkSjsWyzxhREyBM8fbGlG7dUOxfYKOzEAFEx8UhcN06bPzhB3Rv3x4LdIghIGiq37s3Tp4+rWpDLQkQ1NC0aa8hAYJp60dT7iRA0FRSBh4XEOCPvn1fQblypRTvzAt84sRF2LkzCJaWFvDy+gzp6Y+wZo3Ps5bQly5FoEuXccKy8MMPC+HpqXnUOuesXn0Ukyf7KOYxc6ISgMC59+Pj4dG7N3YvWIA6/wKBzDV/OHIEvqtW4eCKFbC1sXnGY8shQ1DR1RVfTp8OSwuL53hf/M03eLdFC/H77EgtgEAT/ri+fTHX21s1Hz8BUO/p0zGmZ090HjcO7735JoInTdJJN919fDB1zhzR+lstkgBBLUma7joSIJiubrThTAIEbaRloLGsDTBjxjT4+LyHIkWyT9vRhJWjR/8SjZCaNKkjhjdr1g8dOrwGH5/BKJTFUHD8eBiaNx+IoKAxGDmymyZLizHx8Q8RFLQLfn5BGs1hwymWWS5fvvxL4/UBEB4kJqLDyJF4rUEDfP7JJzkChNS0NNAaUb5MGVy4elVYGupVraoKQLh06ZIoTf2iyyIiIgJrAgIwc9AgjWSnySAComu3bwsXSf2PP0bbV1/F6unTNZma45igTZtQ56230L5DB53WyTpZAgTVRGmyC0mAYLKq0YoxCRC0EpdhBrOq4KxZ0zFtWmdYWVmqsmlaWgYcHVtgxYqp6NPn5a6JtWp1xUcftYGv71CN90tKSoGf30YEBi7XaM7p06fh4eEhKieOHTsW1tbWzy5OfQAEMjXq88+Fq+F/a9eipKOj4PNFC8KVmzdFf4WurVuDb/b8qBWDULt2bdHgyt/fH05OTs/W3b9/P8J/+w1DO3fWSHZ5DSLImbN+PSb374/U9HTU7toVr9arh28CA7Od+ujxYxAj5pUetvvIEcQWL47effrkxYLGv5cAQWNRme1ACRDMVnXPMS4BggnqMS0tDQEB0zBtWlfhGlCDTp++hGbN+uKnn5bhjTcavrRknTofYfLkfujVq6PG26WmpmH8+KXw9Gyn0Zzr169j+r9vtGyd3KFDB3F5enp6YsiQITiycKFG62QdlJuLgeP816zB0m+/xf6lS1G3SpVnAIH/GNa1q2hStPXnnzHgvfcEQMiL6GIYO21aXsOe/Z69JlgMyd7eHm3btgWBUJMmTXDx4kU8uXYNfTpqLu/cNl0dEoKSTk7CrcDLv3rnzqhVqRJ2fP45ilg9b4WihWrB5s1wsrfHwPfey/UsDAQ9l5qKwUM1B455CUcChLwkZP6/lwDB/HXIE0iAYIJ6TE1NxezZtCCoBxC+/HInxoz5Ajdu/AAnJ/vnTn3/fjwaNuyB3bsXoEGDahpLhAWThgwJxM6dhzSaw4spISHhubFMkfTy8sL27dsRtmGDRutoAxD4Vv3Fpk3Yu3gxGtWo8QwglCtVCksmTsQT1o3/8ktRL0BTgHAtKkpjPulSySzmwklFixZFv379ULJkSdS0sUGPdpqBq9w2PHH+PCYuXgwfLy9k+o68/Pzg5uKCXV988Sy7I+saAWvXom2zZvColXvb8JMXLyI0JgYjFKZLZsf3smXLcOrUTQwb5q+xHPU58O7dm9i50x/Lly/T5zYFZm3+nY8cOQY9ewbA1tb45eFZwnnQoDdx5swxVWq2FBhFSoBgmqp+akHwwdSp6rgYWLNgwAA/2NnZYPnyKc8d+mm8wwo8eJAoYhC0cWmkpKRixox1mDNnpUaCpIuhUaNGqFatmrAcfPjhh+InXQ36cjGMW7AA23/5RWQmZDZCetHFcDMqCmcvX0aH5s1FuuO9f+MRsjuUtkGKPGtycjLeeOMNdO7cGR07dhQZASEhIbh/6hQGvPOORrLLaRDjLKYGB4OFjbICkd/PnYOttTV+XLwYLs7OYjpdJ8xyYBoogzcDRozIs3PkLydO4JqlJQYMHKgTn1knEwAPGzYCLi6N0KLF+6JUrjEoPT0Vx4//gl9/3YgZMyaiQYMGxmAjX+753Xc7xYtDmzY9UKNGI1hYqOMq1UZYjx8/EuWYDx7cBk/PSujXTz03mTZ8mPNYaUEwQe2x/bGv73T4+Lyv1YWd01GY0tiq1VCEhHyBypWf/zI+ePBPbNmyT4ADOzvtegE8fJiM2bM3w99/qUZSvHz5Mnbs2IFevXrBxcXlueh9fQAE9hR4e/RocQnS1J7pb38RIPBipd+e4yKjoxF+6xaa53BZaAsQ5syZI4CBu7s7ihT5r+PcsWPHcHTrVozp3l0j2WUdxHTMxv+++c9YsUKkd3Z6oVTznHXrsGjLFvy6YgVquruL6Tt++QU21tZgGujBEyeEBYVgITf6eu9eWFWtig+7aR68qsmBCBJ++ulnBAbOR6VK9fHuu145NtrRZD1txiQmPsD+/ZsRErIavXp1Q58+PeHqatwumtrwbw5j+eIRHn4VixYtxYUL19CxY180a9Ye1tb/ZRPp6xxs5HTq1GF8//0aODpa4pNPhqFx48YiYFuSdhKQAEE7eRlkNN/0ZszwwYQJ7VCsmHaXdnYMHjt2DuPGLcDhw18++/W9e3E4duwsTp78G6NGdXvJ7aDJQemaCA7+GdOnB2gyPNcx+gAIv506hU/mzcNXfn6o82/8AZnILc3xeFgYEpKS0MrTM1t+tQUIOR06KSkJM4YNw9yRI7Uye8Y8eIA3Bw3COy1aiMJO1kWKYN7o0S+lax45fVqcc8WUKXi9USP8ff06tv38M9bOmIEbd+8ieNs2BHp757n3uEWL0HnwYDRv3lxnHWe3AJ/1ffv2Y+fOnXj4MBUlS1aCs3NFODu7ii59xYo5wtbWXnT54+ViZWWdK8+8HFJSkpCWloLk5EQ8fBgvPnFx9xAdfQMxMdcRHx8pmoN9+GFXFC9eXC/nkos+lQD1y3gbWhTOng2Dk5MbSpSogFKlKsDBobjQr52dA2xsbJ/puHDhnOOuCOapW7oNUlNTkJj4VL8JCbG4d++W0G909DVUqeKOLl06C4tlXoG4Ulc5S0ACBBN9OpYuXYKGDW3RvLluZk/+gXp5zQLjBQYOfA+RkdEgYChe3B6dOr2OunWrwsYm917qOYno9u172LTpNMaP1y3XXlzaCps10WTOS3vnF1/glZo1BasM0mPmwtwNGzB1wAC81bTpc0do1q8fqpYvLy7LrG/QlyIiMGLOHPgPH44mdZ6mhr5IagEErjt+4EDM8vISl7ymlJaejpFz52LNrl0Y+sEHCBw1CnZZajxkrsNx/X19RWBml1atMHHRIkzz8hIxB8u2bYO9nR16aZC6+Nrgwfg2JARubvov9x0XF4fo6Pu4f/8+2OHz5s3biIi4jdu3oxAf/wBMk01KYktgG/E2yEuFlJ6ehrS0VHFhWFhYwNHREU5ODihZsjgqVCgLN7eyKFvWVcR9ODuXQKlSpVSrPaGp3uQ4CFcbdUsdR0ffw82bkULHN2/eQXR0rEiBpp55oRcpYi30+/Ryf4Lk5CQQ/NHy5OBg/0zHbm4uKF+eOmY12NJwdnYWerazM53mduasewkQTFR7R44cxrZty7FgwVjFHBIcLF36LTZu3AMrKyuUKVMCr75aD507t1Slv8NPP/2Be/cc0KNHT8U8Zk5UAhA27tmDkIMHxRtxudKlRWllEt+sy5YqhSFduoj/n0lxCQkYO38+wq5cgV3RoqhfrZqI8CegiIiMxK2oKDg7OYniQqyJoG+AMHPSJHzSrh2KZykHrakgo2NjBa+Fsha0yGEyXQpdxo/HT8HBoOm37YgR+GzYMLiVKQP3XPpo3Ll/H23GjMHZc+c02kdT3nUZxzdIWl+YCswLh884XTc2Njbiw+dcknlLgCCAcViJiYnieeUzzguf4I/xO5IMJwEJEAwna612Ipr28GiI06c3ir4Jpkje3vPh5TUODRu+nDapLb9KAIK2e6gxXk0LwqKFC9HK1fVZ+qUa/GW3BgHQ7LVrRaaGReHCWLBlC95r0QIftmkjgFJO9O3PP+N6oUIYP2GCvliT60oJSAmYsAQkQDBh5YwdOwZt21ZB+/avmhyXDHzs1Gkyjh4NVSX4pyAChCNHjmDP+vUIULHGQG4PCrMz2GOCbpWk1NRsXROZ81lNcvT8+Zi9cqWo4SBJSkBKoOBJQAIEE9b5rVu3sHDhNPj7D1Ulm0Gtoz55AsybtxHlynmq4l4gXwURINBU/naHDtgwaRLcsrhC1NKTLuuw4+Wi/fvhP2+eLsvIuVICUgJmLAEJEExceVOnToS3d2u4uj7NZTcFovVg0qRVWL36G9XYKYgAgcLbs2cPju7cic+GDBGlj02Flu/YARcPD7yvUiloUzmX5ENKQEpAcwlIgKC5rIwy8sCBn7F//9eYPXu4Vq2Y9cnspk37ULiwO7p376HaNgUVIDDIbsywYRjz9ts5dpBUTcgaLsRsjvFffon1mzaJ/hGSpASkBAqmBCRAMHG9M2qbhVx6926Odu2MH4tA60GPHgHYvn0nHBRE3+ck7oIKECiPg7/+ioNbt2KmitUKlT7WLC41cNYsTJ47F7XyKMOsdA85T0pASsA8JCABghnoibnDkyePgo9PL7i5/Ze2Z2jWY2MT8Omni+HlNRavvaZu4ZyCDBCY0jVxwgQ0KV0a3dq2RWENUhf1pfvvDh7E1cePMXb8eH1tIdeVEpASMBMJSIBgJoo6ePBXfPPNSgQHf2q0nPQFC7bA1fUVdOv2sepSK8gAgcJkwKL3oEH45J130KCa5g2z1FTE6UuX4LNxo3AtyAqDakpWriUlYJ4SkADBTPRGX/WyZcG4du0Epk8fAHv7p1XkDEGpqenYvHkvzp9PhK+vn+hIqDYRIIzWsXGR2jxlt96YoCDRq0EfdOXKFfhNnoyp3bujeoUK+tgixzXPXbmCWV9/jcAFC0TfCElSAlICUgISIJjRM8CqYl99tQFhYb8hMHCEwYIWlyz5FnFxdhg9eqzeKpmdOXNGlNI1B2JnRn0QQWDYuXPwGT8e0/v0edaeWh97ZV0zLDxcgIMZAQGoKeMO9C1uub6UgNlIQAIEs1HVU0YZtLhixXKcOnUIU6b0hru7q95OEB0dj1WrdiIpyQHTp/s8141Qb5vKhXHjxg1MGz8eXm+9haZ16ohy0PogVlj8+Y8/sCgkBEtWrEClSpX0sY1cU0pASsBMJSABghkqjm+aoaFHsWZNMNq0qYuuXVvD0jLnDmhKjhgaehZr1uzDu+92R9u27WBtba1kGTlHoQRu3ryJNV9+iZQbNzC1f/9cSyIr2YJtrf3XrIFLrVoYPHy4aHQjSUpASkBKIKsEJEAw4+fh4cOHmDZtClJS7mLSpF5wcSmpuDMjxZCRkYE7d2KwatUunDhxFcuXr0L58uXNWELmzTqB4K6QEMzy9YXvgAFoXr8+HOzsFAepcr34xET8ERaGxSEhGD1hAlq3bm3eQpLcSwlICehNAhIg6E20hlmYX/rHjx/Hvn0/Ijr6HzRuXA3t2zdDmTKaV15MSEjCgQPH8dtvp2BrWxYtWrRGmzZtZB91w6gwz13Y+nj3rl048/vvKGVjg3def110otSkk6MAfo8e4czly/jhf/9DTEYG6nh6omOnTihbtmyee8sBUgJSAgVXAhIg5CPd06KwceMGLFu2FGXLlkCXLm+iadO6qFatvLhMnl4oT8BeCrduReH48fPYtesIjh07j169emPUqE9EL3VJpiuBY8eOwW/mTFy5fBkftmqFlo0bC7DAroyZgIGgMTE5GUxb/OXPP/H9kSOoUr06pkybBk9PT42BhelKQXImJSAlYAgJSIBgCCkbeA+6Cq5evYqwsHOIiIjA/fsxKFToCUMcAVHxv7Do0Ofm5oZatWqjZs2aMgDRwDrSdTsWzzrz11+4Gh6OyDt3kJ6WBoH8SIUKwdLKSlgIKlepgnr16sHZWXOLkq68yflSAlIC+UMCEiDkDz3megq+UWZ+Mi0JmpqnC4B48sURM/X7FB9kWovyxdHkIaQEpASMJAEJEIwkeLmtlICUgJSAlICUgClLQAIEU9aO5E1KQEpASkBKQErASBKQAMFIgpfbSglICUgJSAlICZiiBOiyDA8PhwQIpqgdyZOUgJSAlICUgJSAkSTAsv6dO3fG/wMQ9GddwN8YNwAAAABJRU5ErkJggg==;" parent="R8ruuHIf-GGGvvebYhL_-1" vertex="1"><mxGeometry x="20" y="440" width="520" height="336" as="geometry"/></mxCell><mxCell id="R8ruuHIf-GGGvvebYhL_-4" value="Data flow&lt;br style=&quot;font-size: 17px;&quot;&gt;Situation Assesment&lt;br style=&quot;font-size: 17px;&quot;&gt;Desire &amp;amp; Possibility Evaluation&lt;br style=&quot;font-size: 17px;&quot;&gt;Moral Evaluation&lt;br style=&quot;font-size: 17px;&quot;&gt;Ethical Evaluation&lt;br style=&quot;font-size: 17px;&quot;&gt;Database&lt;br style=&quot;font-size: 17px;&quot;&gt;Mental State&lt;br style=&quot;font-size: 17px;&quot;&gt;Function&lt;br style=&quot;font-size: 17px;&quot;&gt;Ontology" style="rounded=0;whiteSpace=wrap;html=1;fontSize=17;align=left;strokeColor=none;" parent="R8ruuHIf-GGGvvebYhL_-1" vertex="1"><mxGeometry x="332" y="453" width="240" height="180" as="geometry"/></mxCell><mxCell id="R8ruuHIf-GGGvvebYhL_-5" value="" style="rounded=0;whiteSpace=wrap;html=1;fontSize=17;fillColor=none;strokeWidth=1;" parent="R8ruuHIf-GGGvvebYhL_-1" vertex="1"><mxGeometry x="300" y="452" width="270" height="183" as="geometry"/></mxCell></root></mxGraphModel></diagram><diagram id="ADdy9XyRe6uqLbAlDAPx" name="Original-Simple"><mxGraphModel dx="673" dy="633" grid="1" gridSize="10" guides="1" tooltips="1" connect="1" arrows="1" fold="1" page="1" pageScale="1" pageWidth="800" pageHeight="400" math="0" shadow="0"><root><mxCell id="0"/><mxCell id="1" parent="0"/><mxCell id="5awWhunC0pSESNitrUqh-1" value="" style="shape=image;verticalLabelPosition=bottom;labelBackgroundColor=#ffffff;verticalAlign=top;aspect=fixed;imageAspect=0;image=data:image/png,iVBORw0KGgoAAAANSUhEUgAAAdsAAAF7CAIAAAAVBLaNAAAgAElEQVR4AexdB1hUxxPfu6MevStFepEuICIIoiKIAlZU7L333luiEjXRaKKxxG6ssYGoIE0RLDQR6SC993Jw/f8dz/95ud6o7n5+yb7Zmdnd3z7m9s3uzqKoVCqACSIAEYAIQAR6AQLoXtAG2ASIAEQAIgARoCEALTJ8DyACEAGIQG9BAFrk3jISsB0QAYgARABaZPgOQAQgAhCB3oIAtMi9ZSRgOyACEAGIALTI8B2ACEAEIAK9BQFokXvLSMB2QAQgAhABaJHhOwARgAhABHoLAtAi95aRgO2ACEAEIALQIsN3ACIAEYAI9BYEoEXuLSMB2wERgAhABKBFhu8ARAAiABHoLQhAi9xbRgK2AyIAEYAIQIsM3wGIAEQAItBbEIAWubeMBGwHRAAiABGAFhm+AxABiABEoLcgAC1ybxkJ2A6IAEQAIgAtMnwHIAIQAYhAb0EAWuTeMhKwHRABiABEQAJCABHo6wgQicTW1taOjo729na2fSGTyRgMRlFRUVpaWkFBgS0PJEIEegMC0CL3hlGAbWCPAJFILC8vLykpKS4uLi0tra2tbWpqamhoaPpvwuFw7OU5UOXl5aWlpZWUlGRlZWVkZFRUVDQ0NDQ1NQcMGDBw4EBNTU1tbW3NzoTBYDjogGSIQJcggIJ3UXcJrlCpIAhQqdTCwsKMjIzs7Ozi4uKSkpKysrLi4uKqqioKhcKqCY1GKykpqaioKDEkGRkZJk4sFistLY0Qm5qa8Hh8a2fC4/FNTU04HA6Pxzc0NHCaXKPRaMRMGxkZmZqampiYmHYmbW1tporgI0RAXAhAiywuJKEefhGgUqlFRUUZGRlfvnzJyMhIT0/PzMxsa2tjlFdRUdHV1R00aJBuZxo0aJCenp6mpiZigcXueWhubi4vL6+urq6oqKjqTPTHioqKyspKxrbJyckhphmx0XZ2dtbW1lJSUow8MA8REA4BaJGFww1KCYZAeXl5wv9TWlpaa2srXV5JScnS0tLa2trS0nLw4MGDOpOcnBydocczra2tuZ0pLy8vNzc3JycnNze3pqaG3jApKSlra2sHBwdHR0cHBwdbW1vWCTudGWYgAlwQgBaZCziwSHgEiERicnLyu84UHx9fXFyM6MJisba2toj9tbKysrS01NXVFb6anpNsamrKzc3Nzs5OTU1N7kyNjY1IcyQkJCwtLR06k5ubm52dHfRH99xA9bGaoUXuYwPWm5tLpVJTUlJevHjx8uXLDx8+dHR0IK01NDQcPny4i4vL8OHD7ezsJCUle3MvhG5bQUFBUlISYp2Tk5Nra2sRVcrKyiNGjPD09Bw5cuSQIUOgdRYa4R9BEFrkH2GUu7aPtbW1ERERiCGuqqoCAEhLSzs7O7u4uLi6urq4uAwYMKBrW9ArtZeUlCQmJr5+/TomJiYtLQ1ZolRUVHR3d6dbZwkJuNmpVw5ezzUKWuSew74v10ylUj9+/Pjs2bMXL14kJiYi5sbY2HjcuHG+vr6enp69yhHc40g3NDS8efMmJiYmNjb206dPZDIZAKCgoODl5eXv7z9hwgRNTc0ebyRsQG9AAFrk3jAKfakNaWlpdzrT169fAQBYLNbT03NcZzI1Ne1LPemhtjY2NiLWOTo6OjU1lUqlotFoFxcX/85kZWXVQ+2C1fYKBKBF7hXD0PsbkZubixjijIwMAIC6uvq0adMmT57s4eEB9xUIPXxlZWWhoaFPnz6NiopC3O7GxsaIafbw8IA+DaGB7buC0CL33bHrjpaXl5ff7kxJSUkAAEVFxUmTJs2cOXPs2LGi2AscDodGo6Eppw9hW1tbeHh4SEhIaGgosq9ORUUlICBgzpw5o0aNgouBdKD6fQZa5H4/xLw7mJqaipx6oLNSqdSoqKhz5849efKERCLJysr6+fkFBQX5+voKakaJROKHDx9iY2NTP6dmZ2eXFpc2NjRKy0hTKBQyiaykomRgaGBubu5o7zhq1Cg7Ozs0+oeOfkWhUN69e/f06dMnT55kZWUBALS1tYOCgubMmWNvb08fIJjprwj0PYuMw+Hq6uqIRGJLSwuJRAIAUKlUVGdSVlZGo9Hq6ury8vL9dcDE3q+6ujpnZ2cfH5+zZ88CABobG69du3bu3Lns7GwAgLu7+7JlyyZNmiQopGQyOTIy8ur1q6Ghofom+kNGDbFwsBhkNmig/kAlNSUUCgUAoJApjXWNZQVlRdlFWYlZSVFJtVW10wOnz5s7z9XVVew95amwtra2ubmZRCK1tLTQ3ysAABL+AovFqqmpdefWvZSUlJs3b965c6e8vBwAYG1tPXv27FmzZg0aNIhnXyBDH0Wg91rklpaW5OTk7Ozs/IL83PzcoqKiqsqq+rp6KpWqoq4iISkhryCPkaAFgkGhaL2gUCgtTS0UMqWhroFMJKuqq6prqOvr6xsbGZsa0069Ojk5qaqq9tFx6qJmt7e3+/r6xsbGYrHYkJCQ27dv//PPPzgcTkFBYc6cOStXrrSxsRG0agKBcP369SPBRxTUFMbNG+c9w1tZXZlPJVUlVS9uvXh+/bmcjNyeXXumTJnSFVPmgoKClJSUgoKC3PzcvIK8stKy+rr6+tp6JRUleSV5DAYjryhPBVQ0Co1Efelo7yB0ENpx7Q21DbJysrQYRFqaxkbGJsYmxkbGNjY2VlZWovhwuINDJpOjoqJu3br18OHDlpYWNBrt7u4+Z86c6dOnKyoqcpeFpX0Ogd5lkVtaWsLDw0PDQt+9f1dSVGJma2ZoaahtrK1jpKNtoK02QE1ZXVkGyxxQhhV0Qgehsa6xsaax7GtZWUFZRUFFUVZRRlKGmrqas7Ozr4/vhAkT1NXVWQV/KAqRSJwyZUpoaChjr62trVeuXDl37lzhYkeEhISsXb920OBBC3YtsHOzY9TMf55KpcY9i7t2+BqpnXT+7HmxzJezsrKehjx9FfUq8WOiDFZmsMNgXVNdbSPaqzVg0AAlNSVlNWU0hrfDpKWxpaGmobaitqyg89XKr8j5lFNeVG5ta+0xwiPAP2D48OFd5PZtb29//PjxrVu3wsPDiUSivLz83LlzV61aZW1tzT+2kLOXI9BbLPK7d++CjwdHvYqyc7Vz83OzG2FnbGWMTIHFhSAtwE120ed3nxOeJbx79c7R0XHr5q3jxo1DvqDFVUtf0YPH42fNmvXw4UN6g2VkZEJDQ8eMGUOnCJSpq6tbvHTx58zP285ucxrlJJAsJ+bwO+Gnt54O8As49dspWVlZTmxc6Dgc7u/Lf58+cxrXgXP3cx/mM8zK2UptgBoXESGKcC24rOSspOikuJC4yuLKBQsWbNywUUdHRwhV/IjU1NTcvn373LlziKN55MiRq1evnjRpUnd6VPhpJ+QRAoGet8gtLS3zFsxLSk2atXnWhHkTsPJYIbohqAiRQIx+GH3z2E15GfmH9x923R+PoA3rHv7W1tZp06a9fPmSqbrLly8vXLiQicjP49u3b2fOmukV5LX80HJJKXEekm5rbju2+lhBasHD+w8tLCz4aQydJzIycvbc2TauNrO3zLZxEdj9QtcjUKaiqOLe6Xuh10J3bN+xbes2gWQFZY6Lizt9+vSjR49IJNKAAQPmz5+/evVqPT09QfUQSZTHcV/vRuV/yqurasCpK8k6mKrPGGM8aYShpATv7wZBq4P8XBDoYYtMIBCcXZyt3K3W/7pevDNiLn1mLPrn5D93T95NSUrR0NBgpPfjfGFh4eTJk1NTU+l9VFBQkJCQaGxstLKySktLE/Sj4f79+6vWrtp3ZZ+rb1ctxz39++m53ef+vf+vu7s7vdncM8+fP1+0dNHPd362H9EDWxRqymt2Ttvp5e51/Jfj3NspemlJScn58+cvXbpUVVUlKSk5efLk1atXe3h48Kk5s6hh8S8xuaVNU0cajXHUUVeSbW4jvEoqvROZZ6qrdGmbp6WBCp+qIJvoCPSwRX79+nXgrMCw0jDReyK0hiC7oC2rtyxbtkxoDYyCgpozRtmuzlOp1Nra2kuXLunq6hoaGmp3JnpMdwBAa2urnJycQF24eOnivoP7Tj47aWrbtQf2Prz6sHfW3utXr48fP54foMwHmy/Yv8B7pjc/zF3B01jb6KvjS8ATukI5q04CgfDkyZMLFy68evXK29ub9QOIVQQA8Lmg3m9HmOEAxcs7PI20FV+8L74YmpnwpYpMpqoqSpfWtKkoSIcG+9oai9nPw7YxkEjbp9Czd4gUFxfr6+vfz7hvONiwR8ajvqree4B3TEzMyJEjxdIAFAqVSE0UiyrxKnFCOYl9rO/du7dh84a/Yv/SMeoqnykjCOnv0zf7b37y6ImbmxsjnW0ehUKNnzN+/5X9PfLtBQB48veTn5b8JHbM2XaWkZiSkoJGo+3seC+r4onkEasfy0hhXhyfICcrmV3c6LTsX0ZVSF5/gMKHv6ZgZWBQJFZsxE/pYScRsrNy+ajl9/6414H7FrxR/L1kp5FMIr+8/XKe8zwAgLjMMbt6+i0tLi5u9drVvz37rXvMMW1D7jDrAzcOTJ46OS8vjx9YW5taV3qtTH+fzg+zGHmqSqqCVwVf++WaGHXyr2rIkCH8mGMAwMWQzPzy5is7R8nJ0lz/+gMUMGjaPnGmVFTZ8ncY7awKTN2AQA9bZKSHZyPOJsYkBhgG/Lrh149RH8kkWmSsLkpUKjXjY8bZPWcnm05+dPHRwWsHu6ii/q22trZ25qyZ+67u62pnBROMw32GL9q7aNqMaXg8nqmI9fHE4xPeM7x3z9q9xH3J3TN3K4oqWHnESGlpbAm/E75j+o5ZQ2Zh5bFX318Vo/KuUHUrIjfAzcBER+lLYUNqXt2GM2/JFCrbim6G57ClQ6LYEehhrwVyvgP5zC/JK4m4FxH7JLYkt8TK2Wqw02BLJ0sjS6OBBgNFWb6nkCmVJZWFWYWZiZlfPn5Jf5+urK48MmCkV6CX+RBzAIB4P+d/EK+F/0R/DUuN1UdXi/2N5Efhrum7BusOPvXbKS7M9IGgkClxz+JinsTEhcYpqSlZDrW0dLK0cLDQM9VT1RTpxBCuBVeaX5rzKScjMSPjY8bXzK+Ono4e/h5jp4+VU6TdSiXeV4tLZ4Uoamsnak+5cXaTu+FAhXFbn1HZm+JvitEoVOm/cxWw4txFI0SbfwSRXmSR6XA31DR8+fAl42NGZlJmYVZhVWmV+gB1bUPaCRHaTn51ZWU1ZQkpCTkFOYwEBo1BYzAYIoFIpVJbGmln9hprG5vqmprqmuqr68u/lleWVKppqemZ6lk60f4UrZyttPS06HWJ/c+GbggYq+gNeTFah0ePHm3bs+1m6k0JyZ7xLTbXN8+wmvEy7OWQIUM4Ycs6EBQKJT89H/lhzknNKckrIeAJusa6A/QGKKsrK6kpqWioyCvLS0hIYBVoWzClZaXx7bSZOL4dj+/Ad7R1IMeOGmsba8prygrK2tvadY11TWxMkNnDYMfB0rLfrr5GWiVGzDl1U2h6UWWL9YJ7jw+Pux2Zezcqn6ee9KvT9Qco8GSDDCIi0DN/UdwbraKhMmLCiBETRiBsZBK5sriyvLC8vqoesbaFWYUkIqm1uZVCplDIFDKZLCkliUKhFJQVUGiUsrqytqH2YKfBKhoq2gba2obaokyxuTf1Byzt6OhYv3H9nqt7esoc00LQqSquOLxi9drV8XHx/A8BGo02tTU1tTUNWBSASLU1t5Xml1aVViHvVX1VfWl+KYlEwrXgEEOMWFgpGSkZWRkZrIyyurKFg4WyhrL6AHVdY11VLZGm2Py3vCs4paVoEQgaW/GJ2d+vcOVSkYx0b7QVXBrcR4v6AMoYCYyOkU63LR/10YHstmZfuXLF2NbY0dNRjDUW5xYPMhUsek7AwoC7J+9GRESMHTtW6JbIKcqZDzFHnFdCK+mjgmn59QCA6JTytnZauC7uSUNZVktFmDOT3NXCUlYEesXKHmuzIKV3IkAikX45/su8nbQNKmJJrU2ts4bM2h20W1BtKBRq3s55B3+GC7OCIkfjJ1Oov979BAC4E5mnovAfTwtbdZPde2ZzKtvG9G8itMj9e3zF3Lvw8HDVAaq2w23FpffsnrM5qTn8hPhhrdF7hnd+fn5mZiZrEaRwQYBCpW448zY+vZLmmSGS88qauDADAGSkMKsnw7umuIMkttLe7rXISc0pLSiVkJBAoVE0lzGJbOFgoW2ozQhA3ue84tximluTCkhEktt4N/oCS2l+6d0zd+sq66RlpVW1VKeumKptoH3l6JV5W+f11MEBpOVC9MvV1zUxmq+zJ27j3QQ6d8cIJvf81etXfef7cufhv7SyuDLsBu24pnDHKNAYtPcs7xs3bxw5fIT/Sn9wzqZWwvJfXz9LKKLjQCRR6Hm2maPLhhlpw7CfbLERP7G3W2QCnlBRWPHvX/8W5xZr6WnN3jTbxNaECQZ8Oz7sRljM4xgze7Nxs8bR/7yjH0VfP3Z994XdJjY0kfLC8gsHLtiPsL9w4MLsTbN71iIL16+ygrLS/NJHFx914DpGTx09dPRQJPAjiUiqKa8pzi2OfhRNIVPCq8JF3NfFhDDyiMfjnz9/vvLcSralQhCvHL0yeenkGyduEPFEIcQBAONmj9sbuBdaZD7Re/mxZMPpt6U1bXR+rLSEPFayprGd7e43CQz65yXOS/wG0/mFyLx+/Xr48OGSkpI1NTUJCQnV1dWOjo5cNskIUUV/EuntFtl6mLX1MGtDS8N1vut0DHVmbZjFir6Vs9Wh64dm2My4/PYyPXpyTXnN0ZVHL7+9rGusi4hoG2jvv7J/29RtRIKQf/+sVQtNEa5fM9bOAABkJWelvElZuHPhYEfmP5W8z3lLPZZWlVR1hUVOSEgwtTJVVBHPdKmiqKIou2j5weU3TtwQOviDqa1pc0tzUVGRvr4+z7GghZFbeywzMbM4t9hhpMPZCNqdKawp+lH0tqnbFJQVnEY5TV422cLB4uTmk18+fCnKLtI313fwcKBQKGg0uqmuyXyI+fQ10xWUe3hPWFs78X5MQXRK2deKFhQKGAxQGO2gE+hpTD/3TKWCmNTy3+5+ikml3UVCuxVFCrNwvMUkd0PnwZoYNOpTft2JO5+eJRQxzpdlpTBhxyY4WQgfgauiomLFihWzZs2iUCjbt29PSkpqampKTU0lkUhLly7966+/uuI6AtYB7VuU3m6RETRdvF209LRS3qSUFZSx3XSR/j599qbZdHMMAHh+67meiR7dHCN6UCjU6iOrox9F95JBEqJfAADE68p2jm9iYzJ3y9zK4kpWYy16l2NjY+09xRZH7dSWU8v2L5OWoS0rCf0biUKhHD0dY2Nj583jvdgopyh38NrBzKTMK0euRD2M4rTBo6GmgUql+s3323RyEwLaoeuHPr39tHjE4sBVgTPXzUSIFArl9LbTk0wmnY8+j3yEiY6wEBrux+RvOZtQ34wfqIa1M1GXlkRnFjU+fP1196UPw60G6GvJ1zV1xKdXltfR9vMBACQl0PPHmW8Lsh+o9j3srZ2x2o3do19+KJm2L5zehk0z7EQxx3Fxcfv27bty5YqysrKHh8eePXt++eUXAEBiYqK/v//Fixd9fHymTp1Krw5mEAT6xsoeGo32m+9HpVJDroawHbnnt577zv6PfzP3Uy7bqxwMLAy6LVQu26YyEoXoF6M427y7v3tVSRXbIhGJyZ+SxWXoE6MTcS04h5EOUjJSNIssrNcCAGDuYJ6WlsZ/17DyWI8AD0VVxdCr/7k8BdFQnFNsYG5Am0XK/2ezF/LIuAKJRqM3nNigrK68fsJ6uqOM/2aIhfO3u58WBccoyUnfOzA26+bM39e5eQ/V83LU8XHWo1CoL94Xn3+a8SC2gG6ObY3VYk9PPLnGldEc01vi46znZjOA/jhjtDE9L2jm7du38+bNu3PnzqBBgwIDA52cnPz9/RElTk5Ohw8fBgBcuXJFULU/An/fsMgAAP8F/igUKvRaKOvb39rUSiaTldSUGAdMRUMl/X16+ddvn2mMRbautqJ8LoV3JkaFouQF7RfbulqbWt+Fv0OKDCwM6irr2LLxJD558uTNmzec2LKzs/XNeTsHOInT6RQy5bdNv607tg4AICVNs8hCey1o8XHM9TOyM+jK+clIyUj5zvYNvRZKITMvaiXFJg3x4HgOkFW5sZVxVUlV3me+Ih+xiotCCf9Yuv9KovNgzTdnJvq6DDr3OMN2wb3VJ9+ceZj+8kNJC47ZNRc0xiTypL+NEbdTLf6utF8jAIDhQEXDgUK6p6qrqydOnHjixAlNTc0LFy58+vQJMcH0zs6ePRuNRhcUFNApMENHoM9YZF1j3SHuQyqLKz9GfaS3Hsm8vP1yXNA4JqKLjwsBT9jgtyE3LZepaG3wWlHOm2VnZ/v4+Li7uz99+pRMFjUokqD9YuoL8lhbUUs3CpJSkssOCBnrOTU11cPDw9vbOzw8nEJhtlYlRSVMu1zYNoYn8f7Z+06eTkiIIsTR1NrUyvpDy1MPwqBjpPP161c+melsExdNrC6rpv+MIXQKmYKRwAi0TaW2shYjgWE6l0+vpesyFCp167kELRXZO/u9lORpv2rSkmg8kePbONnd8K8tHjKd5/S4tGq41bcAA8YibK7YsmWLo6PjlClTqFTqlStXLl68qKz8n6tvpaWldXV129vbubTkhy3qMxaZNk1eSPvwCbnC7LhIeJng4u3CNISu41zHTBtTkFEQZBc03Wr6L6t/iXwQiWuledNEMcf0WuLi4iZOnGhoaHjo0KGcHJEiYwnUL3oD6BkKhfLg3AP6I81XKNq9ShERET4+PmZmZsHBwXRjRyKRCHiCrNx/vuUZK+UzX19V/+Dcg+UHlyP88srytAMLJHJLYwufGpjY5JXkW5oFljWzNzMfYv7k8hNGbe/C37mMZX6RGBmY8p/ffU5/n77pt03iWu1k0s/lMTq5vKC8eWuQvYYybUSoVPAmjWNkOz1N+fNbR6JRbCJtMlWhp0kLkAQAUO608kyl/DyWlZXdunVr9uzZSBCxhISEgIBvZ9YZxaWkpIS4fYpRQ3/N942VPQR9r0Cv42uPRz2M2t60XV6J9pcMACj4UmA42JDRwYfQAQA/3/pZ20D7zuk7BRkFBRkF98/el5KRWrBjwZK9S5i8FgK9HK2trfQqSkpK9ncmGxubgIAA/q/SoWsAAAjaL0T2t42/ySvJt7e1Z6dkN9Y2bjixgVEn2zzPbjY3N9MF8/Pzd3YmR0dHPz8/R0dHsVyBeGTFkcV7FiOh0QAAWHksRgJDJpEbaxqFs2tyinKtLd9HhN5+npmJiyae3Hyyqa6J7u+qKq3ifjFV+dfy9PfpFAqltqI2MzEzPz3/bMRZcV3zyrPBjAzx6ZUYNCrQ0/huVP65J1+a2wi5pRwPeox3GSTLa3aMKFdTkpHAoElkCgbD23wztoeev3XrFoVC8fX9tqjD9oODQqFUVFSMHj2aLgUzdAT6kkWWlZP1mu719PLT8LvhU5ZNQfoQcjVk8tLJ9P4wZiSlJNcfX79k75KElwnxz+PfRbyrLq2+cOBCVUnV3kt7GTmZvqoYi1jzZDK5sbGRkY7BYNTU1FQ7EyOdz7yg/ULUbjq5yczODAmIc2QFX0ckeHaTQCAwGmXa94SEhFpnUlERw2VrYTfD6qvqNXU1P0R+oIMjLSuNa8HVV9cPMhMstAWiQWh3x7hZ405tOfX81nNk+0RDTYOKBo8+SkhK0JYiqTRY8r/ka+pqmtnThqD7U1lt2wBVrJK81MGriSXVPH6QOEU9Zm02GoWSkqRZ5HY8RwcIqxQjJTk5GYvFcr+1Mi0tra2tbcYM2lZOmJgQ6EsWGQAQsDDg6eWnoVdDEYtMJpHLvpZx/0uWU5TzCvTyCvQCAKTFp+0K2vXk7ydTlk2xcv5+MPTz589MuHB5PHPmzLp1tFUp2q0W1tbLly8PDAzU0vpPhE8u4myLhOgXXY+0rPS8rfMSXibQKYQO2t1uyDYGOpF2qRqvbh48ePDAgQOIiKOj47Jly6ZOnaqmRrtjjUwmIz4fRoUC5WvKa06sO9Ha3LpsJBs3d2Ux7VCvEKmtuU1e8dsHk0DiiqqKnpM8n/z9BLHI8c/jx87gEbSIZoI7fwXN7M3c/d3nD5u/ZdKWC7EXBKpXLMwYNG32mZZfx9McAwBqGvn12JIp1HY8LfBQYyvvCwHYdqS4uJjamdjOjhGRy5cvm5mZeXp6stXwgxP7kh8ZAGA/wn6Q6aC0hLTCrEIAwNuwtyPGfwvayTSQrAt6AABbV9tjD44BAOJfCBDFkUkz4iALCAh48+bN58+f16xZI6I5FqhfrI0BAGjoaOiZfL8TPuxmWGlBKVtOnkQ0Gj1jxoyPHz8mJiYuW7YMMccAAAwGIy1Dm8zy1MCWgUKhHFp0aPWR1bFNsW9a3zD+8/Cn3ZqcnZJNFyQSiG/D3tJ3jFQWV7IdTYS/talVWek/C0d0PTwzAYsCctNys5JpVxYRCURk4wdPKYQBhUKNnT42+XUyIs6nlLjYLA1UK+pwqbm1/CiM+FhaUP7dH8VFpLmNgBzeK6wQ2DWPqJWSkmpvby8vZ7PHCWEoLCw8f/782bNnmTyHXFr1QxX1MYsMAPBb4Edb3+vcmBxxL8JrOm3yy5pun7rNSgQAWA61NLU1/Zop8Oo8XZudnd27d++ePHkyYgT7HwM6p0AZPvvFVqeiiuLIid9vbs1JzWE00GxF2BKHDx+empp6584dJycnVgZ9Q32BDP2b0O8b6U5uOqmgojB1xVRZOVmmf6Z2tEusM5O+BQyiUqk3jt8wtTNdPGIx4pG4Gnz1+NrjrO1BKCV5JYZGQkYmc/Zy1tLTenr5acbHDMuhlpyq4ERHFjO4/FpwEhSdPs5Zj0KlRiTy9buLw5OCDr2qrOf9a/op/9u+yZKa1or/HyoRqLUmJrSIBc+fP+cktUUcgkwAACAASURBVHPnzvXr148ZM4YTww9O74MWeZ4fGo1+dv1ZbUWtDFaG03JTQ01DTTn7UNwqGioD9QcKPfAeHh7Ozs5Ci3MS9OOvX5zE6XQqlVr2tUy47Rbe3t42NjZ0VUwZc3PzouzvEWqYSpkecz7lbJ64+fGlxzXlNcfWHot7Frfnwh4mHuTR2Jp2EiErOQvZb5cYneg0ygkJIY8wLN6zWFKa431CRdlFg82ZT5OzrQgh0qz8/28wQqPR/gv8X/zz4vO7z4g7gosgaxFyfrokrwQpYt0vyCoiLoqxjuKE4fqvEkux/AWSzyhs8N78LCmH/V8EvVWRSWVInkoFj+OEmbUgJ0EOHTqEw7H5Afjpp58UFBSQw3v0SmGGEYG+Z5E1dTVdvF1qK2r3z98/fu54xs4w5f85+Q8TBdlolfc5z8HDgbWoZyn894t7O6MfRbM9rMhdip9SB3uHjI/8nsVorGmkUCg/L/3ZV8f36eWnR+8eRa5KYq3IfoQ9CoVqbWpd47Nm39x9+ub6tq620Q+jR04cifgiNbQ1uOxnyE7MtrcT4Gw3svGG3gz/Bf4tjS2Me3Xa22heV+S/dLb2Vhqxo+0/16Xrm+ujUCi614Lt+0bXIPbMr6td5WQlcZ1uX36Uf61oHrMhZOeF97gO9iHqqxva/372PbTpn4++sB4z4VnRxIkTXVxcSkpKXF1dGa8Mz83NnT17tpqa2oULF7i4mHnq7/cMfWxlDxkP/4X+8S/iywrKhrhzO1719MrTgfoDp62cxvj3duvkLVM7U7fxbr1waPnsF2IsmKwD0p33Ee+DVwb7zac5dsSeRnmOurfhHp9qnUY7ec/wDr8brqKhcuzfYxYOFpwENXU0lx1YVllcOXLiSDdfNyRex8s7L7ee3oqIFGYV2rnZsRWnUCiJsYlXT/N163Nbc9tPS35KiknCd+BzPuWsPrza2NpYx0jHd46vT5APov/YmmO5abkyWJnwO+G15bUBiwLMh5if3nY6KzlLBitz/+z97NTsmetmIgfxTW1NF+xYcPfM3ZK8kuyUbMPBQjpP2HaNJ1FbDRsS7Dt590tO7ghleWkfZ11tdbniqta4tIqqhnYyhfrHw/S7UfnLAwYv9bNUVfweq/5DZvX6029bcEQ0CqWjIUcgkosqWyZsDzu+0mWYpWCr1s+fP587d25oaKipqamJiYmZmVljY6OVlVVwcDDP/Zc8e93vGXrjzac8QSfgCeMGjpuzec6i3Ys4MW/037hgx4Laito7p++MnTHWwMKARCTFPI6pq6zb9/c++hbUXnXzKfd+USiUjf4bywrKkFVNbQNtExsT5MeGTCJXlVaVFZS1NdMCLe69tHfi4olMyIh+CyeRSNTQ1LiffZ//wHLlheUa2hqCulCa6pq8NLxim2KRafXjS4/9F/izjaz05cOX4EXBGelsZu6sN58yASKux6+ZXzM+ZuiZ6rEG8hcdc56NrG/G77v88U5kHuOBPWlJTJCXyf4FTupKMogGCpUam1px+sHnV0nfXM+yUhgPO213u4HqSjJp+XV/PcnQ0ZDbNWfIJHdDNBqVnFObmFX95G1ham7tzjkO24IE+ApBaszPz09MTGxqajI0NHR3d5eR+dYSnj36wRn6pEUGALwOeW073FZZneMie/r7dOth1rQvTVzHh8gPJbkl0rLSVs5WrLFyxPtnI6Ih4Nkvod9XsXRz7vy5Ax0HzljXtTtJG2oaJhpNjGmKQaPRpfmlZQVlw8YOY9vxX9f/aq5mvn/fftZSEQeCVaEQFLFgzk+9ja34t58rv1a0UKhUEx2lETYDFOVoR6tZU3x65eqTcaz3hox20Lm1dwxWRuLIjZQ/H6W3tn8Li4FBo8gU6uGlzuumclxgYK0FUoRGoK9aZKE7zCoo3j+b3mAIWPsork+ByMjIddvWXU+6zrYKMRJ/XvrzgEEDLIdaVhZX0k8DMeknEoj+g/zfvX1nbMwmSllvGAjxvlpM3Rf6sZ1APnjl45+PvtA1WBmoRP0egCwSTtz1Iir52/oenUFaEvP2z0nmgzhOgOicMCMiAn1vZU/EDkNxURAYNWoUCUdiDfYkik62snsu7glaHzTYcTAncwwACLsRNmTIELbmmK1OSEQQkJXCBC93YXRE/LraFTHHFCq1uoHNcRI8kXzmYToEsBsQgBa5G0DuP1Wg0ejdO3dfO3KtG7okpyjH5VgzmUS+Hnx9/x42/opuaFs/qGLvfMfRDjoAADM9ZTebAddf5uw4/27clmfpX+vZ9i40nt+Nj2zFIZFPBKBF5hMoyPYNgVmzZtWX1cc9i+tZRO7/ed/U2NTNrTfumelZZPivff00mmvYyVy9og63/vTbPx99SfjC8a6DuuYOTps6+K8RcvJEoE/ufuPZK8jQdQhISEic/ePswmULh44eSr/zu+uqY6u5tqL2yuEr8XEiHYVnq/mHIlob0qLXy0pLPHrzlcQSvJ8Vig5hww+xqoIUTgjAOTInZCCdIwJjxozxcPM4tfkUR46uLKBQKD8t/GnN6jVmZj0Td60rO9etutWVZSQl0F8rWnJK/hPLkG0jMGiUpoqo0bHZaoZERgSgRWZEA+b5ReDsH2eTXiVF3I3gV0B8fFePXgXtYM9u9meyxVdP/9eERqEczTXefq6k73Xj0mcrQ1X65dZc2GCRiAhAr4WIAP6g4oqKig/uPhjrM1ZLT8vW1bbbUHh1/9Xjvx5/ePdBQgK+umJAfcE483dfquLSKlEo2kUkXNI8H/hFwgUesRXBObLYoPzRFA0ZMuTWjVvbpmzrtuBnH159OLHmxPNnz3V0aJsEYGKLQE5OTno6vzvVpnkaWQxSLqtt426OLQ1UFvias60OEsWLQA9PND5//mxmZSYDevKE5RDXISEhIfTby0XH1wnFJpSl6Gp7oQYfH5+zZ86u8l4V/CDYfoTAB20F6lHkg8jjq48/+veRrS1fU3JXN9f4J/GjJ/bY1UE1FTV6Bt+DVgvUWeGY29raDh8+/Ouvv9ra2n748IGfgD7Skph/9nn5bHnGJaq9lorsjd2jpSUxwrUKSgmEQA9bZEtLS001zR1zd+w4vwO5llig1ovITCFTLuy/0FTT5O7uLqIqurgQlwxRKJTMzEwrq+93miDaHj9+TKVSJ09mf2cVvcaezQQGBiorK8+aOmvt8bUT5k3oisZQqdRrwdcenn0YGRHJpzkGABw9cnTajGlkNNndX2yDy3/vinOLd0zZsWLZCv5FROQMCQlZt25dYWGhiYnJoUOH+DHHSI2mukpRJ/0XH4v5kFnN2gYXK60LWzwMByqyFkFKVyDQ86eo8Xj86rWrnzx9ErgqMGBJgIa2Rlf0k0lnc0Pzi5sv/jn5j42lzc3rN1VVaduAxJ5wOFxpaSn3LQGVlZULFy48duwYa2Di9evXUyiUM2fOiL1hYleYnp4eOCPQYpjFpt83cYq6KVyldZV1Py38idpGvXv7rqDOio8fP84ImqGuqx60Och1nKtY7iDn2YvMpMx7p+/FPYs7cezEokUcI2Hx1MM/Q15e3rp1654/f47FYrdu3bpz505p6e9B3fjUQ6FSI5PK7kblpeTWteIIinJStsZq00cbj3XS5ecSaz5rgWw8Eeh5i4w0MScn58RvJx48eKBrpOvm72bnZjfYcTD9wmme3eCHoQPXkZOa8/nd5/jQ+C9JX8aPH79l05ahQ4fyIysED5VKnTVr1vHjx3V1ddmKU6nUy5cvb926dcSIEU+fPmXioVKpBgYGZDK5pKSE//kOk5LufGxra9uwaUNoWOj6E+t5XljHT8MoZMqDcw8uHbq0asWq/fv2C7eURyKRDh8+/CTkSUFBwXDv4cPGDbMaamVgYcAYoJWfxnDnqSqpykjMSIpKehPyRkZKZtmSZcuXL1dSUuIuJXopDoc7duxYcHAwHo/38/M7c+aMgYGB6Gqhhh5EoLdYZAQCEokUFxf3LOxZ/Lv4tNQ0DW0NY0tjbWNtHWOdgQYD1QeqK6spK6kpcT+YQCQQm+qaGmsb66vrKworSvNLy/PLC7MKS/JLBlsNdh7qPH7c+DFjxsjKduHmSiqVunLlymfPnpWUfLtggmmMExIStm3bFhdHO/kWEhLi58cc0fj9+/cuLi60KwHj44cPH84k3msfExISVq5eSZGgLNi9wCPAQ7jfEhKR9OLWi2tHrxkOMvzzzJ8WFhxjK/PEgUQiWVhY1NfXp6SkvHr1KjI68sPHD1UVVWa2ZnqmetrG2rrGugMGDVBSU1JWp71a3Bvc1tzWWNvYUNNQW1GLvFdl+WXZn7LRKLTTUCcPN4+AgIDBgwW40IRn+7kwMLopTp8+7evry4UZFvUVBHqXRWZEjUwmZ3WmgoKC3Pzcr4VfKysr62rr6uvqMRiMpJSknLychKQECo3CYDBEIpFKobY0tZBJZHwHXlVdVVVNVVNT09DA0MTIxNjY2MzMzMbGRlKS4+VAjFWLmKdSqWvWrDl79qyXl1dEBPOO3aSkpMOHDz969AipRUdHp7CwkHUCuGbNmj///BMAsHLlyrNnz4rYpO4Up1KpT548OXT4UH1D/bi543yCfLhfFk5vG5VKzU7JfnHrRfjtcGsr63179o0c+f3yQDqbQJnLly8vXrx4x44dR48epQs2NTWlpqbmd6bc/Nzi0uL6uvq62rrG+kYFJQUMBoNcbi0lLYXH41EA1Y5rJ+AJuDactLS0mrqahqaGlpaWqbGpiTHt1bK2tub0GUSvUbwZsbgpxNskqE1cCPRei8ylh62trUQisaWlhUQiUSgUMpksKSmJRqOVlJQwGIyiYk+uQhAIhMWLF9+8eRMAsGrVKsSqIn0pKCiYP38+Mi+m927Dhg0nT56kPyIZHA6no6PT2Eg7SSUvL19WVtaznWJqHp+PSUlJ129cf/DvAxQG5TTKydzRXN9cf6DBQEUVRaw8lkKh4FpxzfXNpfmlhVmFWYlZidGJSkpKQTOC5syeY24uhr1WZDJ58ODB5eXlBQUFmpqaPJtNoVCamprIZHJzM+3mZjwejzhkZWVlZWRksFisEP5ZnpUKxADdFALB1SeZqTCJD4H6+vpRo0bR34NffvmFSff58+eZpsMxMTFMPFQq9fz583QlAICzZ8+y8vQhSlZW1l9//bVy1cpRXqOMTY3V1NUkJCQkpSTVNdVNzE28fb3XbVh39erV4uJi8Xbq77//BgDs2LFDvGp7StvTp08RN7GJiUlYWFhPNQPW26UIgC7V/kMp//jxI1Os3suXL7Mi8Mcff9CdlaqqqjR/y38TgUAwMjJitMj6+vp4PP6/XH37SV1d3cnJqUv7QCKRTE1N5eTkqqqqurSiblCem5uLuImxWOz+/fs7Ojq6oVJYRY8gAM/sMZo+4fNVVVWzZs3Kz89nVKGmpsb4iHwInz9/HoVC6evrAwBGjBjBNGUGAFy9erWgoIBRsKioCJnuMRJhnjsC165dy83NXbt2LT/+Cu6qerAUh8MdOHDA2tr6+fPnfn5+X758OXDgQI87T3oQkP5fdY/8DvTLSgkEwoULF+Tk5OgvTXh4OFNPN2/eDADYvXt3U1OTn5/f4cOHmRioVGplZSWy6GRoaKinp4fkKyoqWDn7LqWr58j9Y4IM3RR99w0XuuXQayE0dGwEs7Ky0Gi0hYWFiYkJAODFixeMTLm5uZKSkra2tgQCgUqlEolE7nbWzMzMyMiIUUO/yXe1Re7rHmTopug3r7qgHenhU9T06WT/yAQHB1MolN9//33UqFFXr15VUVFh7NeuXbuIROKxY8eQTXgSEhIDBgxgZIB5sSBAJpODg4Pl5OQ2btwoFoXdqQTupuhOtHtjXYKacMjPCYHi4mIpKSl7e3sKhcLKg0R+8fT0ZC3iRIFzZE7IcKf33QkydFNwH9kfoRSu7IntZ/L48eMEAmHPnj30rRSMqnfu3AkAOH78OCMR5sWOQB+dIOfl5Y0fPz4gIKC6unr//v3p6enwDJ7Y340+oRB6LcQzTLW1tX///beFhQXbUG2JiYmRkZFTpkxxcvpRAnWKB1bBtSBbLHbs2NFXtlhAN4Xgg9yfJaBFFs/oXrx4EYfDbdmyBY1m89lx4sQJAMDWrVvFUxnUwgGBPjdBhrEpOIzkj0tmYz5+XDCE7TmZTD5//ryKikpQUBCrjsLCwn///dfd3R2JHMTKACniQqAP7UGGbgpxDXo/0wPnyGIY0MePHxcVFW3fvh2LxbKqO3XqFIlEQnYis5ZCirgQ6CsTZOimENeI90s90CKLYVj/+OMPDAazfPlyVl3Nzc1///23mZmZGG+NYq0FUgAAfcKDDN0U8F3ljgD0WnDHh3fply9fYmNj/f39DQ0NWbnv3LnT2tq6atUqtv5lVn5IEQ6B3j9Bhm4K4Ub2R5OCc2RRR/zPP/9EAiKzVXTp0iUpKanZs2ezLYVEcSHQmyfI0E0hrlH+IfT8CJuuu66POBxOSUnJzMyM7amQz58/AwBmzJghXAPgCRE+cevNUSzgoQ8+BxGyIQhAr4VIv7sPHz5sampauHAh21Mhly5dAgAsXrxYpDqgMC8EeucWC+im4DVusJwNAn3yDhE2/eghkpeXV3R0dGFhoZ6eHlMTCASCrq6ujIzM169fMRgMUyk/j+bm5iQSiSnCJz+CvZ9HQ0PDwMDg48ePojdV0ItCRK+RpwbopuAJEWTghACcI3NChje9tLQ0JibGx8eH1RwDAJ49e1ZTU7N48WLhzDHv6iFHJwK9bYIcEhJiZWV18OBBPT29sLCwkJAQeD80fFX5RwBaZP6xYua8fPkymUxeuHAhc0Hn87179xAnMttSSBQLAr1qiwV0U4hlTH9wJXCvhZAvAJVKvXbtmqqqakBAAKuKjo6OsLAwOzs7UW62Z1ULKUwI9JItFtBNwTQu8FFoBKBFFhK69+/fFxQUrFy5ku0VO2FhYc3NzYGBgUJqh2J8INBLJsjw0AcfYwVZ+EUAei34RYqJj7tT4v79+wCAqVOnMknBRzEi0OMeZOimEONoQlUIAnCvhTBvApVKNTAwIBAIpaWlrAt3HR0dWlpahoaGqampwmj/vwzca/F/JNj8v2e3WEA3BZshgSRxIADnyMKgGB8fX1xcHBgYyGqOAQAvX75sbm6eNm2aMKqhDH8I9OAEGe6m4G+IIJcwCECLLAxqiFOCk5v42bNnAAC2oeuFqQzKsCDQUx5k6KZgGQpIEDMCcGVPYEApFMqDBw8GDhzo5ubGVvjly5e6urpWVlZsSyFRdAS6f4sFdFOIPmpQAz8IwDkyPyj9h+f9+/dlZWXTpk1jG84tPT29uLh4/Pjx/5GBD+JDoPsnyNBNIb7Rg5p4IAAtMg+AWItDQkIAAJMmTWItAgC8ePECAODj48O2FBJFR6A7Pch5eXkTJkyAF5KKPmpQA58IQK8Fn0B9ZwsNDVVUVBwxYsR3EkPu5cuXEhISY8aMYaDBrNgQ6LYJMnRTiG3MoCJBEIBzZEHQAqC4uPjz58/jxo2TkpJilWxra3vz5o2rq6uSkhJrKaSIjkD3TJChm0L0kYIahEMAWmTBcHv69CkAwM/Pj61YdHQ0Ho+HLgu24IhO7IYJMnRTiD5MUIMoCECvhWDohYaGYjAYX19ftmKxsbEAAC8vL7alkCgiAl26xQK6KUQcHSguFgSgRRYAxra2ttjY2GHDhqmrq7MVi4uLw2KxQ4YMYVsKiaIg0KUTZBibQpShgbJiRAB6LQQA8/Xr1x0dHZx2trW3tycnJ7u4uEhKSgqgFLLyh0AXeZChm4I/+CFXNyEA58gCAB0ZGQkA4LSP4uPHjwQCgdOxEQGqgawsCHTFBBm6KVhghoSeRwBaZAHGIDIyUkFBwdHRka3M27dvAQDQIrMFR0Si2D3I0E0h4ohA8S5CAHot+AW2rq4uLS3N09OTk1Pi7du3aDTaxcWFX42QjysCVCr1zz//xOPx4p0gQzcFV9RhYQ8jAC0yvwMQFRVFoVA4uSyoVGpCQoKtrS3cicwF0D179qA6U21tbWJiIpJHbuxmlUKhUGvWrNHX1585c2Zubu7atWs1NTVZ2fin4HC4AwcOWFtbh4WF+fn5ffny5cCBA2wvHOBfJ+SECIgXAWiR+cWTuxM5Ozu7vr7e1dWVX3U/JN+WLVtUVFQYu25iYjJ//nxGCmMehUJVVVU9ePAAhULJy8t3dHQwlnLJ4/H4xsZGRgZ46IMRDZjvtQhAPzK/QxMdHa2lpcUpohsSnN7BwYFfdSx8TU1Nr1+//vz5c3Z2Zn5+Xmtra3V1BQDA3t5GTk7O2NjYwsLKxsbGw8Oj707DlZWV16xZ89NPP9F7v2vXLk5eIAKBQKVSEU4qlbpnz57z589fu3Zt1KhRdHFOmSNHjtTV1f3xxx8AgLy8vPXr14eFhWGx2P379+/cuVOM8+Lq6urXr1+np6dnZGcUFha2dSYUQCkoKSgqKJqZmlmYWTg4OLi6umKxWE6thXSIAB0BeIcIHQpumerqai0trcDAQOQyJ1bWXbt2HT169MOHD0OHDmUt5UKpqKj4559b9+7dycrKcXGxdXAwNTfXNzPTl5OTUVCQAwC0tLS1tXXk5BTl5BQnJeW8e5dmYWE2fXpQUFCQtrY2F829s6iiokJfX59IJAIAlJWVy8rKOJmq8vJyHR0dei9QKNTatWtPnDjByYLTObOysuzt7Ukk0uvXr8PDw4ODg/F4vJ+f35kzZwwMDOhsomTy8vJu3Lxx/9/75WXljh6OxnbGBhYG2obaWHmsDFYGANDa1NrW3FaUU1ScU5z5PjMzJdNxqOPsmbMDAwOZvhJEaQaU7X8IwDkyX2OK7KMYPnw4J+60tDQMBsNpBs1WKjk5+ciRn6OjoydPHhUcvNTNzU5KiuNGZldXW0QJgUB8+/bTrVsvbWx+9vT03LVrD6e9H2wr7XHiwIEDJ0yY8PjxYwDAokWLOJljAEB9fT29tYqKivfu3ePneDoej58zZw4ejwcAjBo1ikAgmJmZnTlzxtvbm65NlExkZORPR37KyMjwnum98/JOCwcLNIaj689h5Ldvpg5cx4fIDw9vPty6feuUKVN27dhlamoqSjOgbH9FgOPL1F87LFy/EhISuO9sS0tLMzEx4WJfGOv9+vXrpEkBkyb5eXgYl5SEXrq0e9QoJy7mmFFWSkpy1CinS5d2l5SEenqaTZ7sHxDgV1BQwMjTy/N0x/G8efO4NLWoqAgpHThwYExMDD/mGACwefPmpKQkRJBAIAQEBKSlpYnFHKekpAx3G75i3QqvhV6hJaEbT260HGrJxRwzdk0GK+Ph73H47uHH+Y9lBskMdxu+YNGCmpoaRh6YhwgAAKBF5us1iI+Pl5WVtbe3Z8vd2NhYWlpqa/ttGsuWByFSKJTg4KPOzk6uroZ5eQ/XrZuJ7fzI5SLCqQiLlVm7dnpe3sMRI4yHDRt65MhhMpnMiblX0ceNG6egoGBqampnZ8elYbm5uQAAIyOjd+/e8Xkw/caNG3/++SejzoSEBBwOx0gRIt/R0bFuwzqf8T4+S33++fyP7xxfjARGCD0AAEVVxSX7lzzKf0RVpVpZW12+clk4PVCqvyIALTLvkcXj8UlJSUOHDmUbgRMA8OnTJyqVytMiV1VVeXuPiYh4kpx8Y9u2eXxOirm3T0pKctu2ecnJNyIjQ7y9x1RWVnLn7w2lMjIy48aNmzp1KvfGZGdnGxoaRkdHDxo0iDsnUvr69eulS5cycdbU1Ozdu5eJKNBjdna2s4tzfk3+3S93/Rf4s704RiCFAACsAnbdiXVnXp05dupY0OyglpYWQTVA/v6KALTIvEc2OTm5o6ODy862tLQ0AAB3i5yRkeHs7OTubhEefkZPT4t3rYJw6OlphYef8fCwcHZ2Sk9PF0S0Z3hHdybudX/9+vXVq1d8muPk5ORJkyZRKBRnZ+dVq1b98ccfERERubm5tbW1p0+f5l4Rl9KYmJgRHiMmrpl46NYhRVVFLpxCFJnYmFx+dxmPxQ93G15eXi6EBijS/xCAK3u8x/Tdu3cAAC7Lel++fAEAWFtbc9L1/v37SZMCfv113axZ4zjxiEjHYND79y81Mxvk5TX60aMnXForXEUtLS2bNm+igm/b0YRTQpdqaWlJeJ9w9/5dOoUpQ6FQpGSkjgQfYaKzfSSTyIP0Bt2/f3/48OF8uvLZ6mEiPn78eMnyJUfvHaUv0DExiP4oLSu9++Lua8HXXEe4vgp/ZWJiIrpOqKFPIwAtMu/hQ1aKuGxry8/Pl5SU1NfXZ6srPT194kT/K1f2+vp2+fmRoCAfFRWFSZMCXr2KsrGxYdse4Yjt7e2379xef2K9cOJMUlqA91fCQDCQSYrtI4lI+n3L7x3t/B4eYauElRgREbF0xdLTL06bDzFnLRUvZf6O+QoqCl7eXvFx8X1xR6N40fjBtcH9yLxfAEtLy/r6ei4uWiMjIwkJiZycHFZdpaWlw4cPO3589cyZ3XcX6t274Vu2/JGQ8F5XV5e1ScJRqqurLa0tX1a/FE6866Tw7fjRqqPFa5FTUlLGjht77OExOzdua4/i7dS1o9ei70QnvE2Ql5cXr2aorQ8hAP3IPAYLh8Pl5OQ4OTlx4iORSCUlJcbGxqwMJBIpKGj6qlVTu9McAwBmzPBetWpKUNB0EonE2ipI4Y5AU1PTtOnTtp7Z2p3mGAAwf+d8YyfjFStXcG8eLO3fCECLzGN8U1JSyGQyl+PRRUVFJBLJyMiIVdHBgwfk5THbt89lLepqyvbt8xQUJA4c2N/VFfU//ctWLBvqPdRreg9czbXtj20fP328cvVK/0MV9ohPBKBF5gFUSkoKAIDLftj8/Hxk2yyTooyMjAsXzl+9uk8s+6WYlPN8RKPRV67svXjxQkZGBk9myEBH4Pnz5x+SPqz/VTzucrpaPjPSstIHbx7cvmN7bW0tnyKQrZ8hAC0yNaT7dgAAIABJREFUjwFFLDKXOXJhYSFbi7x69Yp9+xZraanyqKDLirW0VPfvX7xmzaouq6G/Kcbj8avXrt58ZrOUjFRP9c3U1tRnls+OXTt6qgGw3p5FAFpkHvinpqaqqqpy2kcBACgrKwMAMK2hRUZGVlaWr1jB4xAEj7pFLl6+fGplZSkSR1RkZf1fwbVr13TNdYf7cIxe0j0QLD2w9NHjR8i3V/fUCGvpPQhAi8xtLCgUSmZmJvdtZMgejAEDBjAqOnLk550752E4x6BhZO66PAaD3rlz/uHD36Nfdl1dfV0zmUw+duLY/J0cgzUL1MHi3GKB+BmZ5RTlAlcFHv3lKCMR5n8QBKBF5jbQBQUF7e3tlpaWXJgqKytRKJSW1vcNtpmZmdnZWUFB3bfdjUvzgoJ88vJy+sRBPi696IaisLAwRQ1F+xHsQ5fw34DWptZZQ2btDtrNvwgr54x1M+7fv88UdJ+VDVL6HwLwhAi3MUWWxXhaZFVVVcaQF9evX5szx1dSUlRsGxqar1wJqaqq++WXdQAAIpH0779Rjx5Ff/6cJy0tOW6c6969S3gGKpKQwMyePe7mzRvBwb9w66qYyqL+jaJvuRviPkRDW4OL4vjn8a3NrQiD9TDrgfoD34bRbo/lmdzGu6FQKJ5sAjFcvX51woIJAomwZT6752xOao6VsxXbUj6JiqqKLl4uDx48WLJkCZ8ikK1/ICCq1egfKHDqBXI8mrtFrqioYHJZ3LlzOyTkOCedfNJv3365Z8/ZgoKy1aunAwCioj4eOHDB3t7M0XEwgUB8/DgmNTWnoaH5r7928VQ4Z47vhAmbu8ci4zvwxTnFoddCa8prvAK9fr71M6fmZSZlHlp8qLai1nuGt727PZVCO59dVlBWml/66OKjDlzH6Kmjh44eisHQoqyRiKSa8pri3OLoR9EUMiW8KlxVU5xLpm1tba8iXq27RPvlEyVVFleG3QgDANBvPxFam88cn3/O/AMtstAA9lFBaJG5DVxmZiYAgLtFrq6uZow+np+fTyDgra3ZHBjhVhNLmY2NyYIF/vv2/WVhYfD3309+++1WbOwFdXVlhPHgwQsHDlyIjU1mkWNDsLIyAoCal5fXDWETfGf7AgAaahpqK2qjHka1NLYoKCuwaRMAidGJQ9yHRNyLWH98vdb/Qy/NWDsDAJCVnJXyJmXhzoWDHQczyeZ9zlvqsbSqpEq8FjkuLs5iiIW8kqiH5a4cvTJ56eQbJ24Q8bRLUkRJQ8cM3T93f3t7u6ysrCh6oGzfQgD6kbmNV0ZGhoqKCtMUmFGgra0Nj8erqanRidHR0WPGONMfhc5YWxunp9N2Or95k3Lw4IUXL87QzTEAYOJEz87gR7wjMiMN8PR0iIqKEroxggqiMeiARQGEDsLL2+xPXRM6CNIy0ig0zfOA/JexCiQMPNsYxCY2JnO3zK0sFnPQ0ajoqCGeQxjbIES+oqiiKLvII8ADAEDAE4TQwCiClcea2ZrFx8czEmG+3yMALTLHIaZSqVlZWdwvampubqaFIVf8HqcxJSXZ2Zl5ZsexDq4Fnz/nAQDu3Ys4c2YbUwDP+PhPSkryW7fyexpw2DDL5ORErrWJudDN101tgNrTy0/Z6o15EjNy4ki2RTyJ7v7uVSVVPNkEYkhOTbYaJpLnFwBwasupZfuXSctI05z+BFHnyAAAq2FWyHZ4gfoCmfs0AtAicxy+8vLytrY2MzMzjhwANDU1AQAYL4fOzs40N2cfBI6LHtYiAoGY27mDysvLeeJ/jVdsbPLJk/88ffrb4MGGrIJsKWZmg3JystgWMRLj4+OR7dWMROHyGAnMhHkTMhIzctNoV4EwpcriSrqngqmI7WNrU+u7cFpMVACAgYVBXWUdWzYuxJiYmOrqak4MWVlZBuYiXYqaGJ2Ia8E5jHRATpeI7rUAAOiZ6WXxMWqcOgXpfREBaJE5jhpyeR3bgBV0GWSOrKDw3VWan19gYqJHZxA6k5n5lUSi3dK0ffsCRAmVSo2NTZ46ddv58//Gxf3t4fHtVk1+qjA1HZSXx/suvoiICBMTkw0bNtDvuONHOSeegIUBAICQKyFMDOWF5doGgt2iXVtRm9f5xQAAkJSSXHZgGZNOno+PHz82NjbeuXMna2x4IpFYXVk9YNB/dpTzVMjIQCFTftv027pjtIVBKWnaeT/RvRY0i2yql5vH5veMsWqY72cIQIvMcUCRQ1Nsg7rRZZA5MqPXorGxSUXlu4GmcwqaQZzIpqaDvLyc6+ubDx26OGjQBE/PZQ0NzcuWTRH0cLaKimJjI206zzN1dHT8/vvvRkZGfn5+ISEhBILw/lADCwNbV9uwm2FMn/Cvn75GnK08G4MwUCiUB+ceMDJLcr60m5GNKd/a2hocHGxgYDBt2rSXL1/Sd+k1NzfLKcjxeYcpk07k8f7Z+06eTqa2tOulZTovTmxtahV9u4UibdQa2dYIif0VAbjXguPI8mORkTkyo9eirQ0nL4/lqJTvAsSJPGkSbQXvypWnJSVVlpZGOFxHdHRidHTi7Nm+164d5P9MoLy8bFsbztvbm/s2XvrJXQqF8qwzKSsr+/v7+/n5cd9wwqlbExdN/GnJT29C34yeMhrhoVKpJCIJmUhykkLov238TV5Jvr2tPTslu7G2ccOJDZz4ySQyz5uqs7K+OW2IROK/nUlNTW3SpEkTJkwwMDCQk5fjpJwnvb6q/sG5B1ffXUU45ZVpGzbIJHJLY4uiyvcFBp56WBmwClh4BR8rLP2bAi0yx/Hlx2vR3t4OAKDvT6JSqRQKBd25hYCjXv4KkpNpFiSgc+F+8+Y5iFBLC+6nny4dP3791q3nVlZGO3cu5E8ZQAwxzwAXrNO6xsbGmJgYOTm5+vp6PutiZBs7feyJ9SeeXn5Kt8gfIz8687cXZdPJTWZ2NCc+vh1/ZAW3652ogPrq1SvGelnzrF2rq6uLjo7GYrHm5uYYtJB3SwMAjqw4snjPYjnFbzYdK4/FSGDIJHJjTaOIFhnRw9oXSOnHCECvBcfBzc/PV1RUZNzZxspKJNKW1CUlJZEiFAqFxcricKLeMEQkkuLj09TVlYcP/8/+NgUF7LFj6+bNox0tu3s3grU9nCjt7XgZGWkyr7R///d4ympqahs3bnz37l1RUdG5c+emTJnCSTkXOlYB6xXoFf8ivqa8BmHLTs02s+e2WMqqTVpWet7WeYx0QgeB0PHdnSIhIcGrZ+R1676f/tDS0tq+fXtSUlJ+fv7p06enTZvW1tbGqJ//fNjNsPqqek1dzQ+RH+j/pGVp2y3qq4X5DWOsGteCU1AUgweMUSfM93IE4ByZ4wAVFBTwPFKB+CIlJL7DqKio0NTUKqLjIjExo62tffr0sWz9EkuWTLp+/VlZGcedA6xdampqVeT7b9vOzm7z5s2BgYEyMjKsqgSl+C/0D7ka8uz6swU7FjQ3NAs3bdTQ0dBjWC8Nuxlm62prZMnmlgDuzXNxcdm4ceOkSZMYT70rKirSD3NzF2cqrSmvObHuRGtz67KRbFYaGTdN15TX5H7KdfZylpCUSH+fXpxTbO9ur22g3YHrSHiZQCFT3P3cWUOAtja1yiuIemiFqc3wsZcjAOfI7Aeovb29pqaGSxBORIxpjgwAGDRIr7Cwgr1SvqkxMUkAAE6xinR1aVGNOk/i8avx69cyff1BPLlNTEzu3buXkpIyd+5csZhjAICDh4OeiR6yMTnq36hRU0bxbAYrg6KKIuP+5ZzUHEYDzcrPSrGysgoJCUlISJg+fTqjOUacTnLycvVVgk1pKRTKoUWHVh9ZHdsU+6b1DeM/D3/aIZHslGykGYQOQsS9iPrq+nN7z93+/baUjNSwscPW+KxJf58ediPMxsWGRCRtnbqVtc3lX8uNDAT+1WHVAyl9CAFokdkPVmlpKW37kR6PfWysc2Rzc4vs7CL2SvmmxsQkaWqqjh49lK1EUhLtbPeaNbQDx3ym7Owic3MLnsyzZ88ODAzkvvrHUwkrg/9C/+Lc4tS4VKHnyIw6qVRq2dcyQbdbLF261M/Pj1EPY97U3LQwm3bzAPf0JvQNneHkppMKKgpTV0yVlZNl+mdqR9t0kdk5TACAdxHvPCd5tjW3hV4L9Z3ta2ZnpjZATVpG+snfT6Ysn6I+UN1wsGHGRzZXvRRlFw02F89pI3qzYaaXIwAtMvsBQiyyjo4O++L/UxGLTPcjAwBsbOxSU9lcSv1/Cd7/r6iojY5OnD7dq7CwvK2NtnLImNrb8b/8cm3RooBp08Yw0rnnU1PzrK3/45Lmzi9iKblzJzVdid98PzQGfWrLKYshvH8V6FKcMtGPopHwQ5wYhKDb2djl8Bq1nE85mydufnzpcU15zbG1x+Kexe25sIdtXcadUU2ykrMoFAoAwNrZWttA+8uHL1NXTFXujExCJBALswrn/v/IZUZiBmLEmbTlf8q3trZmIsLH/o0AtMjsx5dPi4ys4DNOKkeOHBkdzVcAIPYVA3DhwkMSiVxSUmViMsnNbXEaw5m32NhkX9+1Y8cOu8DBFnDSGRWV6OlJ20jXDam5oTnhZQLjUT1NHU0Xb5failqn0f+50ru9lfZ709HGvBDa3vk7xEoHALyPeB+8MtjAQqTzdawgjBo5KiWadqEil9RY00ihUH5e+rOvju/Ty0+P3j2KVWC/zdF+hD0KhWptal3js2bf3H3KGrT4UInRicO8hiH6v3z4oqKhMsj0mx/pfcR7x5GOTFWTSeTkuGR3d3cmOnzs3wh8X5Lq3/0UtHds72piVYKs6dHPGgAA7O3ty8urKypqBw5UZ+XnSSGRyBcuPFqyZJK/v3tk5MdPn3Ls7IJ0dDQVFeVqahqmTx97+fJ+IyMeM3emWior60pLq7hcFcjEL8rjuvHrspKzcC24pR5Lja2ND/9zGDkLN2XZlIIvBfRLYHcF7SrMKizJLZHByqwYs8LA3GDR7kUOIx02+m8sKygrzKI5EPbM3mNiY4Ic3CCTyFWlVWUFZW3NtE0R+uI4p87YTU9PzxWrVpCIJAnOUa2dRjt5z/AOvxuuoqFy7N9jFg4c5/uaOprLDiyrLK4cOXGkm68bGo0uzi1ubmimB01Ofp3sMPLbkcv2tvY3oW9WHV5VWVyJVcDSVz7T36cbGBqoqwvzFjF2Deb7FgLQIrMfL8Qi8/RaIP4KZH0PUYTBYCZOnHjnTvjGjbPYq+ZKralp+O23jdOnj0WhUF+/Pn3xIv7r13ItLdXBgw1tbU2VhAoXeefOy4kT/cX+pc+2H6fDTrOle07y9Ow87YKUHrnNfn/x789+Zyve1UQtLS1LK8v4F/HIohzb6tBo9JE7R9YEr9HQ1uDpxV66bymjksToRNvhtnRznxidOHb6WITh09tP2obaeiZ6t367NXvTbLpUxO2IwKmB9EeY+UEQgF4L9gPNp9eC1SIDAObOnX/9+nP2enlRBw5UnzHj28k6dXXlOXPG7927ZNmyKe7uQ4QzxwCAmzfD58wR9fo4ZMMvr+b34fKF8xa+uP6CZwe0DbR5mmNWJZmJmS4+LnR6VlLWsLHfPBjG1sYD9QdGPoikz6CRCP0R9yPmzP52MoguCDP9HgE4R2Y/xJWVlSoqKvTDeOyZ/n82hHGODAAYOXIkDkeIjU0e+f8vU07i3UB/8yaluRk3apQwe84Ym3f69Gnkmg9GYn/KT58+ffvO7UJEQeIHhDVH1zCGw3+U+0hJTQkR1NDW+OX+LxQKBctw+P75zef29vYGBmJ2l/PTVMjTswjAOTJ7/KurqzU0uN0Rh4ghfmQmi4xGo3fs2H3kyDX2qruX+vPPV3fu3EN34ApXeWRk5IkTJ0SJxSNcvd0ppaiouHzZ8lvHb3VFpUpqSowB+OnmGKlLBivDaI4pZMr14Ov7du/ripZAnb0cAWiR2Q9QbW0tPxZZWpp2XhaPxzNpmTNnTn5++atXH5jo3fz46tWH/PzyOXNE+vgtKCiYOXMmiUQS0ax3c9+FqG7Txk2R9yOLRN5OLkTVjCKPLz3W19X38KAdM4HpR0MAWmQ2I04gEFpaWvhZ5kaiviER4BgVSUpK/vnnuVWrjuFFvt2HUa1AeQKBuHbtiVOnTjNulxZIAwCgoqLCx8entrYWi2W/00tQhb2ZX11dfc/uPSfWnOjBRjbVNV08cPH3kz2zwtmDHYdVIwhAi8zmTaitraVSqfxbZCRKMpMiHx8fW1v7ffvOM9G77XHfvguWlrZcDqrxbEl1dbWXl1deHu1yqR/BIneehFyDq8c9uviIJzhdxHB0+dEF8xbY2nbfcZ4u6ghUKxwCcGWPDW61tbUAAH68Fsgcma1FBgBcvHjZwcHe1dWW6VomNlWKm/T8efzt2xFJSTxOPXCptqyszNfXNyPj2+le2lkY2j2l/TxhMJgHdx+4uLlYOlmaDzHv5t7eO3Ovrqjup1s/dXO9sLregwCcI7MZC8Qic4/DiYhxt8gqKio3b/6zfPlRJPw8m5q6hpSenr9w4aF//rnDzzSfbRO+fPni6ur6+fNneilyIJj+2I8zJiYmZ06d2TltZ20F7Ye529L7iPdXDl95cPcBsjjRbfXCinoVAnCOzGY46upoF2vyY864W2QAgJub26lTZ8aP3/DmzQUDAS+X+x971wEXxfH95wCp0pSmYAOkilhRkSZYsYuIxIoFxfITGxaiomhIREOKRmPDCHYRMSoooqBgREFBpEkvUqQX4eDK/j+6/2zWu727vbs9BJz75BNn37z35s13lndz82bmEVhGglRUVO7s7P3LL7+PHz+eBDsxC4vFmjZt2qVLl7AcFq2trXKKcqV5ny5g6lQfSjLacfTI3d09vyB/09RNJ+NOKqt1xA3FGUkZ+xbvCw8L55/XkcNO+Nj9EIAemWBM0eRmamqfriPg/1FUVJSVla2rq+PDtnDhwrq6Wju7NZGRvwp1hSYfnbyqMjLynZ0379zpu3DhQl48ZOhDhw49efLkkiVLbGxs+vTpU15eTqfTNTQ1vCfzTK1ERq2EeCThxXx3+9bV1a21X/tL5C+afQXvgxSna8mxyb4Lfc+dOWdjYyOOHijbDRCAHplgENGJIT7DNAHTvyQtLa3Kysp/n4j/9fJap6qq5uS0PjR0/8SJVsRMYlNjYl4sXrzvyJGgRYv+O4wrjtbz5z/ljrt+/bqiouLRo0f19fUPHDggjsKuJXsk8EivXr1W26w+HH4YzS8lCfvvhtz9fdvv169e77CroCTRC6iTKgSgRyZAEt3NRtIj9+nTp6CggEDLl6Tvvvuub9++ixd/t3LlzD17VsrIiJ7Y7UvFn56YTJa//5mzZ+9cvnyNqj/s5ubmq1evmpqaWltb02g0JSUl/BV33DZ0S8ruXbv1B+lvnLzR84DnvDWi5LXiAwu9hX70f0fTE9IfxzyGt27yAeqbqoKRPYLhRufIKiqkEgnr6OjU1NS0t/+X9o1A42eSg4NDcvLrFy8KR49e/s8/b3ixCUv/5583o0cvT0wsTE5+TZU7/nwbRmhTU9PatWtpNFpmZua5c+fKy8XNjSJs1zoD/8KFCxOeJkSejlzvtB69lI4Sq578/cR9iHtPZs/kl8nQHVMCafdQAufIBOMo7BwZQZDKykqBCUcAANra2pGR969du7ZgweZx44b4+i63/JxumcAIEqQ3b3IOHTr/7FnakSM/u7kJkVKEhG5w+vRpBQUF9Lzf5s2bmUxmUZG4uVHItNsJeYyMjF4mvjxx4sQauzUT5k1YumNp30F9RbbzVdyr4IPBte9rz5857+joKLIeKNgtEYBzZIJhFXaODACoqKggUMSDtGDBguzsnHHjpk6fvnXSpI0hIfe4c4XwEP1E/vixNTT03pQp/5s2bfPYsZOzst5R7o5fvnz56tUrV1fXXr16Xb58+f79+wCA/Px8PlZ17yppaekNGzZkZ2abaJkst1q+a/6uuIg4RvunTOQkP421jTdO3FgxdsVPnj95LvJMS02D7pgkdN8UGw3NgvFN9VlgZ52dnaOiokje5HDy5EkvL69bt27Nnj1boGYOhra2toiIiJCQ80+exFtZDXF0HDlqlKmRUf/+/XXwi7YIghQXV7x7V5yUlPnoUfKLF2/t7GwWL142e/ZsqvKTchi2evXqM2fOxMfHGxkZmZubV1VVAQBoNFp9fT3JxRwOhd3psbGx8fr16+dDzr9JfTPCdsQop1GGQw0HmgzU+DJHAYvJKissK8ouSk9MT36U/C7t3YwZM5YsWjJlypSOuau6O2H+7fQFemSCsXZwcEhKSmpubiao4yJFRUVNmzYtKCjI21v0nWFNTU1xcXGPHz968yYlO/vdhw9VSkqKamqfFrIbGpqamz9qaWkaGQ0eOnSYo6OTvb09yagjl7GkCM3NzX379tXT00tLS5s1a9a9e/cwsSdPnsA8QxgaVVVVsbGxj2Mfp6WnZWdlNzU2KfVU+pTqCQGN9Y2tLa19dfsONho8euRoJ0encePGCbzcFdMMC98sAnAdmWDo6XQ6+XNT6GZYMX/RKysrz/j8Qa1hMBhNTU3YtuiePXtyJLQnMJo6Umjo/8f0Dh48iHfHn9IqP38OPTKGtKampuvnD0qh0+nNzc2NjY00Gk1NTU1FRQXOhTGsYIEkAnAdmQCo9vZ28h5w4MCB0tLSeXl5BIpEJfXo0aNXr176nz+9evUib4yoDX4hh8b0XF1dEQRxdnZWV1fHqqOiBGfZwJi/tYK8vLyGhoa+vv6gQYPU1dWhO/7WXgBK+gvnyAQwtrW1kZ8jy8rK6unpUeuRCWzqKBIa01u6dGmfPn38/PwAAAcPHtyzZ8/Bgwfb2trevn3LYDDEud6zo/oB24EIdEkEoEcmGDahPDIAwMDAICEhgcVidYNp0alTpwAAnp6eGC7Jyck0Gm39+vVkjpVjUrAAEYAIiIAAXLUgAE2oVQsAgKGhYVtbW0lJCYGuLkXCn9PDDE9KSho8eDB0xxggsAARkBwC0CMTYCvsHNnU1BQAkJ6eTqCrS5GwmB62966qqqq0tHTkyJFdqh/QWIhAV0UArloQjByDwRAqmGZhYQEASEtLmz59OoG6rkPCn9NDrU5KSgIAdJhHxr4Jug5m0NJvGgHKz3NAj0zwPrHZbKGyfKL3Erx9+5ZAV9chYTG9Xr16YVYnJyd3pEcGAFD+imN9gQWIALUISGICAVctKBgjbW1tLS0tfMYNCpR2uArumB4AAA3rDRs2rMPNgQ1CBL5FBKBHpmbUhwwZkpWVReYGOGrao1oLYUwPAADDelQjDfVBBPghAD0yP3TI11lYWLS3t2dlZZEX6VSc3DE9AAAM63WqMYLGfAsIQI9MzShbWX3KDJKYmEiNug7Xwh3TQyfIHbyI3OH9hg1CBDoXAtAjUzMeY8aM6boeGX/3Jh6Ojg/r4VuHZYjAN4gA9MjUDLqBgYGWltbz58+pUdexWghjejCs17GDAFuDCHxCAHpkgvdASkqKzWYTVPAlWVlZZWZmNjQ08OXqdJW8YnowrNfphgoa9A0gAD0ywSD36NFDhF0TY8aMYbPZ6JEKAqWdlUQY04Nhvc46XNCubo4APCFCMMBycnJtbW0EFXxJ48aNAwA8ffrUycmJL2PnqiSM6cGwHq9BQhCE485oQk4dHZ2RI0fW1taGhYVVVVVVV1fv3bv3694NEhERkZeXV11dPX78eMoPl0pUOSHCZIjJyck3b948dOgQGeZOwgPnyAQDIZpHHj9+vLy8/KNHjwg0dlYSr5geuogMN1oQjlt+fn50dPSCBQtmzJgRHBxcVFRU+vmTk5MTExMTEBAwY8aM7du3o+cPa2trr1+/HhQU9PHjR0JtHUZsaWl58+ZNQECAJH7GSVS5aBB9+PBh9uzZV65cYTCESIcoWltUSiHww4WAubl5//79uciCCQ4ODrKyss3NzYJZOwfHqlWrAADx8fHc5syZM4dGo9XV1XFXSY6CejHJ6adQM5pLJSkpiVvnsWPHDAwMMPqJEycAAKWlpRjlaxXQtTg/Pz9JGCBR5cIazGAwHBwcxowZU15eLqwseX5JvK5wjkzw9SbaHBkA4Ojo2N7eHh8fT6C085GampquXr1qampqbW3NbR08rceNCZ6C3oUtI0Ow7rd+/XpNTU3sgo7Oc8G/RC2RqHI88mTKO3bs6Nu3b2xsrI6ODhn+zsMDPTLBWIjskdEV5K6ycMErpgfDegTvhJCkyZMnV1ZWCikE2alBoLa2Vltb++LFixLK1E6NlTy0QI9MAIzIHnn06NHKysoPHz4kUNr5SGfOnFFQUFi8eDG3aR18CSe3AZRQysrKOvL6p7q6OswLm5mZFRcXU9ILqERYBHr16uXj4yOsVCfhJ/jN1Uks+4pmKCoq0ul0EbI09ejRw8nJKSIiorS0VE9P7yt2QWDTaExv2bJl+Ls3ManucVqvpKTE2tra1dV19+7dQ4cOxXonoUJycvLHjx9nz54NAJg/fz6vVurq6h4+fIhuwFi/fn3v3r0BAM+ePcvJyamqqhowYICrqysA4PXr1xUVFTIyMmw2m8FgODk5KSgo5OfnZ2dno0Q1NTX0pCivhgAAbDb7+fPnSUlJDAZjwoQJI0aMIGTOy8u7f/9+Q0ODvLy8o6OjpaUlIRsHkaTy2traO3fuFBcX02g0S0tLZ2dn7Krburq66Ojoqs+fvXv30un0O3fu5ObmamhouLi4oMgAAEiyYebx7w7/2ri4uDdv3jAYjObm5uXLlz9+/HjZsmWY5o4okF/G/nY43dzcAAANDQ0idDk4OBgA8Mcff4gg25EifGJ6CIJ8lbAeuvBKIQj4I5Tjx4+/cOEChUFXBwcHAEBKSgpm8P79+2/duoU9YoUzZ87gI3vl5eVHjhwxNDQEAOTm5qJsV65cQf/yFy9ejFKio6P37t2rqqoKAHB2dm5sbEQQ5MWLFz179lRUVFy5cmVYWBgEFsA/AAAgAElEQVTWBGGhoKDAwcHB39///fv37e3t169fP3bsGACAI7IXEhIycuTId+/eIQhSXl4+ZMiQU6dOESrEE0kqj42NHTVq1IsXLxAEYTKZZ86cmTp16vv371FVZWVlu3fvHjx4MACgqKho3759qKm+vr59+/atrKwUig1l5t8d/rW+vr4nT55E9dDp9A0bNpiYmKCPhP+XRGTv0wXh8MOBwOrVq/F/Qhy1/B+rq6ulpaWnTJnCn+3r1jY2NiorK5uamrLZbEJL9PT0jIyMCKskSiR8xW/evOki0mfChAkckxoFBYV58+ZduHBB/J0PqEdeu3atn5/fzp07XVxcpKSkyHhkFMCAgAC8R0aJ6urqmEdGKSkpKQoKCps2bUIfGQyGlZVVVlYW+sjn/w0NDf369fvhhx/wPBcvXuTwyAkJCVJSUvgdIzExMbKysoWFhXhBjjJJ5e/evZOTk0tOTsaL//DDDyNHjmQymRjx559/BgD4+/uzWCyU2NzcLC0tffToUYwHQRAybPy7w7+2urpaW1sb3yKDwRg/fjyewlEmfF05eIR9hB6ZALEtW7YAADIzMwnqSJBsbGxkZWVFm2KTUE8Byx9//AEA+PXXXwl1ffjwAQDg7u5OWCtRIuErTu0Ofzk5ualTpwYEBBQVFYnTF9QjX7x4MSkpKT4+/ty5c3p6euQ98m+//cbtkXV0dDg8MoIg586do9Fod+7cQRDkwIEDL1++JGP2hg0blJWVm5qa8Mz19fUcHnnUqFGGhoZ4HhaLpaqqunfvXjyRo0xS+eTJk4cPH84hW1RURKPRjh07htHRmXtoaChGQRBEQ0PDy8sLTyHDxr87/GvRq3QfPnyIb5TjKw1fRflPOlQ5XEfmmEV9elRWVgYANDU1EdSRIM2aNSs+Pv7+/fvogiAJiY5m4RPT64Sn9Xx8fLy9vUXA6OXLl6jf/HSBi5TUpEmTFi1aNGvWLHQpQASF3CLm5uboquv48eOFugsFW0vl1slB8fDwiI+PX7ZsmZ+fn56e3qhRozgYCB/Dw8NNTEx69uyJr+XYq1dfX5+UlISu0WFsUlJSRkZG/G/6JqO8tbX14cOH6M9NTDkAoH///pqamn///ff69evxdHNzc/yjjIwM4blZPmz8u8O/FgBgZGTk5OQ0ZcoUe3v76dOn29jYjBw5cteuXXirOqAMPTIByGJ65Dlz5vj4+Fy/fr1zemT+Mb1OeFpP5vOHYJwEkdDNTyoqKmvXrvX09DQwMBAkIVa9oaEhOgkVSwuR8LFjx16+fHn48OG8vDyiek5aVVXV+/fvBearzczMBAB8+PDh6NGjeBVubm4mJiZ4Cr5MUvnbt2/ZbDb6p4QXR2c8KSkp3EQOCuHdMtwKMTb+3eFfCwCg0WhXrlzx8fG5dOkSuoHVzMzs7NmzY8eO5TBMoo/QIxPAq6KiIs4cefDgwaNGjfr7778bGhoonI4RGCoSCb17k3vyginrNrn1FBQUdu7cuW3bNixqj/VREgV7e3tJqAUAMJlMc3PzO3fu+Pj4BAUFCWxFQUGBRqNhR1R48WtqagIABg4cuHXrVl483HSSytHpOeE8t729nWPyzt2KCBT+3cnNzeXfWQRB1NTUzp0798cffyQmJsbFxR0/fnz69OklJSWKiooi2COaCNyPTIAb6pHFuVdz0aJFdDo9PDycQPtXJfE/p4ea1m1O6w0dOjQgIKBj3LGwo4oe+cNLIQjCa4q9a9euo0ePnjlz5pdffrl58yZeirDcs2dPAwOD9+/fE9ZiRAMDAxUVFcIFCj7enKRyY2NjJSWl0tJSrDm00NbWVlVVNXz4cA66+I/8u8O/Ft1uePr0aQCAvLy8vb393r17k5OTWSxWbGys+LaR1wA9MgFW6N9wdXU1QR050nfffScjI4OGtslJdBAXn3N6qAUwt17HjAT665vFYmHNZWdn0+l07BErHD16dP78+X379nVzc9uwYcOKFSvy8/OxWl6F9evXp6amokFajIfDP9JoNG9v77S0tNraWowHANDY2Lh79248haNMRrmUlJSXl1d0dDRHp+Li4tra2jZs2MChU/xH/t3hX4uGlDmmUHp6etbW1hz2i28nfw3QIxPgo6GhAQCoqakhqCNH0tLScnR0fPTokcB5Cjl9lHHxj+l1wrAeZT2nWhF6lxuZ8C/K2dLSgjfBxsZGRkamqKgII169elVXVxfvHFks1uHDh69evYrFJwMDA2VkZObPn19VVYUJEhY2btw4btw4fESUyWSiGzzwTfj6+pqZmeHZAAAHDx7ks6gFACCp3N/f38DAAL9IzWAwAgICNm/ejF/hQZHB44MgSGtrK8eKBxk2/t3hXwsAePjwIf4KhPb29oqKCvRKKUKQJULk2M8BHxEEKSkpAQB4enqKg8aFCxcAAD/99JM4SqiVffHiBQBg2bJlfNT6+/sDAB4/fsyHR3JVhLvfJNecCJpZLNb06dMtLCzk5eWVlJQ0NTXHjh07e/bs9vZ2bm05OTlOTk46OjqKiopGRkYuLi54npMnT44ePTo0NDQ8PPzAgQMZGRmGhoY0Gs3c3Pzq1avr16/X0tJSUFCQk5O7e/cuKujn59ejRw8FBYV+/fpNnjy5uroar5Cj3NbWtnnz5uXLl9+9e/ePP/7YunUreqa8R48ew4YN++eff1B+Op2+bdu22bNnh4aGhoSEbN26FX/shUMn9khSeUtLi7e396pVq86fP//zzz/PmjUrJCQEU5KRkeHo6Kitra2oqDh48OA5c+YgCLJr164RI0YoKioqKys7OTnduHGDJBuZ7vDpbFJS0qRJk37++efDhw/fv38/JCQEPbOHWctdkMTrCvcjc+P86fsZADB37lyCOtKklpaWXr166evrY/veSYtKipH/OT201a91Wg9tXRKvuKTQpEIvnU7PzMx8/fo1+pK8efMmNze3traWwneGyWS+ffu2uLgYQRAWi5WcnFxQUMC9WZ7FYmVkZHz48EGobpFXnpmZWVZWJpRycZj5d4ewlk6nt7S0IAhSV1eXnJxcUlLC6/wUZpgkXlfBAVmJzMw7vVJlZeXhw4c/efJEHEu3bNkSFBR07969adOmiaOHEtmmpiZdXV09Pb309HQajcZLZ79+/RQVFbOzs3kxSJROZoeARA2AyiEC5BGQxOsK15GJ8dfQ0BAnsocqXbduHY1GQy8sJ26mA6kCY3rwEs4OHA3YFESAGAHokYlx6d27t/ge2dDQ0MnJ6e7du4WFhcTNdCBVYEwPhvU6cDRgUxABYgSgRybGRVtbu6amRvwMXV5eXmw2G71HgrilDqGi5/QWLFhAePcmZkL3uIQT6w4sQAS6HALQIxMPma6uLpvNrqioIK4mTZ09e/bgwYNPnjxZV1dHWoh6RoHn9NAmu81pPeoRhBohAh2CAPTIxDD37dsXAFBWVkZcTZoqLS29ZcuWpqamrzhNJnNOD+1QZz2t1w5AswT+IziOQXpgRWQU/1eXiA1DsS6CALzXgnigdHV1AQCUnO/w8PDw9/cPCgry9vZWUlIibk+SVDIxPSys5+7uLklbRNNdC4CAA8Ei6VUF4NO18aJ98vLyfv/994qKCgUFBW1t7bVr1w4cODAgIGD79u0cV6zh9U+cONHHx2f69Ol4Ir4cFhbGZDJRiq2tLTozwDPgy5GRkY2NjShlzJgxAwcOxNfCcldEAHpk4lGj0CPLyclt2rRpx44d586d27hxI9ZeVVVV/udPQUFB1YcP1R8+1NTUVFdVsVis+sZGgCBMFgthsz+l+KXR1FRUpKWlNTQ1e/furaGlpamlNXDgQAMDA319ffSCFUwtd4FMTA+G9bhx40MJDw8/fPjwqVOnLCwsAACFhYV+fn42NjZ+fn5btmzh5ZGLi4ufPn2qq6vLxyPT6fR379799ddfZWVlrq6ufA7iJycnr1y5sry83M3NzdbWVqi7QPl0DVZ9XQSgRybGH/XI4q9aoNq9vLx+/Pzp06dPyuvXLxMTXyYnS9Fo+np6Bnp6g3R0BqirjzA11VBT662qKi0lpf758jkZaWkajcb4PGOqb2pislg1DQ3V9fU19fUfcnP/jo/Pf/8+r6SEjSCjR44cZWU1ZuxYR0dHjlu1BN69ifUfhvUwKPgXysrKvLy8EhISsOs9Bw4cGBwc7OLigt0MSajhypUr0tLSt2/fbmlp4XWd2KJFi9DfK+Xl5Tdv3qyvr1dTUyPU9vjxY1tb22vXrgUGBvbr14+QBxK7HALQIxMPGfprkZJVi/b29rCwML0+fd7l5v7+008TRoz438yZo3fs0OrVi7htIakfamuTMjNfZmQcP3x4yeLF48aMcfvu00dOTg4AQDKmh16LTKPRhg0bJmT73xz7xYsXDQ0NMXeM9p9Go/3www8cV9VwQJOUlLRw4cLQ0NDbt28vXLiQoxb/KC0tvWLFilu3bl2+fNnLywtfhZbpdLq8vDx67T35y++59UBKZ0MARvaIR0RDQ0NOTk58j3z61Cn9gQOvnTu3b/nyqocP406e9PP0nG5jQ5U7BgBo9erlPH78vtWr7//66/u7d1dPnnwjONhg0KA/T54kH9NDVy0GDx7Ma0ZGDNM3SU1NTeW+SxMAYGJiwud288zMTDMzs++++w4AcPnyZYHITZs2TUdH59y5c4ScERERaNJrwlpI7LoIQI9MPHY0Gq1///5inuzwXLXq5G+/RQYF3QsKcnF0VJb8vdc9FRVdHB3vBgVFBgWdPn582tSpTU1Na9eu5XNsGu0/vIST+D0gompqaiYmJhYUFHBXWltb85qxXrp0yd3dfdKkSRoaGlFRUQJ3Q8rIyCxdujQpKenNmzfcDRUXF8OVCm5YugEFemSeg6ivr19cXCzydqUnT5788/Rp/KlTFp/zwPNsRjIVFoaG8adOvXnzRk5ObsmSJQIbSUpKAgAIzAMkUM+3wDBlypS2trYZM2Zw+8off/zxUySW6JOdnW1sbCwjI+Pq6oouZBFxfUHz8PAAAAQHB39B/RxIhNsqODDpNo/QI/McSn19fSaTid7MyZOJd0Vra2tdfb0cj79P3nKU1cjKyKgqKQUGBqqrqwtUCsN6AiHCGKZOnTp//vyMjAxLS0tzc/P169ffuHGjubkZAMDLHb948cLKygrVgO4vJLNwYWJiYm1tHRoayhEwvH379qxZszB7YKE7IQA9Ms/RHDRoEACA8McpTxlcxaRJk95/+DDD27tCjJvvcfqEK1bW1s7asqW0snLdunVkJOFpPTIoYTwXL17ctm2brKxsRkbGH3/84erqqqmpuX//fl5b0K5cuYKlfLaxsenXr19sbGx5eTmmkFdhxYoV1dXVd+7cwRgQBGEwGGjYFiPCQrdBAHpknkOpr68PACCTQYdQBbqeOMLExNzV1fPQocTPqXkJOSkkstnsF+npa374wWz+fEsjIwAAYQyKu8XOelqP29JOQZGVlQ0MDKyqqrp27ZqHh4eenh6dTvfz8/P09OS2j81ml5WVYcu+NBpt4cKFbDb72rVr3MwclAULFigpKeHjezExMU5OThxs8LHbIAA9Ms+hRD2yyHNkVO/Bdeuyb97sr6Ozyt9fd9q0Vf7+527ffpOTw8QlWONpAbkKJouVlpt77vbt1QcP6jk7rzxwoJ+2dvbNm4fIzY6x03pwEZkc3v9xqaiouLq6njt3rqSkJCEhoX///mfPnkUTtfzHBEBsbKyqqmoM7oPurSSzcKGsrOzq6hoVFYVtjU9JSYE7FPHwdrMy3I/Mc0DFnCNjejXU1L5fufL7lSvz37+PTEiITUo6EhJSUllp8Pl4iIGe3sA+fXR69/50POTzCRG5Hj3k5eQUPu8mRpXQ29tb6fQ2BqOmoaGmvr66vr6ipqawvDy/tDSvtDS3tLSftvYoU1OrIUN2eXjofz7/jbVOpgDDemRQwnjevHkzdOhQ7BEtWFtb37hxw8rKKioqClsyRquuXbtmZmaGT/nco0ePQYMGJSYm5uXlcexr5lALAPDw8Dh//vyFCxd27txZV1dHJirArQRSugoC0CPzHClVVVUNDY2cnByeHEJW6Ovqrl+wYP2CBQCAppaW3JKSvM8u9W1e3sMXL7DzeO1MZiudTm9vx9TLy8oqyMvLysj0VlNDz/Xp9O49oE8fK3NzAz09w379xNxXB8N6GNRkCr/88gt+GQETGT169NChQzMzMzEKAKC9vb2+vn7Tpk14Ivq7ZP/+/VeuXPH19eWo4ni0s7MzNDQ8d+7czp07w8LCXFxcOBjgY3dCAHpkfqNpYmLy6tUrNpvNa5MpP2G+dcqKisONjYcbG/Pl6qBKGNYTCuiqqqqysjLCO4A0NTUHDBiA1xYZGTl16lQ8BS27u7vv37//8uXLAj0yOk329fWNj4+Hc2RuJLsZBa4j8xtQExOTlpYWkTfA8VPdmepgWE/Y0QgKCuIWYTKZaWlpdnZ2+KrLly/PmTMHT0HLxsbGI0aMSE9PR/NDczBg17+h9GXLlklLS2/btm348OEcnPCxmyEAPTK/ATU1NQUAcPwO5SfQBevgaT0RBi04OPjYsWOsL8OzQUFBlpaWzs7OmMLw8PBbt261tLRgFHxh0qRJAICzZ8/iiQCAurq6+/fv44+f6OrqTp48uby83NHREc+MboL++PEjngjLXRoB6JH5DZ+JiQkAAB+T4cfdNetgWE+EcYuIiNDR0ZkwYcLx48djYmKioqLWrl2bkJCAbZ9ITU0dO3bsokWLpKSkzM3NQ0JC8K2kpqY6OTmdOHFCUVHx9OnT1tbW2EKzs7OzqalpZWWlnZ2djY1NcXExKuj5+YOtnrm7uw8fPvzx48eKiopOTk4TJ058/PgxvglY7qII0BAE6aKmd4DZBQUF+vr6np6ef/75pwjNfUoe/vl0sgiyAICA4OBdn8/RiiYOAKCNGiVwfA8ePLhnz57Hjx87ODiI3BBVgjzSrVd0qhvrExMTx4wZAwBoaWmJiYnJyclRUFCwsrKC2wepeg26ih4er6tY5sPIHj/4BgwYoKio+FVWLdLz83cfPz557NiRn1dO+FkpXh0M6wmLH+qOAQCKioozZ84UVhzyQwT4IABXLfiAA6SkpIyMjDIyMvgxSabuWnT0p2sb79+XjPr/tMKw3n9YwBJE4GsjAD2ygBEYOnRoTU1NaWmpAD6qq+ubmkaYmFx58IDXVQmUNAjDepTACJVABKhCAK5aCEDS0tISAJCSkqKnpyeAlbrqxLdvrczN+2lrb//116cpKfYjRlCn+wtNXSSsJw8ANflWvug8UPzyET5BBL4+AtAjCxgD9A6B1NTUGTNmCGClrvpWbKzvihV1TU0+v/12OSpKch65i5zWUwOAONccdZBDTRCBToEA9MgChmH48OE0Gi01NVUAH3XVbDa7ta2tp6JiT0VFm2HDbsTE/O7j00NGIiPVNcJ6TU2gsZE6gP/VJC8Pevf+9wH+CxHoFAhI5O+8U/SMIiPU1dX79euXkpJCkT7Bah4nJTmMHInyuU+Zsu7HH6MTE53HjxcsKTxH1wjrffwIKiqE75wgCVVV0Tzy1atXCVXLysr269dv2LBhMkRfn7ykevXqZW5uznEmG0GQe/fuEbbCQXR2dkZTdoWFhWEn/WxtbTkUckhFRkY2/vslN2bMGJiRhAOfr/gII3uCwR8+fHhubi72BgsWEI/jXkLCNGtrVIfrxIky0tIS2nEBw3qiDVRLS0t6evqaNWsWLlwYFRXV3t7OZDIZDEZ+fv7hw4cHDRoUEBDAnQyMUKqtrS0lJWX58uVmZmb4a+nRi7mjo6MXLFgwY8aM4ODgoqKi0s+fgoKChISE8+fPz549e8aMGVVVVWgv6HR6RkbGjh07lixZsn37dj5dS05OXrly5cKFC8PDw6urqyUaOuZjBqwiRADOkQlh+YJoaWkZERGRlpY2XjITVXxj7QxGyrt3Vx48wIgD+vS5FRvb2taGv58TqxWn0EXCeuJ0USKyaPq758+fR0dHb968meNmzpycHBcXlzt37ty7d09VVRWzgI/U9u3b//zzz5kzZx49enTLli2fjvbQaBs3bgQAvHr16unTp7t27eI+foLeoVFSUqKlpQUAWLRoEXqlXHl5+c2bN+vr63mlFX/8+LGtre21a9cCAwOxe/QxO2Hh6yIA58iC8R/xeasD6r8Ec4vHEfnsmfuUKSYDB2L/rZg1q7ml5e8nT8RTTCDdRcJ6BJZ3BhKanIU7RcvgwYOjo6MLCwvnzp3LfWCSl9SaNWsGDRrk4+PDcfEQyk+4DGJhYbFt2zbsmDWKibS09IoVK+h0OnaemwMrOp0uLy+PnsbGzmRz8MDHr4gA9MiCwR83bhwAIDExUTCr2ByPXr70mDVrzJAh2H8b3NzkZWUlsXDRNcJ6YkPa8Qq0tbX37dv3+PHjU6dOkW993LhxLBYrKiqKvMjMmTO5LyacNm2ajo4O4Q3OAICIiIjZs2eTbwJydjAC0CMLBlxLS2vAgAHPnz8XzCoeR3NLi7ysrLTUF4OioqQ03cYm8tmzhs/ZjsVr4QvppKQkQ0NDXr9tv2CFD0IisGTJEjk5uR9//JH8Ki06HeZ1URzWfkNDw4N/F7VMTEwquGKeMjIyS5cuTUpKwt8eh4kXFxfDlQoMjU5Y+OKPvxPa10lMGjt2bEFBQWVlpUTtOXTuXB8NDe4m5k+c2NbefuHuXe4qkSloWG/UqFEia4CCfBBQUFAYNmxYYWEhujTEhxOrQh3o5MmTMQphoby8HFvZkJWV9fPz42ZD16yDg4M5qgoLC+G2Cg5MOtsj9MikRgS9XIY7qSUpYRJMz968Gb106e9Xr/qfORPw5R+S/5kzP54/rygvv+/PPxd9/308RfvwYFiPxLCIxYLuP3v27BkZLTExMampqdu3b0eXyHiJsNnsEydO4GtlZWXxj2jZxMTE2to6NDS0HZcbDABw+/btWbNmcfNDSudBAO61IDUWqEdOTEyU0F1f1kOHvrxwgdCUPatW7Vm1irBKHCIM64mDHhlZdKNFeXk5N3NWVha6d5jFYlVVVT148CA8PPzkyZOenp7czACAzZs3q6qqfvz48fXr19XV1UeOHCFkwxNXrFixatWqO3fuzJs3D6UjCMJgMORwGXXx/LDcSRCAHpnUQIwYMUJWVrZjgnukDBKbCYb1xIZQgAI0wwh6fIODNTk5ub6+HiUqKSktXbo0ICCAcLaL8qDZSQAAra2ta9eu5dBG+LhgwYJNmzadO3cO88gxMTFOTk6EzJDYeRCAHpnUWMjLy1taWr548YLJZBJuRSKlpTMxJScnw7CeRAekpqYGAKCrq8vdyuzZs7FLlrlr+VAUFBS2b99+H3dHK51OBwDIy8tzSCkrK7u6uoaEhGBJWlNSUrZt28bBBh87GwJwHZnsiNja2jY2NnbkcWqylgnPV1VVVVJSAsN6wiMnhERZWRkAwN7eXggZEqy6urqGhoYYY2hoaH5+PvaIL3h4eLBYrAufV8NgEms8Mp25DD0y2dFB/7RiY2PJCnRiPhjWk/TgVFVVvXnzxtLS0sLCgtq21NXV8RuKU1JS8A4a35adnZ2hoSG6MTksLAxbvsDzwHJnQwB6ZLIjYmtrKyUlFRcXR1agE/PBsJ6kB+eXX35hs9kHDx6UaEMIghQUFPBZgPbw8MjJyYmPj4dzZIkOBIXKoUcmC6a6urqFhcXTp085csKTle9MfDCsJ9HRiImJCQoK2rRpk6Tv1A4PD+c4xo1d/4Z2cNmyZdLS0tu2bRs+fLhEuwyVU4UA9MhCIOng4NDQ0NCRdyULYZwwrDCsJwxaxLzNn49Qfvz4EV/d2tp65MiR6dOnb968OSgoCF+FlgmluNkwCqqfoxW0Njo62svLy8TEBGOuq6u7f/8+/qierq7u5MmTy8vLHR0dMTYAgLBm4GVhWaIIwL0WQsBrb2//66+/xsXFoXcPCSHZmVjRsJ67u3tnMqor2TJ9+vSCgoKsrCwAgLu7+5AhQ6SkpBAEaWhoqK2ttbKyev78OZp6Bt+rmTNnFhcX5+bmKioqfvfddyYmJuvXr3d1dcXzYGU2mz1z5sz8/Hy0lUWLFllYWKDTYSaTWVpamp+fj14Pa2xsjEo5Ozu/evWqqanJzs5uyJAhly5d6t+/PwDA09MzPT0du1TI3d09KysrJydHUVHRycnJ2NjY19d3woQJWNOw8HURoHFfT/V1DerMrVdXV2tra0+fPv327dtk7KTRaEhSEhlOCfHQRo3iHt/IyEhnZ+cjR45s3bpVQu2KrPYTYgjCKV5XBz7vJOOki/mspAT69BFTBxT/lhEgfl3FQwTOkYXAT0NDw9LS8tGjR21tbV337FPXC+upqwN1dSHGCbJCBLosAtAjCzd0U6dOff369T///OPg4MBfMjs72236dKCszJ9NorVu06dnZWXhlxoBADCsJ1HMoXKIgDgIQI8sHHpTpkwJCAi4f/++QI+spKT06Pnz6IcPJ40ZI1wbFHHHvHjx6PnzQCUlDn0wrMcBCHyECHQeBOBeC+HGwtraWkVFBX+MlZe8np5exN9/rzh0aE1AQE5xMS82SdBziou9fvppub9/eEQEx2W48LSeJACHOiECVCEAPbJwSPbo0cPBwSElJYXwTi8OXePGjXudmtrH3NzG09Nh3bqfL16UqGvOKS4Ounhxwvr1tmvXapuavn7zhjsxIDytxzFG8BEi0KkQgKsWQg/HlClTbt++HRMTs3jxYoHCGhoafvv379y169GjR7cjIpw2bmxtaRk9ZMgoExPTgQMN9PQM9PR64/JjClSIMdQ0NOSVluaVlmYWFiZlZSVlZMjLy0+bNm3bnj1OTk7cV8+ggl0vrAdANaj+AD5gHaeqoAyU+4F+VGmDeiAClCBAtNmIEsXdV0l+fr6BgcGiRYtCQ0NF6GV5eXlSUlLSy5fZWVl5ubn5BQXt7e19tPlX/f8AACAASURBVLR6q6lpqKn1VlWVk5GR69FDUUEBsNmf9EtJtbS2tjEYbUxmTUNDdX19TX19RXW1jIyMwaBBBoaGxiYmI0eNGj16dB8Se7nmzp0bERFRW1vbOZM5EW4nqgAV78F7EaDmL6IKVA3Bf1f28GfG14aFhWFH42xtbdGb6fEM+HJkZCS6cRgAMGbMmIEDByIIcu/ePTwPr7KzszONRhOzOV7KIV18BAhfVzHVwjmy0ADq6+ubmprevXu3vb2dz5UCvPT26dNn5ucPxtDU1FRRUVFdXV1TU1NdXd3e3k6n01tbWzGGvgoK8vLysrKyGhoavXv31tDQ0NbWVlFRwRjIF2BYjzxWvDjpdPq7d+/++uuvsrIyV1fXixcv8uJMTk5euXJleXm5m5ubra0tlnMvPz8/Ly/v9OnTLS0tLi4ujo6O6OkPBoNRVlaWk5MTHh7OYrEqKyu1tLTEb46XeZDeCRGAc2RRBmX37t0BAQHR0dETJ04URf4ryVRVVWlpabm7u1+6dOkrmSCgWcJJR2ebI6N9WLduXXl5eVRUVHl5Oa8fHEeOHHn58uW1a9cI843a2dk9ffo0KSlp5MiRHLikpaXZ2dk9fPgQqxK/OY4m4KP4CBC+rmKqhZE9UQBEr0OMiIgQRfjrycCwHoXYS0tLr1ixgk6nX758mVAtnU6Xl5dHjy9jh5jxnOi8mDABgoWFxbZt24pxW3TEbw7fNCx3WgSgRxZlaKysrPT09MLDwwmO/Iqir4NkumJYr4OgEamZadOm6ejooBcQcyuIiIjAX2TMzcCfMnPmzJKSEjyPRJvDNwTLXxEB6JFFAZ9Go82cOfP9+/eojxNFxdeQgaf1qEVdRkZm6dKlSUlJ+OvWsCYIVyqwWsJCQ0PDgwcP0CoTE5OKigo8G+XN4ZXDcidBAHpkEQeiKy5cwLCeiIPNW8zDwwMAEBwczMFSWFg4cOBADqLAx/Ly8rS0NJRNVlbWz8+PQ4Ta5jiUw8fOgAD0yCKOwoQJE1RVVW/evCmifIeLwdN6koDcxMTE2to6NDS0vb0dr//27duzZs3CUwSW2Wz2iRMn8GzcO3kobA7fECx3HgSgRxZxLGRlZWfNmpWRkYFNakRU1FFiMKwnIaRXrFhRXV19584dTD+CIAwGg+TtgJs3b547d+7kyZO1tbV/++03TAmvgpjN8VIL6Z0EAeiRRR8I9NL3K1euiK6iAyVhWE9CYC9YsEBJSQkf34uJiXFyciLZXFBQUHh4+IMHD4qLi5cuXSpQSszmBOqHDF8XAeiRRcd/0qRJWlpaV65c6RI7LmBYT/SR5iuprKzs6uoaFRVVVlaGMqakpHDnEOGr41OlgoLC9u3b8Wz0zx88BQBAVXMcauFjJ0EAemTRB0JGRmbevHn5+fkvXrwQXUtHScKwnuSQ9vDwYLFYFy5cAACIk/VZV1fX0PC/g92hoaH5+fncZlPVHLdmSPnqCECPLNYQoAsXvM4IiKWaUmEY1qMUTk5ldnZ2hoaG6MJFWFjYvHnzODnIPaurq+O3MKekpOAdNKaDquYwhbDQeRCAHlmssbC1tR0wYMDVq1dZLJZYiiQsDMN6EgYYeHh45OTkxMfHizNHxhuJIEhBQQH3dguUh/Lm8E3D8ldEAHpkscCn0Wjz58+vqKiIjY0VS5GEhWFYj3KAsevfUM3Lli2Tlpbetm3b8OHDKWkrPDwcPWaNapN0c5TYDJWIjwD0yOJiuGzZMgAAPtQurkYJyMOwHrWg1tXV3b9/H39UT1dXd/LkyeXl5Y6Ojvi2mpubAQAfP37EE9EySiSsio6O9vLywhIkUtIctwGQ0gkRgLdxijsoFhYWo0aNunnzJlU/V8U1iEgehvWIUBGR5uzs/OrVq6amJjs7uyFDhly6dKl///4AAE9Pz/T0dOxSIXd396ysrJycHEVFRScnJ2NjY19f3wkTJrDZ7JkzZ+bn52dlZQEAFi1aZGFhgU6HmUxmaWlpfn4+eqWysbExAEDM5kTsJBT7SgjA2zgpAP7EiRPr1q07fvz4unXrKFBHtYrOfwkn1mPC6w1bQMtHQDDHxKREK8gBORUgyh3TojUHpbofAoSvq5jdhB5ZTAA/iTc0NPTt29fExKRzXjwUGRnp7Ox85MiRrVu3UtBbSaqQxCsuSXuh7m8aAUm8rnAdmYJXSlVVde7cua9evXr9+jUF6qhWAcN6VCMK9UEEJIUA9MjUILtixQrCO8Co0S6eFhjWEw8/KA0R6DgE4KoFNVgjCDJ48OCamprS0lIlJSVqlFKkpX///vLy8u/evaNInwTViPYzsLa29u7du69evaqoqKDT6Xp6ekZGRrNmzRowYIAEbeVSnZubGxwc7O/vjwX3uFggoVshINrryh8COEfmjw/ZWhqNtnbt2vr6etESVJNtRni+7n1ar6CgYPHixfr6+hEREQMGDJg9e/bSpUuNjY1TU1OtrKwcHR2fP38uPGaiSCQmJo4bN+706dMNDQ2iyEMZiACKAAI/FCFQV1enpKRkZmbGZrMpUkmBGjQR/ZEjRyjQJXkVAADyjZw9e1ZDQ+PAgQNNTU3cUkwmMzg4uH///t7e3kwmk5uBQsrdu3dVVVU3bNhQXV1NoVqoqpMjINTrSrIvQvwBkNT4LbOtXr0aAPDo0aPOA4K/vz8A4PHjx53HJD6WkH/F9+3bZ2xsnJ2dzUcbgiB1dXVTpkyZMWMGg8Hgzyly7Y0bN6ZPn56eni6yBijYRREg/7qS7yBctaDyx9KmTZtoNNqxY8eoVCqerm4Z1gsJCbl48WJCQoKRkRF/eNTU1O7evYsgyObNm/lzilw7efLkO3fumJmZiawBCkIEMARgZA+DgpqCvb19QkJCbm6uCGnWqLHgSy1dKKwHACATKqmsrBwyZMiTJ09MTU2/7CvPp8bGxhEjRpw6dYrjiDNPAd4VCIKgC0G8Wf6/xtnZmUajCWSDDHgEamtrw8LCqqqqqqur9+7dq6amhq/tbGUyr6uwNsM5srCICeDfuHEji8U6efKkAL4Oqe6WYT1/f/9ly5aRd8cAABUVlYCAgB07dlCCen5+fnR09IIFC2bMmBEcHFxUVFT6+VNQUJCQkHD+/PnZs2fPmDGjqqqKkua+KSUIgtTW1l6/fj0oKIjwxo/ujwb5BQ7ISQYBBoMxYMAANTW1hoYGMvwS5elaYT00FQt/QOh0urq6ekVFBX827lo2m21oaJiSksJdJRrF1tYWAJCUlMQt/ubNGzU1NY6qM2fOsFgsbmaSFDHFSbZCIZs4BqMZYEtLSym0RxKq4DpyF/iClJGR2bJlS319fWeYJne/03qxsbFDhgzR1tYW9lWg0Whz5syJiIgQVpAXP3o3kIwMwV1dFhYW27ZtKy4uxsuiwVU8RaiymOJCtUUJszgG9+jRgxIbuqISuGpB/aitWrVKU1Pz559/ptPp1GsXRmP3C+ulpaWNGTNGGAz+47Wysnr79u1/z5IszZw5s6SkBGuBzWbHxcVhj8IWxBQXtjnx+bucweJ3mSoN0CNTheR/ehQVFTdu3FhZWYkmXvuvosNL3e8SzvLy8j59+ogGZN++fbHkpKJp4C/V0NDw4MEDlMfExKSiogLjv3z5cmlpKfYobEFMcWGbE5+/yxksfpep0kDwm4sq1d+yng0bNgQGBv70008rV67EZ4LoSEzQsB6aCbAj25VoW1JSUiJn/kYQRKKbH8rLy9PS0iZPngwAkJWV9fPzAwCUlZVdu3Zt165dAICIiAj0ZRg2bBh2wpvNZl+5cuXdu3dsNtvIyMjd3R3/wggU50a7rq4uOjq66vNn7969dDr9zp07OTk5GhoaCxYsUFdXBwC8fv36yZMnra2tY8aMmTBhAoeSvLy8+/fvNzQ0yMvLOzo6WlpaogyEmnNzczU0NFxcXHr37i1+fzks+QYf4RxZIoOurq7u6emZn58fFhYmkQZIKO2WufX69Okj8jy3vLy8b9++JJAThYXNZqPxKEwYTZFXXFysrKyMer3qfz/YchaTydy8ebO5ubmfn9++ffvS0tJGjRqF7yB/cawtfIFOp6empv7666/79+8vLS09fPiwjY2Nj49PSUnJsGHDKisrT506VVRUtG7dugULFixdunT//v148dDQUDc3t0mTJu3atcvd3X3x4sWnT59GGQg1b9++vbi4eOjQoR8+fAAA8DdYYH/xlnyjZUmEIKFOBEFKS0vl5OQsLCzEibCLg2TXOq2H9lRg8PrBgwfjx48XDZYtW7b4+/uLJsst5eDgAACYMGHCnDlzJk2apKGhAQDgdVp9586dAADuw9xXr14dNWrU69evUf0sFsvY2HjWrFkczfES52DDP/78888AAH9/f+z1a25ulpaWnjlz5p07dzDOHTt2qKmptbW1oZSEhAQpKSn8LpGYmBhZWdnCwkJMhJfmo0ePYjy8DCbZ3zNnzgAA4F6Lb/Q7SULd1tXV9fT0TEtLu3r1qoSa4K+2+4X1AAD29vaZmZnl5eX8+85diyDIrVu3Zs+ezV0lDiUoKCg8PPzBgwfFxcVLly4VVlV7e3tSUhKWr09KSmrMmDGU3I6EztAHDRqEXUSnpKSkrq6emZk5ffp0zM5+/frV19dXV1ejlE2bNunr648cORJjcHBwUFBQwKeR5KU5NzcXk+JVkFx/ebXY5ehw1UKCQ7Z7925FRcV9+/ZxJBKWYJM41d0vrIeuzy5evPinn37CdZRU8cqVK1paWhYWFqS4hWdSUFDYvn07Xo7++YOncJcXL15cUlKCufKmpiYpKamamhpuTtEo5ubmeEEZGRluCgCgra0NAFBfX5+UlIR3xwAAKSkpIyMjNCUgXhW3HlQJnoe7LOn+crfY5SgwsifBIdPR0Vm/fn1gYGBISIiHh4cEW+JS3S3Demgvv//+ezMzsxUrVgwdOpSr38SEurq63bt3//XXX8TVFFF1dXUNDQ0xZaGhodbW1gLvu9DQ0Dhz5szdu3eNjIxMTU3r6upYLBamRMyCsrIyhwZuCgCgvb0dAJCZmQkA+PDhw9GjR/FSbm5uWFZsjM6tB1WCMfAqSLS/vBrtQnTokSU7WDt27Pjzzz/379+/aNEi9OeeZNv7V3u3DOuhndPU1Dx27NicOXOeP3+upaX1b495/stkMhcuXOji4mJnZ8eTiYoKdXV1/KpISkoKNvnlUP/27dshQ4YAAAoLC+3s7MaPHx8cHIze4ZCamsrBzP2IiXNXiUPR1NQEAAwcOJDyfIyYwaL1V5xOdTlZuGoh2SHr3bu3t7d3UVHR2bNnJdvSl9q732k9fP/c3NxWrlxpbW2dkZGBp3OXa2pqpkyZoqSkJMJCB7c28hQEQQoKCnh9B2NpDWbPnt2rV69Lly5hV+pgC1wfPnxAJ63cjWLi3FXiUAwMDFRUVLgXKNBwqziaMYNF6684TXc5WeiRJT5kW7Zs6dWrl7+/f3Nzs8Qb+7eBbhnW+7dzn/719fX18/Ozt7ffs2cPYdoOBoNx6tQpS0vL0aNH37hxA7/JF69HQuXw8HB8i+j0k8POsrKyN2/e2Nvb43dJY14YrUXNIxSn3HIajebt7Z2WllZbW4tX3tjYuHv3bjxFYJnQYPL9Fai/GzNAjyzxwVVVVfX19S0vL+/IaVq3DOtxDNXixYtfv379/v37AQMGzJo1KzAwMDQ09OrVq7/++uuyZcv69OkTFhZ2+/btH3/8EdtvwKFBnEf0ZjLC+8mio6O9vLzwa6/oyW90RaK5uRnNxKipqammpoafk6alpQ0aNAgAUFFRkZmZiV3oSijO3/iWlhYAAPp/lBNBkNbWVjwFAIDajwXlfH19zczMvL298coPHjyIpmJAibw0Y0oAAIQGk+8vahWHqXiTunEZ3o/cEYPb3t5uYWFRXFyM/zPjbpjBYOTn52dlZeXl5TU3N3/8+GlOraTUs2fPnvr6+qampvr6+mQuYamqqtLS0nJ3d7906RJ3K52ZItqFs42NjZGRka9evSorK2MymTo6OqampjNmzJDEeRA2mz1z5kx0mNBVVwsLC3Q6zGQyS0tL8/PzGxsbAQBnzpxZuXIlhravr+/du3e9vb1TU1N9fHzQs+Dx8fGrV6+2sbFxcXEpLCxkMBgbNmywt7dnsVi2traHDh3CJtqE4phyfCEzM3PDhg3p6elNTU26urrm5ubh4eG7d+++f/9+VlaWtLT08OHDN27cOHTo0HXr1r19+7apqalfv34mJia3bt1C9118//33OTk5rq6uCIKkpKQsWbIEPbYnULOVlZWXl5eLiwv6I0aE/hYUFKxduzY9Pb2xsVFPT8/CwuLGjRv43nWqsmivK/8uQI/MHx/KaiMiIubMmbNw4cLLly9zKC0oKLh+/dqjRw//+SdRR0fD2HigoaGusrKCkpLC52kOvbGxJTf3fXZ2YUVF9bhxYxwdJ86f76qvr8+hB3uMjIx0dnY+cuQI5SEarAkJFSTxikvIVBHUVlVVvX//3tzcnONrtbCwsKamRl9fHz3iDABobGxUUVHhaIKXOAcbJY9sNjs7O1tDQwNdfxBNJy+DSfZXtEY7UkoSryv0yB03gpMnT3748OGTJ09sbGwAACwW69q1aydOHMvOfufqOnHyZCs7u+FqapzblfD2NTQ0x8W9evDgxfXrD42MBq9du97NzY37QsiDBw/u2bPn8ePH6LkyvIZOXpbEK97JuwzN67oISOJ1hR65496H1NTUkSNHWlpavnjx4uLFi/7++/v27bV163fTpln36CHcNkQGgxkZ+eznny+Xllbt2bNv6dJl+OjQ3LlzIyIiamtrsQh+x3VSvJYk8YqLZxGUhgjwREASryv0yDzhlkTFhg0bWltbs7MzWazWwMANNjbDxGwlPj5l+/bfpaTkT5w4hZ2Y6Fq59fAIEL7i+C8bPLP4ZZGvkRO/aaihGyBA+LqK2S/hpmZiNgbFTU1NDhzwO3jQa+XKWZRsALCxGZaQcPrs2duTJjl9//2ejRv/1y1P60nCdYrm6ElmPtXR0eE4jgxffogAGQSgRyaDEgU8bW1ty5cvzc1N/+efc/r6uhRo/FeFlJTU6tVznJxGu7ntjo9/+t13iwEA0B38Cw/1/+bn5+fl5Z0+fbqlpcXFxcXR0RHdEdHa2lpcXPzixYuEhIQJEyY8evSI+rZF0hgfH//w4UMfHx9FRUWRFEChjkMArlp0BNaNjY1z587W1JT/66+9cnKyEmqyra192bIDL15kFRQUdsWwHgCA8GcgIVF8DMVUa2dn9/TpU+6reQAAx48fDwoKInMXmvi9wGs4e/ash4cH928vKyurly9f3rx5c+7cuXh+WBYTATFfIcLW4QkRQlioJLa0tDg7TzU21rx06YDk3DEAQE5O9tKlA05OI0xNTQRecENlD79JXei8mHujCwBg/fr1mpqaklhp4Y80r2Sjfn5+GzdudHR05C8OazsDAtAjS3YUmEzmggXzDQ01jx/34Z68UN62lJTUqVO7xowx8vBYht2QQHkrUKFABCZPnlxZWSmQjUIGPslGnZ2df/vtN1VVVQqbg6okhAD0yBIC9v/V+vruZjIbzpzxFS2OJIJxNBrt9GlfFqvR11e4uwhEaAuK4BGoq6vDvLCZmVlxcTG+VtJlmGxU0gh3jH4Y2ZMgzvfu3bty5WJy8gUZGWkJNsOlWkZGOjT0wMiRS+3tHZydnbnqIUEiCCQnJ3/8+BG9kHP+/PloG7W1tXfu3CkuLqbRaJaWls7OzthPJTKJRPGG1tfX3759OzMzk81mW1lZzZs3D/2a55MdtaWl5d69e2gW1E2bNuGnyRQahjcSlsVEAM6RxQSQp3hTU9OaNatDQvw0NNR4MkmsQkNDLTR0/5o1q5uamiTWCFT8BQLPnj3DnqU/f+Li4qZMmWJqavr999/v3LmzsrJy+vTpWGJTMolEMYWJiYk2NjbS0tI/fP5oaWn973//YzAY/JONMhiMtLS0Y8eO7du3D3/1IIWGYRbCAjUIYMkKYYFaBDZv9l65ci6CJH3F/1aunLtly2Zq+yVRbYSZTwmJ4pshplr0hPratWv9/Px27tzp4uIiJSV169YtzLB3797JycklJydjFARBfvjhh5EjR+JToJJJJFpeXq6qqnr48GFMVVxc3KBBg/DN8Uo2iiDIH3/8gU8kSqFhmD3fZkHMV4gQNDhHpuaLjUNLYWHhhQt//fjjeg56Bz/++OP6Cxf+Kiws7OB2v53mbG1tZ3z+TJ8+neOquQ0bNpiZmY0YMQKPxqJFi169enXy5EmMSCaR6M6dO9va2jZu3IhJlZeXFxcXc9xYhNVyFDguzqfQMI6G4KP4CECPLD6GBBoCAw97es79KusVeGs0NNTWrJl7+PCPeCIsU4iAubn5yJEjx48f7+Hh4efnh2lubW19+PChlZUVRkEL/fv319TU/Pvvvzno/BOJ3rt3T19fX15eHpNyc3Nrbm4WIUhArWGYPbBAFQLQI1OF5H96amtrL1++7O298D/S1yt5e7tfuXKFwvTGX68rnb1lfNrTt2/fstls7vSgAABlZeWUlBSOznBzYolEKysrq6qquC9fxTtoDm18Hik0jE8rsEpkBKBHFhk6noJXr16dOtVaS6sXT44OrNDQUJs2zebq1asd2OY32pS9vT2W+bRnz57o7e/cWLS3t6O13FWEFGVlZSkpKXxcjpCNg/j27VsOCvpIoWGE+iFRTASgRxYTQALx0NC/liyZSlAhJInNZmdlFcbFvbp3L+HGjZg7d57GxiYnJWU0NX1K2EP+s2TJlNDQv8jzQ07xETA2NlZSUiotLeVQ1dbWVlVVNXz4cA46n0dFRcXBgwfn5ORw87BYLG4iSsGSjXIwUGgYh2b4SAkCcD8yJTD+p6S+vv7t23Qnp9H/kYQv5eQUHz0aevVqdH39p71r6LZT7FSutLTUmDFDNm1yd3WdSObgycSJY9zdv6+tre3Vq1NM24XHo+tJSElJeXl5nTx5kk6n45cX4uLi2traNmzYIFSXNm7cuGHDhlevXuHjhHQ6/dChQ/7+/qgqLNko/1Gm1jChegGZySAA58hkUBKCJy4uztp6uKxsDyFkcKwsFvvw4Qvr1/80Zcq45OTQgIBPf7oBARva2v4pKrrz9OmZbduWaGqqP3v2xs1t14wZ3nR6O06auCgjIz1u3LC4uDjiakgVCQE0Oyef7d7+/v4GBgZHjx7F1DMYjICAgM2bN9vb22NEMolEvby8HB0dN2/eTKfTMcFffvll6dKl2CNhslG0FjW1uroafaTQMKx1WKAKAXj3G1VI/r+enTt3KCt/9PX1EE3vmjU/JCdn/vNPMJpVZOPGw8eOXbt377dp06wxhSwW+9Chs/v2/QkAWLfO9fjxHVgVr8KPP56vqZEPDAzkxdBJ6ISXaRESxTdYNLVsNnvWrFnFxcU5OTnS0tKKiooGBgba2trXr1/n3ovW2tq6e/fu5uZmGxub2tra2NhYV1fXxYs/XZcKABAqkSiTydy3b19CQsJ3332noqLy+vXr+fPnjx79xU8x7uyoubm5WCLRPn36zJo1C93+TKFh4g9E19Ug2ivEv7/QI/PHR+jaOXNmLltmP3fuBKElAUhMfDtx4rp79361tf3/dcaZMzffufP0/fvIvn01ORT6+PwWGHhBTk62vDxKXZ0zSyYHc0RE3NmzMbdv3+Wgd7ZHwleczMqMaB3BFoJEEycpxWaz3717p6qqiuafJilFyIYgSHZ2NoIgxsbG2GlsPCevZKN4HqxMoWGYzm+qQPi6iokA9MhiAsgpbm5ucu2av7k5z0TRnAK456KicjU1ZVXVT2F69GNh4VZWVlVTQ3D3eX19U9++U1tb2+Ljz44fb/mvBPG/WVmFc+bsysp6R1zdaaiSeMU7TeegId0NAUm8rnAdmeK35MOHam1tEQNoAwb0wbtjOr09O7vI0tKI0EQ1NWUzs09+v7lZ8NYLbe1eVVVVhHq6MbG+uS0lt6bxo+Cl9m4MAuxa10IA7rWgeLyampqVlanJnZOa+o7BYA4dOpiXiaj7NjIawIsBoysrKzU2NmOP3b6QX9boc+L5xzbGYD21nJIGNWXZw2vH9tP678dHt0cAdrCLIgA9MpUDhyAIg8GgKlFIUlIGAICPRy4trVRRURowQEdgH2RkpKWkaO3t7RxXHAgU7IoMRRVNrvse/Po/m490ht+5pNz3DWw28iq7Kva32X16U/NlicHCZrPv3r0bERHRo0cPGRmZ+vr6SZMmzZ8/v+Mz2tXW1oaFhVVVVVVXV+/du1dN7SvcOIjBAgsiIwBXLUSGjkCQRqPJyvYgsyONQJiLFBubTKPRpkwZy1XziVBWVpWbW+rpOY8wwsMhwmAwEQR8C+4YAOAXnHRgxWgbC520vNq3BbX0dlY7k11W0+IX/JIDFjEf09LSrKysLl26dPjw4RMnTvz+++9nzpxpamoaMWJEVFSUmMqFFUcQpLa29vr160FBQeh2N2E18OePj4/38/ND9+rx54S14iAAPbI46BHIKiv3bGr6SFAhJKm1tS0y8pmNzTBdXS1C0b/+uiMvL+vt7U5Yy0FsampRUfkmfrO3MVgpuTUaqvKu+6IDr3xxfcTthCI2gnAgI/Ljs2fPbG1t3d3dL1++jB3KkJOTW79+/alTp+bOnXv+/HmRlZ89e5bNZgsl3rt37x07dqxZs0YoKfLMW7Zs2b9///3798mLQE4REIAeWQTQ+Ino6OiUlVEQQ3vw4PnHj61ubpMIG3v//sOPP54/e3YvL3/NIVVWVqWtTezZOTi7+mNbO6u3qvyJiIyoxOIWOhPfneZWBr2N57FjPKfAcmVl5bx582xtbbdu3crNbGdn5+Pj4+npmZiYyF1LhsIrh6lAWe490QJFSDLA9KkkgRKTDXpkMQHkFDcyGvzuHQUJ1m7efCQlJTV//kTOBgBobPw4d+62LVsW/14CRwAADi5JREFULVw4mbuWkJKdXWRsbExY1c2Iue8bs4rrCsobufulpa6gKE9N4MTX17eystLX15e7FZTi7e3do0ePdevW8WLgQ+eTw5SPlKSrYPpUSSOM6ocemWKcTU2HpKfni6mUwWD+/fdTB4eR3BvpcnKKp07duHbt/H37PMm3kpGRb2JiRp6/i3K20JmbjyU0NLe/yavl7sLiycT7CLk5+VMqKysvXLigo6MzdizxEj8AQF1d3cHB4dWrVw8fPuSvjbsW5jDlxuTboVAzZfh28BLYU2tr6yNHDghk48/w+HFSXV0jx5JFZWXt779fefky448/dg4bJpxziYtL3bLle/6NdvXadyX1iw8+yiyqAwAwWZyLsGPMtHcvFuLGNT5oREVFMRiMcePG8eEBAIwbN+7evXt///33xIkTSSY55ZPDFGuLT8ZSjIe7QEYqPz//wYMHNTU1o0aNmjJlyoMHDzIzM8vKyjZu3Pj8+XPC9KkAgLy8vPv37zc0NMjLyzs6OlpaCjisxG0bpOARgHNkPBoUlG1tbV++TBNnuwWCIBcufDruLCUldeNGzJ9/3vz++z/s7FZ/952vpaXR/fvHhHXHdHr7ixdvbG1tKeje11bR1MI4EZG+8qfYVYdjz97NavzYjiAgq7h+028J1utuvSupX+hoGOY/5eUpl80LhvZU+P/7nmZYD7h32FmuBzUZwZOSkgAAOjoCNh2iZ6Zfvvy0wYNkktPi4mJlZeUJEz4dwa/+94O/XYh/xlJeg0NG6tSpUy4uLhMmTPDy8oqKijI2Nq6qqtq0aVN+fn5GRgZh+lQAQGhoqJub26RJk3bt2uXu7r548eLTp0/zMgPSSSFAmH0PEsVBwMnJ4caNw6IlPGUwEq2th6Ij17Onor6+7owZtkeOeGdkXBdNIYIk3bwZ6OhoL06POkyWfyrJN3k1xosurT365NbTgh0n/zFbckV56hnNmcE9p5zpOeXMhE23s4rq8Kb+FZWNVhVVNuHpYpZdXV0BADt27OCv5/r16wCAQYMGYWxkkpwiCMIrhymZjKVnzpzBJzlFEISM1Nu3b2VkZG7evImaymQy1dXVfXx8MMu506ciCJKQkCAlJZWUlISxxcTEyMrKFhYWYpTuXeD/uorWdzhHJvW9JRTTkiXLQ0JE3I4qIyOdkHAOdb5NTU/y8iL+/jto69bFpqaDhLIBzxwSErVkyXI8pSuWW9qYC/dHH1hp9fum8btPJR4PTy/+0IwgoLX90/YJz5lm949MN+7/xbGIOTYDpaVo/bV79qf0tJ6MzKe1PoF7ftGLOvF7wNHyoEGDsC3kSkpK6urqubm5ZEaEZMZSDlVkpCIjI5lM5rBhw1BZaWlpU1PTa9eu4VXhO4LSN23apK+vP3LkSIzNwcFBQUHh3LlzGAUWhEUAemRhERPM7+LiEh//uqSkUjCr5DlKSz88efJq3rx5km9Ksi2ExeaPMNKcbTOwoLyppqkN35j9sL5H1o3rIcP5MqsoyfbVUOqlLIdnFr+M5pwWmLoQZeBIUA0A4J/klJd5wmYsRfWQlEL3PtfX12Oty8vL8089VV9fn5SUhHfH6DqbkZFRVlYWpgcWhEUARvaERUwwf8+ePVeuXHXkyMVff90imFvCHIGBIStXrlJREXBdp4StoED9q5zqKaP1rNbczC/j3NlmZapFoxE30UtZTobLUxOzkqba2dkdPXo0NTWVvwSa3hR/OT3KzyfJKR+FwmYsRVWRlHJxcdm3b9/r16/RdFMMBuPVq1c+Pj587MnMzAQAfPjwAX8lPwDAzc3NxMSEjyCs4o8A9Mj88RGxdsuWrebmptu2LerXT1tEFVSIlZRUXrwYlZ7+6Y+nq39kZaQyi+q53TEAoLD8U+4rwk9rO6vuywk1IZtQxIkTJ/bu3TszM7OiooJXfA9BkCdPntBotPnz5wulnJv57du3Q4YMES1jKUkpAwODlStX/vLLL7169TI0NNy/f/+CBQv4e2Q0idTAgQMJz8hw9wJSSCLA+UOPpBhk44+Atrb2pk3emzf/wp9N0rXe3kHe3pu1tb/mtwJVfbQd2icykfjoTVhc/s0nBdwNtTPZpR+ay2tbmloY3LUiUxQVFdGoF58F08jIyJKSkvnz53OsUYjQKJrDVLSMpSSl2tra5OTkXrx4AQBIT08PCAj4888/paX5bU0xMDBQUVEhXKDomDwAIiDZJUSgR5bUMPn47EhLK7h9+4mkGhCk9/btJ2lpBdu38/vtKUhHJ6qfNra/urIc4eoEG0E8Ah7v/PM5x7HpO8+KWtqYDCb7yiNSoTPyvd2yZYudnV1gYGBZWRm3VHt7+86dO/v27Xv8+HHuWoEULIcpnhPNWBodHY3fDAcA4J9KlaRUcXFxeXm5vLz8nDlz3NzcDA0N8U0Tlmk0mre3d1paWm3tF4dxGhsbd+/eTSgCiWQQgB6ZDEqi8MjJyYWEXPT0DCgsJPijFUWjMDIlJZVr1gQEB/8lJ0dxXEsYK6jklZaiXds/yXZoH7zSaWP7n9puH+A5ZryFzvHwdAuPaz9dev2upJ7FRi7H5O489Xy2zcDVM0wvRecEhL7mPjaCVyVUWUZGJjw83MzMbM6cOfiA2KfDKUzm8uXL6+vro6OjUd+KaSaT5BQAwCuHKZmMpegOEPwNbWSkBgwYEBsb6+Lism3btr179x46dOjYsWNv377FLMf2lmDpUwEAvr6+ZmZm3t7eeLaDBw+uXr0aT4FloRCAWZ2Egkto5sDAw2FhFx89+kNRUV5oYVEFWlrojo7rXFwWdbkJMpk0Oa9zqhMzPiAAsR6iY2nQGwMpvbBu2/Fn8WkVKGWYYe+Leyfeelrwe9jbqvpWAMBCJ8OTW+0wfvELbW1tgYGBV65c8fT0tLe379mzZ3x8/IkTJywsLH744Qe8OxYqySnq7O7evevt7Z2amurj44Ml6OOTsRSf5FRPT8/CwuLGjRtoH/lIYSDs2bMnJCREQ0NDSkqqvb29pKSktrZ26NCht27dYrFYhOlTAQBtbW3ff/99Tk6Oq6srgiApKSlLliz5do7tkXldMYRJFqBHJgmUiGwIgqxatbK4OPPu3SBZ2f8/QiaiLnJiLBbb1XWXoqJWSMhFyeUMJWeL0FxivuIIAvacffHrjTRFeZmXf7r01+7p5hd97/l/q8+RgdNtLASctRPW6La2tpiYmJycnPb/a++OQtq44ziAX7ZDS0aW3JrBVkVtMpqHjVXSdjAKQtCEIsrWjY49KIIvu24WbPdSLCPpWFnHoPgytL7IYFhn6/LiS41NfBkbRrdiWVgyiFKxdKszd6loDUk6osPFaLL8m/8vGv3e0+Xyz+//v8/9+Jmcd/+Lxaqrq+12uyRJrEG2ts/xDNNne2Jptk/F4/GmtaWjoyN9GNPT07Is63S6/52BM5lMBoNBo9GY/kcoPdReXS8wXbdlQUXeloXnxng8fvr0O2VlsYGBz3k9XiTb+FZXY62truXl593u1FMtsjXbtdu5pLj905FXXtLWWysGxv74OfBn+pTIH7/7+ldy1umBdi0L6cA8Hk97e/vc3NzWXiYnJ+vq6paWljZuadnaZj9v4ZKuGYA4j5wBwv+lKIq3bv0gitKpU52KkvU6rcI7VpTHjY3nBUE3POwuxXJcuMB6BPvxygqj9uvBuz/9tqkcC4Lwd/QJr172TJyqqqqFhYVoNPMqb0EQwuGw2WxGOS7msUZFLoZ2eXn5jRuDVutJq7XV7089PY/74vcHjh1rq619e3BwaM/8N+/ZlMyHXpwKLfwVSZ07zlgOv1ryd8pk7FHhLy0Wi8vlam5unpnZdAWhx+NxOp19fX2Fd4EI+QvgrEX+Vhxaut3us2c/kuX3Ll5sO3CgjEPE1LxisatXv+3pGe7puV7qd0tz+Rm4vBp/o21oMfokkdz0DKcy8bmJ6++bK1CUt8m7QCDQ398viuL6/BWRSMRkMrW0tBiNxm1aY9OaAJd0zbBERc4AIX85Pz9/4ULn1NTElSvymTMNhfwkTCaTN2+OXbrUa7WeuHatu7Kyknz0xB3wSnHfrw8+dHmWV/97qpNGI3SfO9neiBt8iQ/hfgrPK13TzVCR0zWKt+71ep3Ozx49etjZmZpgVpLYvrhFItGhobHu7u8PHnz58uUv6uvrizd0yp44pvjv95Uvv/vlx3sPE8mnta8Zz3/wZt3RTdcyU+4HYu8LAY7puuGFirxBsQMr4+Pjvb3f3L49arOdcDjestmOWyzVOcYRCt33ev2joxM+n9/hsMvyJ+uzm+f4SGm9RZHipSWA0ZaQAEW6oiLvfAKoqjoyMnLnjsfn8y4uRo4cOWwyHTIYdHr9CxqNRlGWFOVxOPwgFJqRJMlmszU0OJqamvR6/c4PnfcIKFKc9xgRDwL/ClCkKyry7kovVVWDweDs7KyiKKqqCoKg1+sNBkNNTY3FYtmTVTj9AFCkeHp8rEOAowBFuqIiczxACFWoAEWKFzomfB4CWQQo0hXXI2fBxmYIQAACRRfAjPVFJ0eHOQVKbi6OnHuDNyHAJoCzFmxeaA0BCECATgBnLehsERkCEIAAmwAqMpsXWkMAAhCgE0BFprNFZAhAAAJsAqjIbF5oDQEIQIBOABWZzhaRIQABCLAJoCKzeaE1BCAAAToBVGQ6W0SGAAQgwCaAiszmhdYQgAAE6ARQkelsERkCEIAAmwAqMpsXWkMAAhCgE0BFprNFZAhAAAJsAqjIbF5oDQEIQIBOABWZzhaRIQABCLAJoCKzeaE1BCAAAToBzI9MZ4vIEIAABPIVeLq24Dtyvl5oBwEIQIBOIJFIdHV1YcZ6OmFEhgAEIJCvwMrKilar/QcmPv48uNHYkgAAAABJRU5ErkJggg==;" parent="1" vertex="1"><mxGeometry x="10" y="10" width="475" height="379" as="geometry"/></mxCell><mxCell id="5awWhunC0pSESNitrUqh-2" value="Data flow&lt;br style=&quot;font-size: 20px;&quot;&gt;Situation Assessment&lt;br style=&quot;font-size: 20px;&quot;&gt;Desire &amp;amp; Possibility Evaluation&lt;br style=&quot;font-size: 20px;&quot;&gt;Moral Evaluation&lt;br style=&quot;font-size: 20px;&quot;&gt;Mental State&lt;br style=&quot;font-size: 20px;&quot;&gt;Function&lt;br style=&quot;font-size: 20px;&quot;&gt;Ontology" style="rounded=0;whiteSpace=wrap;html=1;align=left;strokeColor=none;verticalAlign=top;fontSize=20;spacing=2;spacingTop=0;" parent="1" vertex="1"><mxGeometry x="270" y="194" width="280" height="171" as="geometry"/></mxCell></root></mxGraphModel></diagram></mxfile>